{"glyphs":{"0":{"ha":664,"x_min":0,"x_max":0,"o":"m 288 -15 b 614 321 485 -15 574 86 l 674 660 b 417 1015 715 906 610 1015 b 86 683 242 1015 126 933 l 26 346 b 288 -15 -12 115 57 -15 z m 297 194 b 257 301 257 194 243 224 l 328 706 b 404 814 342 783 360 814 b 444 706 449 814 458 785 l 374 301 b 297 194 360 222 342 194 z "},"1":{"ha":513,"x_min":0,"x_max":0,"o":"m 417 0 l 454 217 l 343 217 l 481 1000 l 301 1000 b 121 842 263 917 199 858 l 93 678 l 196 678 l 115 217 l -6 217 l -43 0 z "},"2":{"ha":633,"x_min":0,"x_max":0,"o":"m -36 0 l 532 0 l 569 218 l 263 218 l 265 236 b 415 372 278 292 342 326 b 657 685 513 433 626 514 l 668 747 b 407 1018 696 911 603 1018 b 99 760 242 1018 131 951 l 74 619 l 307 619 l 332 758 b 396 822 340 806 360 822 b 440 758 432 822 447 800 l 431 701 b 246 508 415 613 335 564 b -1 200 142 442 28 367 z "},"3":{"ha":650,"x_min":0,"x_max":0,"o":"m 279 -17 b 590 247 465 -17 557 64 l 607 349 b 546 515 622 432 596 485 b 649 651 601 536 635 578 l 667 754 b 406 1017 696 918 593 1017 b 101 769 247 1017 132 951 b 82 660 101 769 85 672 l 311 660 l 329 760 b 392 831 338 808 357 831 b 438 767 425 831 446 814 l 418 650 b 353 604 413 615 393 604 l 283 604 l 253 429 l 321 429 b 375 383 365 429 382 419 l 351 250 b 283 185 344 207 326 185 b 238 257 249 185 228 200 l 258 371 l 25 371 b 8 279 22 358 8 279 b 279 -17 -24 90 50 -17 z "},"4":{"ha":669,"x_min":0,"x_max":0,"o":"m 357 547 l 389 617 l 372 556 l 340 372 l 239 372 z m 611 174 l 646 372 l 554 372 l 664 1000 l 465 1000 l 17 344 l -12 174 l 306 174 l 275 0 l 489 0 l 519 174 z "},"5":{"ha":628,"x_min":0,"x_max":0,"o":"m 261 -18 b 571 226 435 -18 540 63 l 608 431 b 426 688 640 597 561 688 b 299 640 368 688 329 671 l 344 796 l 439 796 b 690 988 624 796 660 817 l 692 1000 l 197 1000 l 49 492 l 250 440 l 261 463 b 328 504 278 488 296 504 b 378 436 364 504 386 479 l 347 261 b 283 192 340 218 324 192 b 240 256 247 192 233 214 l 260 365 l 19 365 l -3 243 b 261 -18 -28 100 50 -18 z "},"6":{"ha":653,"x_min":0,"x_max":0,"o":"m 601 265 l 619 365 b 460 599 647 514 581 599 b 293 515 376 599 325 564 l 325 697 b 403 817 338 776 358 817 b 447 761 440 817 453 792 l 428 650 l 664 650 l 678 728 b 425 1015 708 893 632 1015 b 86 686 244 1015 126 928 l 21 322 b 288 -15 -18 96 60 -15 b 601 265 485 -15 569 82 z m 293 189 b 251 283 251 189 239 219 l 274 406 b 333 432 289 421 307 432 b 383 357 376 432 394 411 l 368 271 b 293 189 358 215 338 189 z "},"7":{"ha":581,"x_min":0,"x_max":0,"o":"m 258 0 b 638 811 365 338 479 563 l 671 1000 l 125 1000 l 86 776 l 382 776 b -12 0 250 579 97 329 z "},"8":{"ha":639,"x_min":0,"x_max":0,"o":"m 269 -19 b 582 224 471 -19 554 60 l 601 338 b 533 518 617 429 590 489 b 651 672 597 543 638 592 l 668 768 b 410 1017 696 933 606 1017 b 111 797 226 1017 135 926 l 94 704 b 151 525 79 621 99 558 b 19 358 79 499 33 440 l 3 260 b 269 -19 -28 81 32 -19 z m 313 663 l 332 772 b 396 819 338 801 354 819 b 442 758 436 819 450 800 l 424 663 b 358 608 417 624 397 608 b 313 663 319 608 306 624 z m 285 193 b 236 256 246 193 228 211 l 257 372 b 324 433 263 404 282 433 b 376 371 368 433 383 411 l 353 243 b 285 193 346 208 324 193 z "},"9":{"ha":650,"x_min":0,"x_max":0,"o":"m 360 569 b 311 660 321 569 297 590 l 324 732 b 396 817 333 788 351 817 b 440 719 442 817 453 783 l 419 597 b 360 569 403 581 386 569 z m 269 -18 b 600 315 465 -18 560 65 l 665 685 b 399 1018 704 911 618 1018 b 89 738 201 1018 124 921 l 72 646 b 246 404 43 489 114 404 b 399 483 328 404 371 438 l 367 297 b 289 181 354 210 333 181 b 244 240 251 181 239 210 l 265 360 l 24 360 l 8 274 b 269 -18 -22 100 39 -18 z "}," ":{"ha":271,"x_min":0,"x_max":0,"o":""}," ":{"ha":271,"x_min":0,"x_max":0,"o":""},"A":{"ha":638,"x_min":0,"x_max":0,"o":"m 338 542 l 369 667 l 357 542 l 354 300 l 257 300 z m 351 0 l 574 0 l 535 1000 l 310 1000 l -75 0 l 157 0 l 193 110 l 353 110 z "},"B":{"ha":635,"x_min":0,"x_max":0,"o":"m 304 0 b 581 233 486 0 551 72 l 599 332 b 533 517 615 431 593 488 b 646 678 599 542 632 590 l 660 763 b 419 1000 688 928 600 1000 l 149 1000 l -26 0 z m 397 819 b 443 769 432 819 449 801 l 422 661 b 356 606 415 622 394 606 l 296 606 l 333 819 z m 317 419 b 374 358 367 419 382 406 l 356 260 b 281 194 347 211 329 194 l 224 194 l 264 419 z "},"C":{"ha":654,"x_min":0,"x_max":0,"o":"m 285 -15 b 604 289 482 -15 567 75 l 632 447 l 389 447 l 364 301 b 292 194 350 222 336 194 b 257 303 251 194 243 225 l 328 706 b 400 814 342 783 356 814 b 435 706 444 814 449 785 l 413 578 l 654 578 l 675 694 b 418 1015 715 921 604 1015 b 94 722 247 1015 135 947 l 22 315 b 285 -15 -15 100 56 -15 z "},"D":{"ha":657,"x_min":0,"x_max":0,"o":"m -26 0 l 251 0 b 601 290 442 0 565 79 l 665 650 b 415 1000 708 869 603 1000 l 149 1000 z m 372 806 b 436 694 431 806 450 765 l 368 313 b 275 200 354 226 318 200 l 236 200 l 343 806 z "},"E":{"ha":557,"x_min":0,"x_max":0,"o":"m 500 214 l 236 214 l 268 400 l 500 400 l 538 608 l 306 608 l 339 794 l 597 794 l 633 1000 l 149 1000 l -26 0 l 463 0 z "},"F":{"ha":529,"x_min":0,"x_max":0,"o":"m 478 375 l 515 586 l 300 586 l 336 788 l 576 788 l 614 1000 l 149 1000 l -26 0 l 197 0 l 263 375 z "},"G":{"ha":653,"x_min":0,"x_max":0,"o":"m 374 0 l 540 0 l 639 560 l 357 560 l 322 368 l 390 368 l 378 301 b 294 193 363 218 335 193 b 257 303 250 193 243 224 l 328 706 b 392 814 342 783 351 814 b 426 707 436 814 440 782 l 411 626 l 650 626 l 663 706 b 417 1015 696 915 611 1015 b 93 725 244 1015 133 957 l 15 281 b 181 -15 -21 76 51 -15 b 374 139 282 -15 340 29 z "},"H":{"ha":656,"x_min":0,"x_max":0,"o":"m 315 0 l 543 0 l 718 1000 l 490 1000 l 422 611 l 308 611 l 376 1000 l 149 1000 l -26 0 l 201 0 l 271 393 l 385 393 z "},"I":{"ha":490,"x_min":0,"x_max":0,"o":"m 392 0 l 429 217 l 325 217 l 425 785 l 529 785 l 567 1000 l 135 1000 l 97 785 l 204 785 l 104 217 l -3 217 l -40 0 z "},"J":{"ha":624,"x_min":0,"x_max":0,"o":"m 254 -15 b 564 303 442 -15 525 81 l 686 1000 l 450 1000 l 322 274 b 265 194 311 213 297 194 b 236 276 233 194 225 217 l 263 422 l 25 422 l 8 326 b 254 -15 -29 108 38 -15 z "},"K":{"ha":671,"x_min":0,"x_max":0,"o":"m 315 415 l 349 0 l 594 0 l 522 592 l 517 625 l 761 1000 l 501 1000 l 326 703 l 311 671 l 324 729 l 371 1000 l 149 1000 l -26 0 l 196 0 l 267 407 l 315 485 z "},"L":{"ha":543,"x_min":0,"x_max":0,"o":"m 444 0 l 485 232 l 250 232 l 385 1000 l 149 1000 l -26 0 z "},"M":{"ha":772,"x_min":0,"x_max":0,"o":"m 269 488 l 276 581 l 276 575 l 343 275 l 389 275 l 560 579 l 567 594 l 535 499 l 447 0 l 660 0 l 835 1000 l 639 1000 l 421 611 l 340 1000 l 149 1000 l -26 0 l 185 0 z "},"N":{"ha":683,"x_min":0,"x_max":0,"o":"m 257 447 l 271 560 l 279 489 l 371 0 l 571 0 l 746 1000 l 540 1000 l 461 546 l 449 440 l 440 511 l 353 1000 l 149 1000 l -26 0 l 179 0 z "},"O":{"ha":664,"x_min":0,"x_max":0,"o":"m 288 -15 b 610 297 485 -15 571 78 l 675 669 b 419 1015 718 913 613 1015 b 90 708 242 1015 131 936 l 22 322 b 288 -15 -12 124 57 -15 z m 297 194 b 257 301 257 194 243 224 l 329 706 b 404 814 343 783 360 814 b 444 706 449 814 458 785 l 374 301 b 297 194 360 222 342 194 z "},"P":{"ha":632,"x_min":0,"x_max":0,"o":"m 386 810 b 439 740 432 810 447 788 l 411 579 b 332 506 403 528 381 506 l 286 506 l 339 810 z m 308 307 b 633 543 521 307 606 392 l 665 719 b 431 1000 696 888 632 1000 l 149 1000 l -26 0 l 197 0 l 251 307 z "},"Q":{"ha":664,"x_min":0,"x_max":0,"o":"m 528 -119 l 474 31 b 610 297 546 79 586 165 l 675 669 b 419 1015 718 913 613 1015 b 90 708 242 1015 131 936 l 22 322 b 257 -14 -11 133 51 -3 l 283 -119 z m 297 194 b 257 301 257 194 243 224 l 329 706 b 404 814 343 783 360 814 b 444 706 449 814 458 785 l 374 301 b 297 194 360 222 342 194 z "},"R":{"ha":624,"x_min":0,"x_max":0,"o":"m 383 810 b 433 746 429 810 442 792 l 411 618 b 340 561 404 578 386 561 l 289 561 l 332 810 z m 286 360 b 340 290 338 360 350 344 l 301 71 b 310 0 296 35 297 8 l 542 0 b 528 71 526 15 522 39 l 565 282 b 511 458 581 372 572 428 b 629 604 582 479 615 522 l 651 732 b 432 1000 683 914 618 1000 l 149 1000 l -26 0 l 190 0 l 254 360 z "},"S":{"ha":603,"x_min":0,"x_max":0,"o":"m 251 -17 b 556 242 438 -17 521 58 l 567 310 b 424 579 592 460 504 526 b 311 724 336 638 299 658 l 318 760 b 375 831 326 804 340 831 b 415 767 408 831 425 814 l 394 660 l 618 660 l 635 754 b 388 1017 665 924 575 1017 b 92 769 229 1017 122 951 l 83 721 b 219 451 57 563 142 503 b 333 289 286 408 349 372 l 325 246 b 267 185 318 207 306 185 b 229 258 232 185 219 201 l 250 379 l 14 379 l -8 256 b 251 -17 -39 85 22 -17 z "},"T":{"ha":578,"x_min":0,"x_max":0,"o":"m 622 793 l 658 1000 l 131 1000 l 94 793 l 246 793 l 106 0 l 333 0 l 474 793 z "},"U":{"ha":643,"x_min":0,"x_max":0,"o":"m 275 -15 b 583 281 464 -15 546 64 l 710 1000 l 482 1000 l 358 297 b 289 206 346 225 331 206 b 249 297 247 206 236 226 l 372 1000 l 144 1000 l 26 331 b 275 -15 -14 104 56 -15 z "},"V":{"ha":640,"x_min":0,"x_max":0,"o":"m 368 0 l 742 1000 l 507 1000 l 349 531 l 318 404 l 333 531 l 335 1000 l 110 1000 l 139 0 z "},"W":{"ha":926,"x_min":0,"x_max":0,"o":"m 454 429 l 488 564 l 472 429 l 471 0 l 682 0 l 1028 1000 l 807 1000 l 661 535 l 621 368 l 633 533 l 639 1000 l 490 1000 l 326 533 l 278 375 l 300 535 l 324 1000 l 110 1000 l 90 0 l 303 0 z "},"X":{"ha":647,"x_min":0,"x_max":0,"o":"m 300 264 l 311 306 l 307 265 l 350 0 l 585 0 l 474 525 l 744 1000 l 508 1000 l 390 767 l 376 717 l 382 767 l 344 1000 l 114 1000 l 219 528 l -78 0 l 169 0 z "},"Y":{"ha":604,"x_min":0,"x_max":0,"o":"m 349 0 l 411 360 l 717 1000 l 485 999 l 367 718 l 339 613 l 349 717 l 332 1000 l 99 1000 l 175 358 l 113 0 z "},"Z":{"ha":586,"x_min":0,"x_max":0,"o":"m 483 0 l 521 219 l 260 219 l 619 807 l 653 1000 l 150 1000 l 113 781 l 364 781 l -3 188 l -35 0 z "},"Á":{"ha":638,"x_min":0,"x_max":0,"o":"m 338 542 l 369 667 l 357 542 l 354 300 l 257 300 z m 351 0 l 574 0 l 535 1000 l 310 1000 l -75 0 l 157 0 l 193 110 l 353 110 z m 349 1057 l 507 1057 l 704 1268 l 494 1268 z "},"Ă":{"ha":638,"x_min":0,"x_max":0,"o":"m 338 542 l 369 667 l 357 542 l 354 300 l 257 300 z m 351 0 l 574 0 l 535 1000 l 310 1000 l -75 0 l 157 0 l 193 110 l 353 110 z m 440 1054 b 658 1263 572 1054 632 1115 l 517 1263 b 457 1190 507 1206 493 1190 b 422 1263 419 1190 411 1204 l 281 1263 b 440 1054 254 1117 301 1054 z "},"Â":{"ha":638,"x_min":0,"x_max":0,"o":"m 338 542 l 369 667 l 357 542 l 354 300 l 257 300 z m 351 0 l 574 0 l 535 1000 l 310 1000 l -75 0 l 157 0 l 193 110 l 353 110 z m 481 1057 l 629 1057 l 547 1296 l 408 1296 l 243 1057 l 396 1057 l 457 1158 z "},"Ä":{"ha":638,"x_min":0,"x_max":0,"o":"m 338 542 l 369 667 l 357 542 l 354 300 l 257 300 z m 351 0 l 574 0 l 535 1000 l 310 1000 l -75 0 l 157 0 l 193 110 l 353 110 z m 325 1054 b 433 1149 394 1054 421 1076 b 360 1250 447 1226 428 1250 b 253 1149 294 1250 267 1226 b 325 1054 240 1074 254 1054 z m 538 1054 b 646 1149 606 1054 633 1076 b 572 1250 660 1226 639 1250 b 465 1149 504 1250 479 1226 b 538 1054 453 1074 465 1054 z "},"À":{"ha":638,"x_min":0,"x_max":0,"o":"m 338 542 l 369 667 l 357 542 l 354 300 l 257 300 z m 351 0 l 574 0 l 535 1000 l 310 1000 l -75 0 l 157 0 l 193 110 l 353 110 z m 365 1057 l 511 1057 l 460 1268 l 251 1268 z "},"Ā":{"ha":638,"x_min":0,"x_max":0,"o":"m 338 542 l 369 667 l 357 542 l 354 300 l 257 300 z m 351 0 l 574 0 l 535 1000 l 310 1000 l -75 0 l 157 0 l 193 110 l 353 110 z m 289 1068 l 582 1068 l 610 1224 l 317 1224 z "},"Ʌ":{"ha":638,"x_min":0,"x_max":0,"o":"m 332 542 l 364 667 l 351 542 l 346 0 l 574 0 l 535 1000 l 310 1000 l -75 0 l 151 0 z "},"Ą":{"ha":638,"x_min":0,"x_max":0,"o":"m 417 -289 b 650 -108 538 -289 610 -232 l 479 -108 b 438 -156 471 -143 456 -156 b 415 -131 421 -156 413 -149 b 575 0 418 -111 431 -92 l 574 1 l 535 1000 l 310 1000 l -75 0 l 157 0 l 193 110 l 353 110 l 351 0 l 353 0 b 254 -136 285 -49 263 -89 b 417 -289 238 -232 294 -289 z m 338 542 l 369 667 l 357 542 l 354 300 l 257 300 z "},"Å":{"ha":638,"x_min":0,"x_max":0,"o":"m 338 542 l 369 667 l 357 542 l 354 300 l 257 300 z m 351 0 l 574 0 l 535 1000 l 310 1000 l -75 0 l 157 0 l 193 110 l 353 110 z m 431 1053 b 619 1194 536 1053 603 1101 b 474 1353 636 1290 578 1353 b 289 1208 383 1353 307 1306 b 431 1053 272 1117 333 1053 z m 449 1172 b 421 1203 424 1172 418 1185 b 460 1235 424 1221 435 1235 b 488 1203 483 1235 490 1221 b 449 1172 485 1185 472 1172 z "},"Ǻ":{"ha":638,"x_min":0,"x_max":0,"o":"m 389 1243 l 547 1243 l 744 1454 l 535 1454 z m 426 1015 b 399 1046 401 1015 396 1028 b 438 1078 401 1064 413 1078 b 465 1046 461 1078 468 1064 b 426 1015 463 1028 450 1015 z m 338 542 l 369 667 l 357 542 l 354 300 l 257 300 z m 193 110 l 353 110 l 351 0 l 574 0 l 538 933 b 597 1038 568 957 589 992 b 451 1196 614 1133 556 1196 b 267 1051 361 1196 285 1149 b 289 946 258 1010 268 974 l -75 0 l 157 0 z "},"Ã":{"ha":638,"x_min":0,"x_max":0,"o":"m 338 542 l 369 667 l 357 542 l 354 300 l 257 300 z m 351 0 l 574 0 l 535 1000 l 310 1000 l -75 0 l 157 0 l 193 110 l 353 110 z m 215 1056 l 344 1056 b 378 1110 351 1092 360 1110 b 526 1051 419 1110 454 1051 b 692 1272 618 1051 661 1101 l 561 1272 b 526 1224 556 1238 547 1224 b 382 1278 496 1224 454 1278 b 215 1056 288 1278 246 1222 z "},"Æ":{"ha":885,"x_min":0,"x_max":0,"o":"m 383 297 l 274 297 l 400 586 z m 367 0 l 779 0 l 815 210 l 578 210 l 586 406 l 839 406 l 875 607 l 594 607 l 603 799 l 917 799 l 951 1000 l 376 1000 l -81 0 l 144 0 l 193 110 l 374 110 z "},"Ǽ":{"ha":885,"x_min":0,"x_max":0,"o":"m 383 297 l 274 297 l 400 586 z m 367 0 l 779 0 l 815 210 l 578 210 l 586 406 l 839 406 l 875 607 l 594 607 l 603 799 l 917 799 l 951 1000 l 376 1000 l -81 0 l 144 0 l 193 110 l 374 110 z m 419 1057 l 578 1057 l 775 1268 l 565 1268 z "},"Ć":{"ha":654,"x_min":0,"x_max":0,"o":"m 285 -15 b 604 289 482 -15 567 75 l 632 447 l 389 447 l 364 301 b 292 194 350 222 336 194 b 257 303 251 194 243 225 l 328 706 b 400 814 342 783 356 814 b 435 706 444 814 449 785 l 413 578 l 654 578 l 675 694 b 418 1015 715 921 604 1015 b 94 722 247 1015 135 947 l 22 315 b 285 -15 -15 100 56 -15 z m 358 1072 l 517 1072 l 714 1283 l 504 1283 z "},"Č":{"ha":654,"x_min":0,"x_max":0,"o":"m 285 -15 b 604 289 482 -15 567 75 l 632 447 l 389 447 l 364 301 b 292 194 350 222 336 194 b 257 303 251 194 243 225 l 328 706 b 400 814 342 783 356 814 b 435 706 444 814 449 785 l 413 578 l 654 578 l 675 694 b 418 1015 715 921 604 1015 b 94 722 247 1015 135 947 l 22 315 b 285 -15 -15 100 56 -15 z m 513 1072 l 679 1311 l 526 1311 l 464 1210 l 442 1311 l 292 1311 l 374 1072 z "},"Ç":{"ha":654,"x_min":0,"x_max":0,"o":"m 207 -335 b 419 -196 331 -335 403 -292 b 311 -60 435 -110 392 -69 l 319 -14 b 604 289 492 -4 569 88 l 632 447 l 389 447 l 364 301 b 292 194 350 222 336 194 b 257 303 251 194 243 225 l 328 706 b 400 814 342 783 356 814 b 435 706 444 814 449 785 l 413 578 l 654 578 l 675 694 b 418 1015 715 921 604 1015 b 94 722 247 1015 135 947 l 22 315 b 183 -6 -8 136 35 26 l 157 -151 l 232 -151 b 272 -181 261 -151 275 -161 b 221 -212 268 -200 251 -212 b 176 -179 192 -212 179 -206 l 10 -179 b 207 -335 18 -293 85 -335 z "},"Ĉ":{"ha":654,"x_min":0,"x_max":0,"o":"m 285 -15 b 604 289 482 -15 567 75 l 632 447 l 389 447 l 364 301 b 292 194 350 222 336 194 b 257 303 251 194 243 225 l 328 706 b 400 814 342 783 356 814 b 435 706 444 814 449 785 l 413 578 l 654 578 l 675 694 b 418 1015 715 921 604 1015 b 94 722 247 1015 135 947 l 22 315 b 285 -15 -15 100 56 -15 z m 490 1072 l 639 1072 l 557 1311 l 418 1311 l 253 1072 l 406 1072 l 467 1174 z "},"Ċ":{"ha":654,"x_min":0,"x_max":0,"o":"m 285 -15 b 604 289 482 -15 567 75 l 632 447 l 389 447 l 364 301 b 292 194 350 222 336 194 b 257 303 251 194 243 225 l 328 706 b 400 814 342 783 356 814 b 435 706 444 814 449 785 l 413 578 l 654 578 l 675 694 b 418 1015 715 921 604 1015 b 94 722 247 1015 135 947 l 22 315 b 285 -15 -15 100 56 -15 z m 442 1069 b 575 1183 526 1069 558 1089 b 482 1299 592 1275 558 1299 b 350 1183 389 1299 368 1275 b 442 1069 333 1099 363 1069 z "},"Ď":{"ha":657,"x_min":0,"x_max":0,"o":"m -26 0 l 251 0 b 601 290 442 0 565 79 l 665 650 b 415 1000 708 869 603 1000 l 149 1000 z m 372 806 b 436 694 431 806 450 765 l 368 313 b 275 200 354 226 318 200 l 236 200 l 343 806 z m 503 1057 l 669 1296 l 517 1296 l 454 1194 l 432 1296 l 282 1296 l 364 1057 z "},"Đ":{"ha":674,"x_min":0,"x_max":0,"o":"m 265 0 b 615 290 456 0 579 79 l 679 650 b 429 1000 722 869 617 1000 l 163 1000 l 94 608 l 43 608 l 7 407 l 58 407 l -12 0 z m 347 407 l 383 608 l 322 608 l 357 806 l 386 806 b 450 694 444 806 464 765 l 382 313 b 289 200 368 226 332 200 l 250 200 l 286 407 z "},"Ð":{"ha":674,"x_min":0,"x_max":0,"o":"m 265 0 b 615 290 456 0 579 79 l 679 650 b 429 1000 722 869 617 1000 l 163 1000 l 94 608 l 43 608 l 7 407 l 58 407 l -12 0 z m 347 407 l 383 608 l 322 608 l 357 806 l 386 806 b 450 694 444 806 464 765 l 382 313 b 289 200 368 226 332 200 l 250 200 l 286 407 z "},"É":{"ha":557,"x_min":0,"x_max":0,"o":"m 500 214 l 236 214 l 268 400 l 500 400 l 538 608 l 306 608 l 339 794 l 597 794 l 633 1000 l 149 1000 l -26 0 l 463 0 z m 311 1057 l 469 1057 l 667 1268 l 457 1268 z "},"Ĕ":{"ha":557,"x_min":0,"x_max":0,"o":"m 500 214 l 236 214 l 268 400 l 500 400 l 538 608 l 306 608 l 339 794 l 597 794 l 633 1000 l 149 1000 l -26 0 l 463 0 z m 417 1054 b 635 1263 549 1054 608 1115 l 493 1263 b 433 1190 483 1206 469 1190 b 399 1263 396 1190 388 1204 l 257 1263 b 417 1054 231 1117 278 1054 z "},"Ě":{"ha":557,"x_min":0,"x_max":0,"o":"m 500 214 l 236 214 l 268 400 l 500 400 l 538 608 l 306 608 l 339 794 l 597 794 l 633 1000 l 149 1000 l -26 0 l 463 0 z m 481 1057 l 647 1296 l 494 1296 l 432 1194 l 410 1296 l 260 1296 l 342 1057 z "},"Ê":{"ha":557,"x_min":0,"x_max":0,"o":"m 500 214 l 236 214 l 268 400 l 500 400 l 538 608 l 306 608 l 339 794 l 597 794 l 633 1000 l 149 1000 l -26 0 l 463 0 z m 457 1057 l 606 1057 l 524 1296 l 385 1296 l 219 1057 l 372 1057 l 433 1158 z "},"Ë":{"ha":557,"x_min":0,"x_max":0,"o":"m 500 214 l 236 214 l 268 400 l 500 400 l 538 608 l 306 608 l 339 794 l 597 794 l 633 1000 l 149 1000 l -26 0 l 463 0 z m 301 1054 b 410 1149 371 1054 397 1076 b 336 1250 424 1226 404 1250 b 229 1149 271 1250 243 1226 b 301 1054 217 1074 231 1054 z m 514 1054 b 622 1149 582 1054 610 1076 b 549 1250 636 1226 615 1250 b 442 1149 481 1250 456 1226 b 514 1054 429 1074 442 1054 z "},"Ė":{"ha":557,"x_min":0,"x_max":0,"o":"m 500 214 l 236 214 l 268 400 l 500 400 l 538 608 l 306 608 l 339 794 l 597 794 l 633 1000 l 149 1000 l -26 0 l 463 0 z m 408 1056 b 542 1169 493 1056 525 1075 b 449 1285 558 1261 525 1285 b 317 1169 356 1285 335 1261 b 408 1056 300 1085 329 1056 z "},"È":{"ha":557,"x_min":0,"x_max":0,"o":"m 500 214 l 236 214 l 268 400 l 500 400 l 538 608 l 306 608 l 339 794 l 597 794 l 633 1000 l 149 1000 l -26 0 l 463 0 z m 342 1057 l 488 1057 l 436 1268 l 228 1268 z "},"Ē":{"ha":557,"x_min":0,"x_max":0,"o":"m 500 214 l 236 214 l 268 400 l 500 400 l 538 608 l 306 608 l 339 794 l 597 794 l 633 1000 l 149 1000 l -26 0 l 463 0 z m 265 1068 l 558 1068 l 586 1224 l 293 1224 z "},"Ę":{"ha":557,"x_min":0,"x_max":0,"o":"m 536 -108 l 365 -108 b 324 -156 357 -143 342 -156 b 301 -131 307 -156 299 -149 b 461 0 304 -111 317 -92 l 463 0 l 500 214 l 236 214 l 268 400 l 500 400 l 538 608 l 306 608 l 339 794 l 597 794 l 633 1000 l 149 1000 l -26 0 l 239 0 b 140 -136 171 -49 149 -89 b 303 -289 124 -232 181 -289 b 536 -108 424 -289 496 -232 z "},"Ğ":{"ha":653,"x_min":0,"x_max":0,"o":"m 374 0 l 540 0 l 639 560 l 357 560 l 322 368 l 390 368 l 378 301 b 294 193 363 218 335 193 b 257 303 250 193 243 224 l 328 706 b 392 814 342 783 351 814 b 426 707 436 814 440 782 l 411 626 l 650 626 l 663 706 b 417 1015 696 915 611 1015 b 93 725 244 1015 133 957 l 15 281 b 181 -15 -21 76 51 -15 b 374 139 282 -15 340 29 z m 463 1069 b 681 1278 594 1069 654 1131 l 539 1278 b 479 1206 529 1221 515 1206 b 444 1278 442 1206 433 1219 l 303 1278 b 463 1069 276 1132 324 1069 z "},"Ĝ":{"ha":653,"x_min":0,"x_max":0,"o":"m 374 0 l 540 0 l 639 560 l 357 560 l 322 368 l 390 368 l 378 301 b 294 193 363 218 335 193 b 257 303 250 193 243 224 l 328 706 b 392 814 342 783 351 814 b 426 707 436 814 440 782 l 411 626 l 650 626 l 663 706 b 417 1015 696 915 611 1015 b 93 725 244 1015 133 957 l 15 281 b 181 -15 -21 76 51 -15 b 374 139 282 -15 340 29 z m 500 1072 l 649 1072 l 567 1311 l 428 1311 l 263 1072 l 415 1072 l 476 1174 z "},"Ģ":{"ha":653,"x_min":0,"x_max":0,"o":"m 374 0 l 540 0 l 639 560 l 357 560 l 322 368 l 390 368 l 378 301 b 294 193 363 218 335 193 b 257 303 250 193 243 224 l 328 706 b 392 814 342 783 351 814 b 426 707 436 814 440 782 l 411 626 l 650 626 l 663 706 b 417 1015 696 915 611 1015 b 93 725 244 1015 133 957 l 15 281 b 181 -15 -21 76 51 -15 b 374 139 282 -15 340 29 z m 111 -400 b 326 -193 233 -400 303 -325 b 250 -64 344 -90 326 -64 b 136 -162 176 -64 149 -90 b 201 -257 122 -242 143 -257 l 210 -257 b 128 -310 197 -296 175 -310 z "},"Ġ":{"ha":653,"x_min":0,"x_max":0,"o":"m 374 0 l 540 0 l 639 560 l 357 560 l 322 368 l 390 368 l 378 301 b 294 193 363 218 335 193 b 257 303 250 193 243 224 l 328 706 b 392 814 342 783 351 814 b 426 707 436 814 440 782 l 411 626 l 650 626 l 663 706 b 417 1015 696 915 611 1015 b 93 725 244 1015 133 957 l 15 281 b 181 -15 -21 76 51 -15 b 374 139 282 -15 340 29 z m 454 1069 b 588 1183 539 1069 571 1089 b 494 1299 604 1275 571 1299 b 363 1183 401 1299 381 1275 b 454 1069 346 1099 375 1069 z "},"Ħ":{"ha":696,"x_min":0,"x_max":0,"o":"m 438 550 l 317 550 l 342 693 l 463 693 z m 342 0 l 571 0 l 692 693 l 742 693 l 774 869 l 724 869 l 746 1000 l 517 1000 l 494 869 l 374 869 l 396 1000 l 167 1000 l 144 869 l 89 869 l 57 693 l 113 693 l -8 0 l 221 0 l 285 365 l 406 365 z "},"Ĥ":{"ha":656,"x_min":0,"x_max":0,"o":"m 315 0 l 543 0 l 718 1000 l 490 1000 l 422 611 l 308 611 l 376 1000 l 149 1000 l -26 0 l 201 0 l 271 393 l 385 393 z m 494 1057 l 643 1057 l 561 1296 l 422 1296 l 257 1057 l 410 1057 l 471 1158 z "},"Í":{"ha":490,"x_min":0,"x_max":0,"o":"m 392 0 l 429 217 l 325 217 l 425 785 l 529 785 l 567 1000 l 135 1000 l 97 785 l 204 785 l 104 217 l -3 217 l -40 0 z m 276 1057 l 435 1057 l 632 1268 l 422 1268 z "},"Ĭ":{"ha":490,"x_min":0,"x_max":0,"o":"m 392 0 l 429 217 l 325 217 l 425 785 l 529 785 l 567 1000 l 135 1000 l 97 785 l 204 785 l 104 217 l -3 217 l -40 0 z m 368 1054 b 586 1263 500 1054 560 1115 l 444 1263 b 385 1190 435 1206 421 1190 b 350 1263 347 1190 339 1204 l 208 1263 b 368 1054 182 1117 229 1054 z "},"Î":{"ha":490,"x_min":0,"x_max":0,"o":"m 392 0 l 429 217 l 325 217 l 425 785 l 529 785 l 567 1000 l 135 1000 l 97 785 l 204 785 l 104 217 l -3 217 l -40 0 z m 408 1057 l 557 1057 l 475 1296 l 336 1296 l 171 1057 l 324 1057 l 385 1158 z "},"Ï":{"ha":490,"x_min":0,"x_max":0,"o":"m 392 0 l 429 217 l 325 217 l 425 785 l 529 785 l 567 1000 l 135 1000 l 97 785 l 204 785 l 104 217 l -3 217 l -40 0 z m 253 1054 b 361 1149 322 1054 349 1076 b 288 1250 375 1226 356 1250 b 181 1149 222 1250 194 1226 b 253 1054 168 1074 182 1054 z m 465 1054 b 574 1149 533 1054 561 1076 b 500 1250 588 1226 567 1250 b 393 1149 432 1250 407 1226 b 465 1054 381 1074 393 1054 z "},"İ":{"ha":490,"x_min":0,"x_max":0,"o":"m 392 0 l 429 217 l 325 217 l 425 785 l 529 785 l 567 1000 l 135 1000 l 97 785 l 204 785 l 104 217 l -3 217 l -40 0 z m 360 1054 b 493 1168 444 1054 476 1074 b 400 1283 510 1260 476 1283 b 268 1168 307 1283 286 1260 b 360 1054 251 1083 281 1054 z "},"Ì":{"ha":490,"x_min":0,"x_max":0,"o":"m 392 0 l 429 217 l 325 217 l 425 785 l 529 785 l 567 1000 l 135 1000 l 97 785 l 204 785 l 104 217 l -3 217 l -40 0 z m 294 1057 l 440 1057 l 389 1268 l 181 1268 z "},"Ī":{"ha":490,"x_min":0,"x_max":0,"o":"m 392 0 l 429 217 l 325 217 l 425 785 l 529 785 l 567 1000 l 135 1000 l 97 785 l 204 785 l 104 217 l -3 217 l -40 0 z m 217 1068 l 510 1068 l 538 1224 l 244 1224 z "},"Į":{"ha":490,"x_min":0,"x_max":0,"o":"m 467 -108 l 296 -108 b 254 -156 288 -143 272 -156 b 232 -131 238 -156 229 -149 b 392 0 235 -111 247 -92 l 429 217 l 325 217 l 425 785 l 529 785 l 567 1000 l 135 1000 l 97 785 l 204 785 l 104 217 l -3 217 l -40 0 l 169 0 b 71 -136 101 -49 79 -89 b 233 -289 54 -232 111 -289 b 467 -108 354 -289 426 -232 z "},"Ĩ":{"ha":490,"x_min":0,"x_max":0,"o":"m 392 0 l 429 217 l 325 217 l 425 785 l 529 785 l 567 1000 l 135 1000 l 97 785 l 204 785 l 104 217 l -3 217 l -40 0 z m 143 1056 l 272 1056 b 306 1110 279 1092 288 1110 b 454 1051 347 1110 382 1051 b 619 1272 546 1051 589 1101 l 489 1272 b 454 1224 483 1238 475 1224 b 310 1278 424 1224 382 1278 b 143 1056 215 1278 174 1222 z "},"Ĵ":{"ha":624,"x_min":0,"x_max":0,"o":"m 254 -15 b 564 303 442 -15 525 81 l 686 1000 l 450 1000 l 322 274 b 265 194 311 213 297 194 b 236 276 233 194 225 217 l 263 422 l 25 422 l 8 326 b 254 -15 -29 108 38 -15 z m 622 1057 l 771 1057 l 689 1296 l 550 1296 l 385 1057 l 538 1057 l 599 1158 z "},"Ķ":{"ha":671,"x_min":0,"x_max":0,"o":"m 315 415 l 349 0 l 594 0 l 522 592 l 517 625 l 761 1000 l 501 1000 l 326 703 l 311 671 l 324 729 l 371 1000 l 149 1000 l -26 0 l 196 0 l 267 407 l 315 485 z m 122 -386 b 338 -179 244 -386 314 -311 b 261 -50 356 -76 338 -50 b 147 -149 188 -50 160 -76 b 213 -243 133 -228 154 -243 l 221 -243 b 139 -296 208 -282 186 -296 z "},"Ĺ":{"ha":543,"x_min":0,"x_max":0,"o":"m 444 0 l 485 232 l 250 232 l 385 1000 l 149 1000 l -26 0 z m 190 1057 l 349 1057 l 546 1268 l 336 1268 z "},"Ľ":{"ha":543,"x_min":0,"x_max":0,"o":"m 444 0 l 485 232 l 250 232 l 385 1000 l 149 1000 l -26 0 z m 431 893 l 563 893 l 719 1104 l 536 1104 z "},"Ļ":{"ha":543,"x_min":0,"x_max":0,"o":"m 444 0 l 485 232 l 250 232 l 385 1000 l 149 1000 l -26 0 z m 63 -386 b 278 -179 185 -386 254 -311 b 201 -50 296 -76 278 -50 b 88 -149 128 -50 100 -76 b 153 -243 74 -228 94 -243 l 161 -243 b 79 -296 149 -282 126 -296 z "},"Ŀ":{"ha":599,"x_min":0,"x_max":0,"o":"m 500 0 l 540 232 l 250 232 l 385 1000 l 149 1000 l -26 0 z m 458 368 b 592 482 543 368 575 388 b 499 597 608 574 575 597 b 367 482 406 597 385 574 b 458 368 350 397 379 368 z "},"Ł":{"ha":557,"x_min":0,"x_max":0,"o":"m 456 0 l 496 232 l 261 232 l 301 465 l 418 485 l 422 656 l 333 640 l 396 1000 l 160 1000 l 90 600 l 11 588 l 7 417 l 60 425 l -15 0 z "},"Ń":{"ha":683,"x_min":0,"x_max":0,"o":"m 257 447 l 271 560 l 279 489 l 371 0 l 571 0 l 746 1000 l 540 1000 l 461 546 l 449 440 l 440 511 l 353 1000 l 149 1000 l -26 0 l 179 0 z m 368 1051 l 526 1051 l 724 1263 l 514 1263 z "},"Ň":{"ha":683,"x_min":0,"x_max":0,"o":"m 257 447 l 271 560 l 279 489 l 371 0 l 571 0 l 746 1000 l 540 1000 l 461 546 l 449 440 l 440 511 l 353 1000 l 149 1000 l -26 0 l 179 0 z m 522 1051 l 689 1290 l 536 1290 l 474 1189 l 451 1290 l 301 1290 l 383 1051 z "},"Ņ":{"ha":683,"x_min":0,"x_max":0,"o":"m 257 447 l 271 560 l 279 489 l 371 0 l 571 0 l 746 1000 l 540 1000 l 461 546 l 449 440 l 440 511 l 353 1000 l 149 1000 l -26 0 l 179 0 z m 128 -382 b 343 -175 250 -382 319 -307 b 267 -46 361 -72 343 -46 b 153 -144 193 -46 165 -72 b 218 -239 139 -224 160 -239 l 226 -239 b 144 -292 214 -278 192 -292 z "},"Ñ":{"ha":683,"x_min":0,"x_max":0,"o":"m 257 447 l 271 560 l 279 489 l 371 0 l 571 0 l 746 1000 l 540 1000 l 461 546 l 449 440 l 440 511 l 353 1000 l 149 1000 l -26 0 l 179 0 z m 246 1061 l 375 1061 b 408 1115 382 1097 390 1115 b 557 1057 450 1115 485 1057 b 722 1278 649 1057 692 1107 l 592 1278 b 557 1229 586 1243 578 1229 b 413 1283 526 1229 485 1283 b 246 1061 318 1283 276 1228 z "},"Ŋ":{"ha":683,"x_min":0,"x_max":0,"o":"m 297 -275 b 561 -49 490 -275 528 -237 l 746 1000 l 539 1000 l 465 579 l 450 453 l 443 511 l 353 1000 l 149 1000 l -26 0 l 179 0 l 257 447 l 269 549 l 276 489 l 368 15 l 361 -24 b 306 -74 353 -67 346 -74 l 244 -74 l 210 -275 z "},"Ó":{"ha":664,"x_min":0,"x_max":0,"o":"m 288 -15 b 610 297 485 -15 571 78 l 675 669 b 419 1015 718 913 613 1015 b 90 708 242 1015 131 936 l 22 322 b 288 -15 -12 124 57 -15 z m 297 194 b 257 301 257 194 243 224 l 329 706 b 404 814 343 783 360 814 b 444 706 449 814 458 785 l 374 301 b 297 194 360 222 342 194 z m 354 1074 l 513 1074 l 710 1285 l 500 1285 z "},"Ŏ":{"ha":664,"x_min":0,"x_max":0,"o":"m 288 -15 b 610 297 485 -15 571 78 l 675 669 b 419 1015 718 913 613 1015 b 90 708 242 1015 131 936 l 22 322 b 288 -15 -12 124 57 -15 z m 297 194 b 257 301 257 194 243 224 l 329 706 b 404 814 343 783 360 814 b 444 706 449 814 458 785 l 374 301 b 297 194 360 222 342 194 z m 467 1069 b 685 1278 599 1069 658 1131 l 543 1278 b 483 1206 533 1221 519 1206 b 449 1278 446 1206 438 1219 l 307 1278 b 467 1069 281 1132 328 1069 z "},"Ô":{"ha":664,"x_min":0,"x_max":0,"o":"m 288 -15 b 610 297 485 -15 571 78 l 675 669 b 419 1015 718 913 613 1015 b 90 708 242 1015 131 936 l 22 322 b 288 -15 -12 124 57 -15 z m 297 194 b 257 301 257 194 243 224 l 329 706 b 404 814 343 783 360 814 b 444 706 449 814 458 785 l 374 301 b 297 194 360 222 342 194 z m 501 1072 l 650 1072 l 568 1311 l 429 1311 l 264 1072 l 417 1072 l 478 1174 z "},"Ö":{"ha":664,"x_min":0,"x_max":0,"o":"m 288 -15 b 610 297 485 -15 571 78 l 675 669 b 419 1015 718 913 613 1015 b 90 708 242 1015 131 936 l 22 322 b 288 -15 -12 124 57 -15 z m 297 194 b 257 301 257 194 243 224 l 329 706 b 404 814 343 783 360 814 b 444 706 449 814 458 785 l 374 301 b 297 194 360 222 342 194 z m 344 1056 b 453 1150 414 1056 440 1078 b 379 1251 467 1228 447 1251 b 272 1150 314 1251 286 1228 b 344 1056 260 1075 274 1056 z m 557 1056 b 665 1150 625 1056 653 1078 b 592 1251 679 1228 658 1251 b 485 1150 524 1251 499 1228 b 557 1056 472 1075 485 1056 z "},"Ò":{"ha":664,"x_min":0,"x_max":0,"o":"m 288 -15 b 610 297 485 -15 571 78 l 675 669 b 419 1015 718 913 613 1015 b 90 708 242 1015 131 936 l 22 322 b 288 -15 -12 124 57 -15 z m 297 194 b 257 301 257 194 243 224 l 329 706 b 404 814 343 783 360 814 b 444 706 449 814 458 785 l 374 301 b 297 194 360 222 342 194 z m 386 1072 l 532 1072 l 481 1283 l 272 1283 z "},"Ő":{"ha":664,"x_min":0,"x_max":0,"o":"m 288 -15 b 610 297 485 -15 571 78 l 675 669 b 419 1015 718 913 613 1015 b 90 708 242 1015 131 936 l 22 322 b 288 -15 -12 124 57 -15 z m 297 194 b 257 301 257 194 243 224 l 329 706 b 404 814 343 783 360 814 b 444 706 449 814 458 785 l 374 301 b 297 194 360 222 342 194 z m 557 1283 l 393 1283 l 301 1072 l 417 1072 z m 760 1283 l 590 1283 l 481 1072 l 599 1072 z "},"Ō":{"ha":664,"x_min":0,"x_max":0,"o":"m 288 -15 b 610 297 485 -15 571 78 l 675 669 b 419 1015 718 913 613 1015 b 90 708 242 1015 131 936 l 22 322 b 288 -15 -12 124 57 -15 z m 297 194 b 257 301 257 194 243 224 l 329 706 b 404 814 343 783 360 814 b 444 706 449 814 458 785 l 374 301 b 297 194 360 222 342 194 z m 306 1083 l 599 1083 l 626 1239 l 333 1239 z "},"Ø":{"ha":664,"x_min":0,"x_max":0,"o":"m 297 194 b 257 301 257 194 243 224 l 329 706 b 404 814 343 783 360 814 b 444 706 449 814 458 785 l 374 301 b 297 194 360 222 342 194 z m 288 -15 b 610 297 485 -15 571 78 l 675 669 b 621 950 699 804 678 896 l 699 1122 l 506 1122 l 458 1014 b 419 1015 446 1015 433 1015 b 90 708 242 1015 131 936 l 22 322 b 96 38 0 196 19 94 l 13 -146 l 211 -146 l 267 -15 z "},"Ǿ":{"ha":664,"x_min":0,"x_max":0,"o":"m 297 194 b 257 301 257 194 243 224 l 329 706 b 404 814 343 783 360 814 b 444 706 449 814 458 785 l 374 301 b 297 194 360 222 342 194 z m 288 -15 b 610 297 485 -15 571 78 l 675 669 b 621 950 699 804 678 896 l 699 1122 l 506 1122 l 458 1014 b 419 1015 446 1015 433 1015 b 90 708 242 1015 131 936 l 22 322 b 96 38 0 196 19 94 l 13 -146 l 211 -146 l 267 -15 z m 358 1149 l 517 1149 l 714 1360 l 504 1360 z "},"Õ":{"ha":664,"x_min":0,"x_max":0,"o":"m 288 -15 b 610 297 485 -15 571 78 l 675 669 b 419 1015 718 913 613 1015 b 90 708 242 1015 131 936 l 22 322 b 288 -15 -12 124 57 -15 z m 297 194 b 257 301 257 194 243 224 l 329 706 b 404 814 343 783 360 814 b 444 706 449 814 458 785 l 374 301 b 297 194 360 222 342 194 z m 235 1071 l 364 1071 b 397 1125 371 1107 379 1125 b 546 1067 439 1125 474 1067 b 711 1288 638 1067 681 1117 l 581 1288 b 546 1239 575 1253 567 1239 b 401 1293 515 1239 474 1293 b 235 1071 307 1293 265 1238 z "},"Œ":{"ha":882,"x_min":0,"x_max":0,"o":"m 294 194 b 256 306 250 194 242 228 l 326 703 b 404 813 339 779 360 813 b 443 703 449 813 457 782 l 372 306 b 294 194 358 226 339 194 z m 315 0 l 788 0 l 824 210 l 575 210 l 610 406 l 847 406 l 883 607 l 646 607 l 679 799 l 925 799 l 960 1000 l 490 1000 l 483 963 b 368 1015 467 997 432 1015 b 92 714 219 1015 128 921 b 17 289 92 713 17 289 b 193 -14 -19 79 22 -14 b 325 56 254 -14 294 11 z "},"Ŕ":{"ha":624,"x_min":0,"x_max":0,"o":"m 383 810 b 433 746 429 810 442 792 l 411 618 b 340 561 404 578 386 561 l 289 561 l 332 810 z m 286 360 b 340 290 338 360 350 344 l 301 71 b 310 0 296 35 297 8 l 542 0 b 528 71 526 15 522 39 l 565 282 b 511 458 581 372 572 428 b 629 604 582 479 615 522 l 651 732 b 432 1000 683 914 618 1000 l 149 1000 l -26 0 l 190 0 l 254 360 z m 347 1057 l 506 1057 l 703 1268 l 493 1268 z "},"Ř":{"ha":624,"x_min":0,"x_max":0,"o":"m 383 810 b 433 746 429 810 442 792 l 411 618 b 340 561 404 578 386 561 l 289 561 l 332 810 z m 286 360 b 340 290 338 360 350 344 l 301 71 b 310 0 296 35 297 8 l 542 0 b 528 71 526 15 522 39 l 565 282 b 511 458 581 372 572 428 b 629 604 582 479 615 522 l 651 732 b 432 1000 683 914 618 1000 l 149 1000 l -26 0 l 190 0 l 254 360 z m 501 1057 l 668 1296 l 515 1296 l 453 1194 l 431 1296 l 281 1296 l 363 1057 z "},"Ŗ":{"ha":624,"x_min":0,"x_max":0,"o":"m 383 810 b 433 746 429 810 442 792 l 411 618 b 340 561 404 578 386 561 l 289 561 l 332 810 z m 286 360 b 340 290 338 360 350 344 l 301 71 b 310 0 296 35 297 8 l 542 0 b 528 71 526 15 522 39 l 565 282 b 511 458 581 372 572 428 b 629 604 582 479 615 522 l 651 732 b 432 1000 683 914 618 1000 l 149 1000 l -26 0 l 190 0 l 254 360 z m 107 -386 b 322 -179 229 -386 299 -311 b 246 -50 340 -76 322 -50 b 132 -149 172 -50 144 -76 b 197 -243 118 -228 139 -243 l 206 -243 b 124 -296 193 -282 171 -296 z "},"Ś":{"ha":603,"x_min":0,"x_max":0,"o":"m 251 -17 b 556 242 438 -17 521 58 l 567 310 b 424 579 592 460 504 526 b 311 724 336 638 299 658 l 318 760 b 375 831 326 804 340 831 b 415 767 408 831 425 814 l 394 660 l 618 660 l 635 754 b 388 1017 665 924 575 1017 b 92 769 229 1017 122 951 l 83 721 b 219 451 57 563 142 503 b 333 289 286 408 349 372 l 325 246 b 267 185 318 207 306 185 b 229 258 232 185 219 201 l 250 379 l 14 379 l -8 256 b 251 -17 -39 85 22 -17 z m 336 1075 l 494 1075 l 692 1286 l 482 1286 z "},"Š":{"ha":603,"x_min":0,"x_max":0,"o":"m 251 -17 b 556 242 438 -17 521 58 l 567 310 b 424 579 592 460 504 526 b 311 724 336 638 299 658 l 318 760 b 375 831 326 804 340 831 b 415 767 408 831 425 814 l 394 660 l 618 660 l 635 754 b 388 1017 665 924 575 1017 b 92 769 229 1017 122 951 l 83 721 b 219 451 57 563 142 503 b 333 289 286 408 349 372 l 325 246 b 267 185 318 207 306 185 b 229 258 232 185 219 201 l 250 379 l 14 379 l -8 256 b 251 -17 -39 85 22 -17 z m 490 1075 l 657 1314 l 504 1314 l 442 1213 l 419 1314 l 269 1314 l 351 1075 z "},"Ş":{"ha":603,"x_min":0,"x_max":0,"o":"m 179 -336 b 392 -197 303 -336 375 -293 b 283 -61 407 -111 364 -71 l 292 -15 b 556 242 450 -6 524 72 l 567 310 b 424 579 592 460 504 526 b 311 724 336 638 299 658 l 318 760 b 375 831 326 804 340 831 b 415 767 408 831 425 814 l 394 660 l 618 660 l 635 754 b 388 1017 665 924 575 1017 b 92 769 229 1017 122 951 l 83 721 b 219 451 57 563 142 503 b 333 289 286 408 349 372 l 325 246 b 267 185 318 207 306 185 b 229 258 232 185 219 201 l 250 379 l 14 379 l -8 256 b 154 -10 -35 113 6 17 l 129 -153 l 204 -153 b 244 -182 233 -153 247 -162 b 193 -214 240 -201 224 -214 b 149 -181 164 -214 151 -207 l -18 -181 b 179 -336 -10 -294 57 -336 z "},"Ŝ":{"ha":603,"x_min":0,"x_max":0,"o":"m 251 -17 b 556 242 438 -17 521 58 l 567 310 b 424 579 592 460 504 526 b 311 724 336 638 299 658 l 318 760 b 375 831 326 804 340 831 b 415 767 408 831 425 814 l 394 660 l 618 660 l 635 754 b 388 1017 665 924 575 1017 b 92 769 229 1017 122 951 l 83 721 b 219 451 57 563 142 503 b 333 289 286 408 349 372 l 325 246 b 267 185 318 207 306 185 b 229 258 232 185 219 201 l 250 379 l 14 379 l -8 256 b 251 -17 -39 85 22 -17 z m 467 1071 l 615 1071 l 533 1310 l 394 1310 l 229 1071 l 382 1071 l 443 1172 z "},"Ș":{"ha":603,"x_min":0,"x_max":0,"o":"m 251 -17 b 556 242 438 -17 521 58 l 567 310 b 424 579 592 460 504 526 b 311 724 336 638 299 658 l 318 760 b 375 831 326 804 340 831 b 415 767 408 831 425 814 l 394 660 l 618 660 l 635 754 b 388 1017 665 924 575 1017 b 92 769 229 1017 122 951 l 83 721 b 219 451 57 563 142 503 b 333 289 286 408 349 372 l 325 246 b 267 185 318 207 306 185 b 229 258 232 185 219 201 l 250 379 l 14 379 l -8 256 b 251 -17 -39 85 22 -17 z m 76 -410 b 292 -203 199 -410 268 -335 b 215 -74 310 -100 292 -74 b 101 -172 142 -74 114 -100 b 167 -267 88 -251 108 -267 l 175 -267 b 93 -319 163 -306 140 -319 z "},"Ŧ":{"ha":578,"x_min":0,"x_max":0,"o":"m 482 368 l 515 553 l 431 553 l 474 793 l 622 793 l 658 1000 l 131 1000 l 94 793 l 246 793 l 203 553 l 115 553 l 82 368 l 171 368 l 106 0 l 333 0 l 399 368 z "},"Ť":{"ha":578,"x_min":0,"x_max":0,"o":"m 622 793 l 658 1000 l 131 1000 l 94 793 l 246 793 l 106 0 l 333 0 l 474 793 z m 472 1057 l 639 1296 l 486 1296 l 424 1194 l 401 1296 l 251 1296 l 333 1057 z "},"Ţ":{"ha":578,"x_min":0,"x_max":0,"o":"m 622 793 l 658 1000 l 131 1000 l 94 793 l 246 793 l 106 0 l 333 0 l 474 793 z m 68 -400 b 283 -193 190 -400 260 -325 b 207 -64 301 -90 283 -64 b 93 -162 133 -64 106 -90 b 158 -257 79 -242 100 -257 l 167 -257 b 85 -310 154 -296 132 -310 z "},"Ú":{"ha":643,"x_min":0,"x_max":0,"o":"m 275 -15 b 583 281 464 -15 546 64 l 710 1000 l 482 1000 l 358 297 b 289 206 346 225 331 206 b 249 297 247 206 236 226 l 372 1000 l 144 1000 l 26 331 b 275 -15 -14 104 56 -15 z m 353 1057 l 511 1057 l 708 1268 l 499 1268 z "},"Ŭ":{"ha":643,"x_min":0,"x_max":0,"o":"m 275 -15 b 583 281 464 -15 546 64 l 710 1000 l 482 1000 l 358 297 b 289 206 346 225 331 206 b 249 297 247 206 236 226 l 372 1000 l 144 1000 l 26 331 b 275 -15 -14 104 56 -15 z m 444 1054 b 663 1263 576 1054 636 1115 l 521 1263 b 461 1190 511 1206 497 1190 b 426 1263 424 1190 415 1204 l 285 1263 b 444 1054 258 1117 306 1054 z "},"Û":{"ha":643,"x_min":0,"x_max":0,"o":"m 275 -15 b 583 281 464 -15 546 64 l 710 1000 l 482 1000 l 358 297 b 289 206 346 225 331 206 b 249 297 247 206 236 226 l 372 1000 l 144 1000 l 26 331 b 275 -15 -14 104 56 -15 z m 485 1057 l 633 1057 l 551 1296 l 413 1296 l 247 1057 l 400 1057 l 461 1158 z "},"Ü":{"ha":643,"x_min":0,"x_max":0,"o":"m 275 -15 b 583 281 464 -15 546 64 l 710 1000 l 482 1000 l 358 297 b 289 206 346 225 331 206 b 249 297 247 206 236 226 l 372 1000 l 144 1000 l 26 331 b 275 -15 -14 104 56 -15 z m 329 1054 b 438 1149 399 1054 425 1076 b 364 1250 451 1226 432 1250 b 257 1149 299 1250 271 1226 b 329 1054 244 1074 258 1054 z m 542 1054 b 650 1149 610 1054 638 1076 b 576 1250 664 1226 643 1250 b 469 1149 508 1250 483 1226 b 542 1054 457 1074 469 1054 z "},"Ù":{"ha":643,"x_min":0,"x_max":0,"o":"m 275 -15 b 583 281 464 -15 546 64 l 710 1000 l 482 1000 l 358 297 b 289 206 346 225 331 206 b 249 297 247 206 236 226 l 372 1000 l 144 1000 l 26 331 b 275 -15 -14 104 56 -15 z m 369 1057 l 515 1057 l 464 1268 l 256 1268 z "},"Ű":{"ha":643,"x_min":0,"x_max":0,"o":"m 275 -15 b 583 281 464 -15 546 64 l 710 1000 l 482 1000 l 358 297 b 289 206 346 225 331 206 b 249 297 247 206 236 226 l 372 1000 l 144 1000 l 26 331 b 275 -15 -14 104 56 -15 z m 536 1268 l 372 1268 l 281 1057 l 396 1057 z m 739 1268 l 569 1268 l 460 1057 l 578 1057 z "},"Ū":{"ha":643,"x_min":0,"x_max":0,"o":"m 275 -15 b 583 281 464 -15 546 64 l 710 1000 l 482 1000 l 358 297 b 289 206 346 225 331 206 b 249 297 247 206 236 226 l 372 1000 l 144 1000 l 26 331 b 275 -15 -14 104 56 -15 z m 293 1068 l 586 1068 l 614 1224 l 321 1224 z "},"Ų":{"ha":643,"x_min":0,"x_max":0,"o":"m 246 -272 b 479 -92 367 -272 439 -215 l 308 -92 b 267 -139 300 -126 285 -139 b 244 -114 250 -139 242 -132 b 367 -7 247 -96 257 -79 b 583 281 492 18 553 103 l 710 1000 l 482 1000 l 358 297 b 289 206 346 225 331 206 b 249 297 247 206 236 226 l 372 1000 l 144 1000 l 26 331 b 160 0 -6 150 32 38 b 83 -119 110 -42 92 -78 b 246 -272 67 -215 124 -272 z "},"Ů":{"ha":643,"x_min":0,"x_max":0,"o":"m 275 -15 b 583 281 464 -15 546 64 l 710 1000 l 482 1000 l 358 297 b 289 206 346 225 331 206 b 249 297 247 206 236 226 l 372 1000 l 144 1000 l 26 331 b 275 -15 -14 104 56 -15 z m 440 1053 b 629 1194 546 1053 613 1101 b 483 1353 646 1290 588 1353 b 299 1208 393 1353 317 1306 b 440 1053 282 1117 343 1053 z m 458 1172 b 431 1203 433 1172 428 1185 b 469 1235 433 1221 444 1235 b 497 1203 493 1235 500 1221 b 458 1172 494 1185 482 1172 z "},"Ũ":{"ha":643,"x_min":0,"x_max":0,"o":"m 275 -15 b 583 281 464 -15 546 64 l 710 1000 l 482 1000 l 358 297 b 289 206 346 225 331 206 b 249 297 247 206 236 226 l 372 1000 l 144 1000 l 26 331 b 275 -15 -14 104 56 -15 z m 219 1056 l 349 1056 b 382 1110 356 1092 364 1110 b 531 1051 424 1110 458 1051 b 696 1272 622 1051 665 1101 l 565 1272 b 531 1224 560 1238 551 1224 b 386 1278 500 1224 458 1278 b 219 1056 292 1278 250 1222 z "},"Ẃ":{"ha":926,"x_min":0,"x_max":0,"o":"m 454 429 l 488 564 l 472 429 l 471 0 l 682 0 l 1028 1000 l 807 1000 l 661 535 l 621 368 l 633 533 l 639 1000 l 490 1000 l 326 533 l 278 375 l 300 535 l 324 1000 l 110 1000 l 90 0 l 303 0 z m 490 1057 l 649 1057 l 846 1268 l 636 1268 z "},"Ŵ":{"ha":926,"x_min":0,"x_max":0,"o":"m 454 429 l 488 564 l 472 429 l 471 0 l 682 0 l 1028 1000 l 807 1000 l 661 535 l 621 368 l 633 533 l 639 1000 l 490 1000 l 326 533 l 278 375 l 300 535 l 324 1000 l 110 1000 l 90 0 l 303 0 z m 622 1057 l 771 1057 l 689 1296 l 550 1296 l 385 1057 l 538 1057 l 599 1158 z "},"Ẅ":{"ha":926,"x_min":0,"x_max":0,"o":"m 454 429 l 488 564 l 472 429 l 471 0 l 682 0 l 1028 1000 l 807 1000 l 661 535 l 621 368 l 633 533 l 639 1000 l 490 1000 l 326 533 l 278 375 l 300 535 l 324 1000 l 110 1000 l 90 0 l 303 0 z m 467 1054 b 575 1149 536 1054 563 1076 b 501 1250 589 1226 569 1250 b 394 1149 436 1250 408 1226 b 467 1054 382 1074 396 1054 z m 679 1054 b 788 1149 747 1054 775 1076 b 714 1250 801 1226 781 1250 b 607 1149 646 1250 621 1226 b 679 1054 594 1074 607 1054 z "},"Ẁ":{"ha":926,"x_min":0,"x_max":0,"o":"m 454 429 l 488 564 l 472 429 l 471 0 l 682 0 l 1028 1000 l 807 1000 l 661 535 l 621 368 l 633 533 l 639 1000 l 490 1000 l 326 533 l 278 375 l 300 535 l 324 1000 l 110 1000 l 90 0 l 303 0 z m 507 1057 l 653 1057 l 601 1268 l 393 1268 z "},"Ý":{"ha":604,"x_min":0,"x_max":0,"o":"m 349 0 l 411 360 l 717 1000 l 485 999 l 367 718 l 339 613 l 349 717 l 332 1000 l 99 1000 l 175 358 l 113 0 z m 329 1054 l 488 1054 l 685 1265 l 475 1265 z "},"Ŷ":{"ha":604,"x_min":0,"x_max":0,"o":"m 349 0 l 411 360 l 717 1000 l 485 999 l 367 718 l 339 613 l 349 717 l 332 1000 l 99 1000 l 175 358 l 113 0 z m 461 1054 l 610 1054 l 528 1293 l 389 1293 l 224 1054 l 376 1054 l 438 1156 z "},"Ÿ":{"ha":604,"x_min":0,"x_max":0,"o":"m 349 0 l 411 360 l 717 1000 l 485 999 l 367 718 l 339 613 l 349 717 l 332 1000 l 99 1000 l 175 358 l 113 0 z m 306 1051 b 414 1146 375 1051 401 1074 b 340 1247 428 1224 408 1247 b 233 1146 275 1247 247 1224 b 306 1051 221 1071 235 1051 z m 518 1051 b 626 1146 586 1051 614 1074 b 553 1247 640 1224 619 1247 b 446 1146 485 1247 460 1224 b 518 1051 433 1071 446 1051 z "},"Ỳ":{"ha":604,"x_min":0,"x_max":0,"o":"m 349 0 l 411 360 l 717 1000 l 485 999 l 367 718 l 339 613 l 349 717 l 332 1000 l 99 1000 l 175 358 l 113 0 z m 346 1054 l 492 1054 l 440 1265 l 232 1265 z "},"Ĳ":{"ha":844,"x_min":0,"x_max":0,"o":"m 435 0 l 507 0 b 779 269 697 0 736 29 l 908 1003 l 672 1003 l 543 274 b 494 215 535 224 529 215 l 472 215 z m 386 0 l 424 217 l 325 217 l 425 785 l 529 785 l 567 1000 l 135 1000 l 97 785 l 204 785 l 104 217 l -3 217 l -40 0 z "},"Ź":{"ha":586,"x_min":0,"x_max":0,"o":"m 483 0 l 521 219 l 260 219 l 619 807 l 653 1000 l 150 1000 l 113 781 l 364 781 l -3 188 l -35 0 z m 329 1057 l 488 1057 l 685 1268 l 475 1268 z "},"Ž":{"ha":586,"x_min":0,"x_max":0,"o":"m 483 0 l 521 219 l 260 219 l 619 807 l 653 1000 l 150 1000 l 113 781 l 364 781 l -3 188 l -35 0 z m 483 1057 l 650 1296 l 497 1296 l 435 1194 l 413 1296 l 263 1296 l 344 1057 z "},"Ż":{"ha":586,"x_min":0,"x_max":0,"o":"m 483 0 l 521 219 l 260 219 l 619 807 l 653 1000 l 150 1000 l 113 781 l 364 781 l -3 188 l -35 0 z m 413 1054 b 546 1168 497 1054 529 1074 b 453 1283 563 1260 529 1283 b 321 1168 360 1283 339 1260 b 413 1054 304 1083 333 1054 z "},"Þ":{"ha":639,"x_min":0,"x_max":0,"o":"m 364 651 b 421 600 404 651 428 642 l 386 408 b 313 356 379 365 353 356 l 263 356 l 314 651 z m 290 158 b 606 378 488 158 578 219 l 640 576 b 411 843 669 746 607 843 l 347 843 l 375 1000 l 151 1000 l -24 0 l 200 0 l 228 158 z "},"a":{"ha":632,"x_min":0,"x_max":0,"o":"m 264 157 b 226 225 232 157 218 179 l 233 263 b 268 342 242 308 250 325 b 326 372 279 353 299 363 b 358 396 344 379 353 385 l 329 231 b 264 157 321 183 299 157 z m 453 0 l 550 0 l 583 199 l 568 199 b 543 231 543 199 538 201 l 599 547 b 369 824 631 732 563 824 b 71 586 193 824 97 735 l 58 514 l 283 514 l 294 581 b 353 649 304 632 324 649 b 392 581 386 649 399 631 l 389 564 b 267 478 381 517 347 504 b 86 404 181 450 140 440 b -3 240 44 376 13 326 l -8 210 b 143 -15 -35 56 8 -15 b 318 81 224 -15 281 17 b 453 0 324 19 364 0 z "},"b":{"ha":622,"x_min":0,"x_max":0,"o":"m 340 -11 b 561 256 450 -11 524 54 l 610 536 b 474 824 646 725 588 824 b 319 714 403 824 354 788 l 381 1058 l 157 1058 l -29 0 l 163 0 l 204 114 b 340 -11 210 33 250 -11 z m 279 178 b 240 272 242 178 228 207 l 288 542 b 353 631 300 611 319 631 b 388 533 389 631 400 601 l 340 264 b 279 178 328 201 308 178 z "},"c":{"ha":615,"x_min":0,"x_max":0,"o":"m 257 -15 b 553 226 424 -15 526 74 l 579 378 l 351 378 l 332 264 b 272 182 322 204 310 182 b 236 268 235 182 225 203 l 283 539 b 349 632 296 613 310 632 b 381 538 386 632 393 611 l 365 451 l 593 451 l 604 517 b 360 824 635 708 563 824 b 68 582 201 824 94 731 l 17 286 b 257 -15 -14 106 49 -15 z "},"d":{"ha":622,"x_min":0,"x_max":0,"o":"m 274 178 b 236 268 240 178 225 204 l 283 540 b 350 631 294 607 315 631 b 385 535 386 631 399 603 l 336 261 b 274 178 325 199 304 178 z m 321 0 l 513 0 l 699 1058 l 475 1058 l 415 721 b 279 822 404 786 364 822 b 64 553 165 821 94 726 l 18 292 b 165 -11 -22 65 39 -11 b 318 88 238 -11 288 24 z "},"e":{"ha":618,"x_min":0,"x_max":0,"o":"m 279 538 b 350 638 292 607 307 638 b 393 542 392 638 407 613 l 383 483 l 269 483 z m 550 222 l 564 292 l 342 292 l 336 263 b 272 175 325 204 313 175 b 231 265 232 175 218 194 l 246 349 l 575 349 l 607 528 b 360 825 640 710 561 825 b 67 575 203 825 93 729 b 17 285 67 574 17 286 b 260 -15 -14 106 49 -15 b 550 222 429 -15 515 49 z "},"f":{"ha":432,"x_min":0,"x_max":0,"o":"m 456 614 l 492 813 l 390 813 l 397 851 b 456 911 404 893 418 911 l 508 911 l 543 1106 l 454 1106 b 181 875 288 1106 208 1038 l 169 813 l 86 813 l 50 614 l 135 614 l 26 0 l 247 0 l 356 614 z "},"g":{"ha":624,"x_min":0,"x_max":0,"o":"m 281 219 b 243 310 247 219 232 246 l 283 540 b 350 631 294 607 315 631 b 385 535 386 631 399 603 l 343 303 b 281 219 332 240 311 219 z m 213 -265 b 508 -21 403 -265 482 -178 l 656 813 l 468 813 l 426 711 b 281 824 418 785 372 824 b 64 553 167 822 94 726 l 25 333 b 172 31 -15 107 46 31 b 311 131 242 31 283 68 l 289 0 b 231 -82 279 -57 269 -82 b 197 -18 193 -82 189 -62 l 199 -10 l -18 -10 l -19 -18 b 213 -265 -46 -164 13 -265 z "},"h":{"ha":626,"x_min":0,"x_max":0,"o":"m 292 542 b 353 625 301 596 317 625 b 386 547 390 625 394 597 l 290 0 l 518 0 l 621 588 b 479 822 649 747 603 822 b 322 710 401 822 353 781 l 383 1058 l 157 1058 l -29 0 l 197 0 z "},"i":{"ha":314,"x_min":0,"x_max":0,"o":"m 239 835 b 379 947 328 835 364 860 b 269 1060 394 1032 360 1060 b 129 947 178 1060 144 1036 b 239 835 114 865 143 835 z m -29 0 l 204 0 l 346 808 b 228 783 324 793 288 783 b 113 807 168 783 131 792 z "},"j":{"ha":324,"x_min":0,"x_max":0,"o":"m 246 835 b 386 947 335 835 371 860 b 276 1060 401 1032 367 1060 b 136 947 185 1060 151 1036 b 246 835 121 865 150 835 z m -181 -289 l -69 -289 b 199 -65 96 -289 169 -233 l 353 808 b 235 783 331 793 294 783 b 119 807 175 783 138 792 l -26 -22 b -82 -75 -35 -64 -46 -75 l -143 -75 z "},"k":{"ha":622,"x_min":0,"x_max":0,"o":"m 290 331 l 335 0 l 564 0 l 479 494 l 704 813 l 456 813 l 321 608 l 286 550 l 294 588 l 378 1058 l 157 1058 l -29 0 l 192 0 l 246 308 l 292 388 z "},"l":{"ha":307,"x_min":0,"x_max":0,"o":"m -29 0 l 197 0 l 383 1058 l 157 1058 z "},"m":{"ha":932,"x_min":0,"x_max":0,"o":"m 289 543 b 349 626 299 597 313 626 b 379 549 386 626 388 599 l 283 0 l 508 0 l 604 543 b 664 626 614 597 628 626 b 694 549 701 626 703 599 l 599 0 l 824 0 b 926 589 824 0 914 517 b 776 824 954 749 896 824 b 615 710 706 824 651 782 b 463 824 604 786 553 824 b 304 711 396 824 342 785 l 297 813 l 114 813 l -29 0 l 194 0 z "},"n":{"ha":629,"x_min":0,"x_max":0,"o":"m 294 542 b 356 625 304 596 319 625 b 389 547 393 625 397 597 l 293 0 l 521 0 l 624 588 b 469 822 651 747 593 822 b 307 717 394 822 342 783 l 301 813 l 114 813 l -29 0 l 200 0 z "},"o":{"ha":618,"x_min":0,"x_max":0,"o":"m 257 -15 b 551 226 421 -15 525 74 l 603 517 b 358 824 635 703 558 824 b 67 574 201 824 93 726 l 17 286 b 257 -15 -14 111 53 -15 z m 274 182 b 235 261 243 182 225 201 l 286 557 b 347 632 296 613 317 632 b 386 549 382 632 397 611 l 336 261 b 274 182 326 204 306 182 z "},"p":{"ha":622,"x_min":0,"x_max":0,"o":"m 279 178 b 240 272 242 178 228 207 l 288 542 b 353 631 300 611 319 631 b 388 533 389 631 400 601 l 340 264 b 279 178 328 201 308 178 z m 340 -11 b 561 256 450 -11 524 54 l 610 536 b 469 824 646 725 588 824 b 308 708 386 824 338 781 l 301 813 l 114 813 l -72 -251 l 149 -251 l 210 100 b 340 -11 218 26 260 -11 z "},"q":{"ha":625,"x_min":0,"x_max":0,"o":"m 469 -251 l 657 813 l 468 813 l 426 711 b 281 824 418 785 372 824 b 64 553 167 822 94 726 l 18 292 b 165 -11 -22 65 39 -11 b 303 88 235 -11 276 25 l 244 -251 z m 274 178 b 236 268 240 178 225 204 l 283 540 b 350 631 294 607 315 631 b 385 535 386 631 399 603 l 336 261 b 274 178 325 199 304 178 z "},"r":{"ha":424,"x_min":0,"x_max":0,"o":"m 192 0 l 272 464 b 386 565 288 546 306 565 l 438 565 l 483 824 l 456 824 b 281 678 344 824 306 783 l 272 813 l 114 813 l -29 0 z "},"s":{"ha":583,"x_min":0,"x_max":0,"o":"m 244 -15 b 540 225 425 -15 514 68 l 542 235 b 392 490 569 392 475 449 b 279 604 328 522 269 549 b 335 651 283 632 297 651 b 381 592 372 651 388 631 l 372 542 l 583 542 l 589 576 b 342 824 617 751 532 824 b 64 619 161 824 86 731 l 63 614 b 204 356 31 456 122 399 b 317 235 269 322 328 297 b 256 174 311 197 293 174 b 208 228 217 174 201 189 l 221 303 l -1 303 l -15 225 b 244 -15 -43 67 28 -15 z "},"t":{"ha":425,"x_min":0,"x_max":0,"o":"m 372 217 l 346 217 b 289 303 296 217 275 222 l 339 592 l 440 592 l 479 813 l 378 813 l 404 960 l 246 960 b 215 885 238 931 229 910 b 156 819 199 854 182 835 b 83 800 131 806 107 803 l 47 592 l 126 592 l 64 238 b 253 0 31 51 79 0 l 335 0 z "},"u":{"ha":622,"x_min":0,"x_max":0,"o":"m 328 0 l 513 0 l 656 813 l 429 813 l 335 278 b 275 186 324 214 303 186 b 244 269 235 186 236 219 l 340 813 l 113 813 l 10 229 b 157 -12 -18 69 33 -12 b 319 97 232 -12 286 28 z "},"v":{"ha":590,"x_min":0,"x_max":0,"o":"m 336 0 l 668 813 l 442 813 l 314 449 l 274 286 l 292 449 l 293 813 l 69 813 l 117 0 z "},"w":{"ha":847,"x_min":0,"x_max":0,"o":"m 396 336 l 418 421 l 408 336 l 421 0 l 632 0 l 929 813 l 714 813 l 581 411 l 560 304 l 569 413 l 564 813 l 422 813 l 271 411 l 236 306 l 260 414 l 281 813 l 65 813 l 57 0 l 268 0 z "},"x":{"ha":617,"x_min":0,"x_max":0,"o":"m 268 190 l 285 244 l 283 190 l 321 0 l 551 0 l 444 429 l 678 813 l 443 813 l 351 626 l 343 594 l 344 628 l 321 813 l 88 813 l 186 428 l -72 0 l 165 0 z "},"y":{"ha":607,"x_min":0,"x_max":0,"o":"m 21 -261 b 319 -47 196 -261 246 -224 l 678 813 l 457 813 l 335 492 l 290 315 l 311 492 l 300 813 l 76 813 l 147 58 l 129 10 b 28 -50 111 -37 89 -50 l -46 -50 l -82 -261 z "},"z":{"ha":539,"x_min":0,"x_max":0,"o":"m 439 0 l 475 199 l 258 199 l 547 628 l 581 813 l 111 813 l 76 618 l 300 618 l -10 175 l -40 0 z "},"á":{"ha":632,"x_min":0,"x_max":0,"o":"m 264 157 b 226 225 232 157 218 179 l 233 263 b 268 342 242 308 250 325 b 326 372 279 353 299 363 b 358 396 344 379 353 385 l 329 231 b 264 157 321 183 299 157 z m 453 0 l 550 0 l 583 199 l 568 199 b 543 231 543 199 538 201 l 599 547 b 369 824 631 732 563 824 b 71 586 193 824 97 735 l 58 514 l 283 514 l 294 581 b 353 649 304 632 324 649 b 392 581 386 649 399 631 l 389 564 b 267 478 381 517 347 504 b 86 404 181 450 140 440 b -3 240 44 376 13 326 l -8 210 b 143 -15 -35 56 8 -15 b 318 81 224 -15 281 17 b 453 0 324 19 364 0 z m 303 879 l 461 879 l 658 1090 l 449 1090 z "},"ă":{"ha":632,"x_min":0,"x_max":0,"o":"m 264 157 b 226 225 232 157 218 179 l 233 263 b 268 342 242 308 250 325 b 326 372 279 353 299 363 b 358 396 344 379 353 385 l 329 231 b 264 157 321 183 299 157 z m 453 0 l 550 0 l 583 199 l 568 199 b 543 231 543 199 538 201 l 599 547 b 369 824 631 732 563 824 b 71 586 193 824 97 735 l 58 514 l 283 514 l 294 581 b 353 649 304 632 324 649 b 392 581 386 649 399 631 l 389 564 b 267 478 381 517 347 504 b 86 404 181 450 140 440 b -3 240 44 376 13 326 l -8 210 b 143 -15 -35 56 8 -15 b 318 81 224 -15 281 17 b 453 0 324 19 364 0 z m 404 876 b 622 1085 536 876 596 938 l 481 1085 b 421 1013 471 1028 457 1013 b 386 1085 383 1013 375 1026 l 244 1085 b 404 876 218 939 265 876 z "},"â":{"ha":632,"x_min":0,"x_max":0,"o":"m 264 157 b 226 225 232 157 218 179 l 233 263 b 268 342 242 308 250 325 b 326 372 279 353 299 363 b 358 396 344 379 353 385 l 329 231 b 264 157 321 183 299 157 z m 453 0 l 550 0 l 583 199 l 568 199 b 543 231 543 199 538 201 l 599 547 b 369 824 631 732 563 824 b 71 586 193 824 97 735 l 58 514 l 283 514 l 294 581 b 353 649 304 632 324 649 b 392 581 386 649 399 631 l 389 564 b 267 478 381 517 347 504 b 86 404 181 450 140 440 b -3 240 44 376 13 326 l -8 210 b 143 -15 -35 56 8 -15 b 318 81 224 -15 281 17 b 453 0 324 19 364 0 z m 444 879 l 593 879 l 511 1118 l 372 1118 l 207 879 l 360 879 l 421 981 z "},"ä":{"ha":632,"x_min":0,"x_max":0,"o":"m 264 157 b 226 225 232 157 218 179 l 233 263 b 268 342 242 308 250 325 b 326 372 279 353 299 363 b 358 396 344 379 353 385 l 329 231 b 264 157 321 183 299 157 z m 453 0 l 550 0 l 583 199 l 568 199 b 543 231 543 199 538 201 l 599 547 b 369 824 631 732 563 824 b 71 586 193 824 97 735 l 58 514 l 283 514 l 294 581 b 353 649 304 632 324 649 b 392 581 386 649 399 631 l 389 564 b 267 478 381 517 347 504 b 86 404 181 450 140 440 b -3 240 44 376 13 326 l -8 210 b 143 -15 -35 56 8 -15 b 318 81 224 -15 281 17 b 453 0 324 19 364 0 z m 289 876 b 397 971 358 876 385 899 b 324 1072 411 1049 392 1072 b 217 971 258 1072 231 1049 b 289 876 204 896 218 876 z m 501 876 b 610 971 569 876 597 899 b 536 1072 624 1049 603 1072 b 429 971 468 1072 443 1049 b 501 876 417 896 429 876 z "},"à":{"ha":632,"x_min":0,"x_max":0,"o":"m 264 157 b 226 225 232 157 218 179 l 233 263 b 268 342 242 308 250 325 b 326 372 279 353 299 363 b 358 396 344 379 353 385 l 329 231 b 264 157 321 183 299 157 z m 453 0 l 550 0 l 583 199 l 568 199 b 543 231 543 199 538 201 l 599 547 b 369 824 631 732 563 824 b 71 586 193 824 97 735 l 58 514 l 283 514 l 294 581 b 353 649 304 632 324 649 b 392 581 386 649 399 631 l 389 564 b 267 478 381 517 347 504 b 86 404 181 450 140 440 b -3 240 44 376 13 326 l -8 210 b 143 -15 -35 56 8 -15 b 318 81 224 -15 281 17 b 453 0 324 19 364 0 z m 329 879 l 475 879 l 424 1090 l 215 1090 z "},"ā":{"ha":632,"x_min":0,"x_max":0,"o":"m 264 157 b 226 225 232 157 218 179 l 233 263 b 268 342 242 308 250 325 b 326 372 279 353 299 363 b 358 396 344 379 353 385 l 329 231 b 264 157 321 183 299 157 z m 453 0 l 550 0 l 583 199 l 568 199 b 543 231 543 199 538 201 l 599 547 b 369 824 631 732 563 824 b 71 586 193 824 97 735 l 58 514 l 283 514 l 294 581 b 353 649 304 632 324 649 b 392 581 386 649 399 631 l 389 564 b 267 478 381 517 347 504 b 86 404 181 450 140 440 b -3 240 44 376 13 326 l -8 210 b 143 -15 -35 56 8 -15 b 318 81 224 -15 281 17 b 453 0 324 19 364 0 z m 253 890 l 546 890 l 574 1046 l 281 1046 z "},"ą":{"ha":632,"x_min":0,"x_max":0,"o":"m 264 157 b 226 225 232 157 218 179 l 233 263 b 268 342 242 308 250 325 b 326 372 279 353 299 363 b 358 396 344 379 353 385 l 329 231 b 264 157 321 183 299 157 z m 625 -108 l 454 -108 b 413 -156 446 -143 431 -156 b 390 -131 396 -156 388 -149 b 550 0 393 -111 406 -92 l 583 199 l 568 199 b 543 231 543 199 538 201 l 599 547 b 369 824 631 732 563 824 b 71 586 193 824 97 735 l 58 514 l 283 514 l 294 581 b 353 649 304 632 324 649 b 392 581 386 649 399 631 l 389 564 b 267 478 381 517 347 504 b 86 404 181 450 140 440 b -3 240 44 376 13 326 l -8 210 b 143 -15 -35 56 8 -15 b 318 81 224 -15 281 17 b 353 18 321 50 332 31 b 229 -136 265 -40 239 -83 b 392 -289 213 -232 269 -289 b 625 -108 513 -289 585 -232 z "},"å":{"ha":632,"x_min":0,"x_max":0,"o":"m 264 157 b 226 225 232 157 218 179 l 233 263 b 268 342 242 308 250 325 b 326 372 279 353 299 363 b 358 396 344 379 353 385 l 329 231 b 264 157 321 183 299 157 z m 453 0 l 550 0 l 583 199 l 568 199 b 543 231 543 199 538 201 l 599 547 b 369 824 631 732 563 824 b 71 586 193 824 97 735 l 58 514 l 283 514 l 294 581 b 353 649 304 632 324 649 b 392 581 386 649 399 631 l 389 564 b 267 478 381 517 347 504 b 86 404 181 450 140 440 b -3 240 44 376 13 326 l -8 210 b 143 -15 -35 56 8 -15 b 318 81 224 -15 281 17 b 453 0 324 19 364 0 z m 400 875 b 589 1017 506 875 572 924 b 443 1175 606 1113 547 1175 b 258 1031 353 1175 276 1128 b 400 875 242 939 303 875 z m 418 994 b 390 1025 393 994 388 1007 b 429 1057 393 1043 404 1057 b 457 1025 453 1057 460 1043 b 418 994 454 1007 442 994 z "},"ǻ":{"ha":632,"x_min":0,"x_max":0,"o":"m 264 157 b 226 225 232 157 218 179 l 233 263 b 268 342 242 308 250 325 b 326 372 279 353 299 363 b 358 396 344 379 353 385 l 329 231 b 264 157 321 183 299 157 z m 453 0 l 550 0 l 583 199 l 568 199 b 543 231 543 199 538 201 l 599 547 b 369 824 631 732 563 824 b 71 586 193 824 97 735 l 58 514 l 283 514 l 294 581 b 353 649 304 632 324 649 b 392 581 386 649 399 631 l 389 564 b 267 478 381 517 347 504 b 86 404 181 450 140 440 b -3 240 44 376 13 326 l -8 210 b 143 -15 -35 56 8 -15 b 318 81 224 -15 281 17 b 453 0 324 19 364 0 z m 404 863 b 593 1004 510 863 576 911 b 447 1163 610 1100 551 1163 b 263 1018 357 1163 281 1115 b 404 863 246 926 307 863 z m 422 982 b 394 1013 397 982 392 994 b 433 1044 397 1031 408 1044 b 461 1013 457 1044 464 1031 b 422 982 458 994 446 982 z m 385 1199 l 543 1199 l 740 1410 l 531 1410 z "},"ã":{"ha":632,"x_min":0,"x_max":0,"o":"m 264 157 b 226 225 232 157 218 179 l 233 263 b 268 342 242 308 250 325 b 326 372 279 353 299 363 b 358 396 344 379 353 385 l 329 231 b 264 157 321 183 299 157 z m 453 0 l 550 0 l 583 199 l 568 199 b 543 231 543 199 538 201 l 599 547 b 369 824 631 732 563 824 b 71 586 193 824 97 735 l 58 514 l 283 514 l 294 581 b 353 649 304 632 324 649 b 392 581 386 649 399 631 l 389 564 b 267 478 381 517 347 504 b 86 404 181 450 140 440 b -3 240 44 376 13 326 l -8 210 b 143 -15 -35 56 8 -15 b 318 81 224 -15 281 17 b 453 0 324 19 364 0 z m 179 878 l 308 878 b 342 932 315 914 324 932 b 490 874 383 932 418 874 b 656 1094 582 874 625 924 l 525 1094 b 490 1046 519 1060 511 1046 b 346 1100 460 1046 418 1100 b 179 878 251 1100 210 1044 z "},"æ":{"ha":931,"x_min":0,"x_max":0,"o":"m 597 538 b 668 638 610 607 625 638 b 711 542 710 638 725 613 l 701 483 l 588 483 z m 264 157 b 226 225 232 157 218 179 l 233 263 b 268 342 242 308 250 325 b 326 372 279 353 299 363 b 358 396 344 379 353 385 l 329 231 b 264 157 321 183 299 157 z m 868 222 l 882 292 l 660 292 l 654 263 b 590 175 643 204 631 175 b 549 265 550 175 536 194 l 564 349 l 893 349 l 925 528 b 693 825 958 710 879 825 b 533 775 628 825 575 807 b 369 824 500 807 447 824 b 71 586 193 824 97 735 l 58 514 l 283 514 l 294 581 b 353 649 304 632 324 649 b 392 581 386 649 399 631 l 389 564 b 267 478 381 517 347 504 b 86 404 181 450 140 440 b -3 240 44 376 13 326 l -8 210 b 143 -15 -35 56 8 -15 b 358 103 243 -15 318 21 b 578 -15 381 26 444 -15 b 868 222 747 -15 833 49 z "},"ǽ":{"ha":931,"x_min":0,"x_max":0,"o":"m 597 538 b 668 638 610 607 625 638 b 711 542 710 638 725 613 l 701 483 l 588 483 z m 264 157 b 226 225 232 157 218 179 l 233 263 b 268 342 242 308 250 325 b 326 372 279 353 299 363 b 358 396 344 379 353 385 l 329 231 b 264 157 321 183 299 157 z m 868 222 l 882 292 l 660 292 l 654 263 b 590 175 643 204 631 175 b 549 265 550 175 536 194 l 564 349 l 893 349 l 925 528 b 693 825 958 710 879 825 b 533 775 628 825 575 807 b 369 824 500 807 447 824 b 71 586 193 824 97 735 l 58 514 l 283 514 l 294 581 b 353 649 304 632 324 649 b 392 581 386 649 399 631 l 389 564 b 267 478 381 517 347 504 b 86 404 181 450 140 440 b -3 240 44 376 13 326 l -8 210 b 143 -15 -35 56 8 -15 b 358 103 243 -15 318 21 b 578 -15 381 26 444 -15 b 868 222 747 -15 833 49 z m 453 863 l 611 863 l 808 1074 l 599 1074 z "},"ć":{"ha":615,"x_min":0,"x_max":0,"o":"m 257 -15 b 553 226 424 -15 526 74 l 579 378 l 351 378 l 332 264 b 272 182 322 204 310 182 b 236 268 235 182 225 203 l 283 539 b 349 632 296 613 310 632 b 381 538 386 632 393 611 l 365 451 l 593 451 l 604 517 b 360 824 635 708 563 824 b 68 582 201 824 94 731 l 17 286 b 257 -15 -14 106 49 -15 z m 313 881 l 471 881 l 668 1092 l 458 1092 z "},"č":{"ha":615,"x_min":0,"x_max":0,"o":"m 257 -15 b 553 226 424 -15 526 74 l 579 378 l 351 378 l 332 264 b 272 182 322 204 310 182 b 236 268 235 182 225 203 l 283 539 b 349 632 296 613 310 632 b 381 538 386 632 393 611 l 365 451 l 593 451 l 604 517 b 360 824 635 708 563 824 b 68 582 201 824 94 731 l 17 286 b 257 -15 -14 106 49 -15 z m 467 881 l 633 1119 l 481 1119 l 418 1018 l 396 1119 l 246 1119 l 328 881 z "},"ç":{"ha":615,"x_min":0,"x_max":0,"o":"m 190 -335 b 403 -196 314 -335 386 -292 b 294 -60 418 -110 375 -69 l 303 -12 b 553 226 442 1 529 88 l 579 378 l 351 378 l 332 264 b 272 182 322 204 310 182 b 236 268 235 182 225 203 l 283 539 b 349 632 296 613 310 632 b 381 538 386 632 393 611 l 365 451 l 593 451 l 604 517 b 360 824 635 708 563 824 b 68 582 201 824 94 731 l 17 286 b 167 -6 -8 135 31 26 l 140 -151 l 215 -151 b 256 -181 244 -151 258 -161 b 204 -212 251 -200 235 -212 b 160 -179 175 -212 163 -206 l -7 -179 b 190 -335 1 -293 68 -335 z "},"ĉ":{"ha":615,"x_min":0,"x_max":0,"o":"m 257 -15 b 553 226 424 -15 526 74 l 579 378 l 351 378 l 332 264 b 272 182 322 204 310 182 b 236 268 235 182 225 203 l 283 539 b 349 632 296 613 310 632 b 381 538 386 632 393 611 l 365 451 l 593 451 l 604 517 b 360 824 635 708 563 824 b 68 582 201 824 94 731 l 17 286 b 257 -15 -14 106 49 -15 z m 444 881 l 593 881 l 511 1119 l 372 1119 l 207 881 l 360 881 l 421 982 z "},"ċ":{"ha":615,"x_min":0,"x_max":0,"o":"m 257 -15 b 553 226 424 -15 526 74 l 579 378 l 351 378 l 332 264 b 272 182 322 204 310 182 b 236 268 235 182 225 203 l 283 539 b 349 632 296 613 310 632 b 381 538 386 632 393 611 l 365 451 l 593 451 l 604 517 b 360 824 635 708 563 824 b 68 582 201 824 94 731 l 17 286 b 257 -15 -14 106 49 -15 z m 396 878 b 529 992 481 878 513 897 b 436 1107 546 1083 513 1107 b 304 992 343 1107 322 1083 b 396 878 288 907 317 878 z "},"ď":{"ha":622,"x_min":0,"x_max":0,"o":"m 274 178 b 236 268 240 178 225 204 l 283 540 b 350 631 294 607 315 631 b 385 535 386 631 399 603 l 336 261 b 274 178 325 199 304 178 z m 321 0 l 513 0 l 699 1058 l 475 1058 l 415 721 b 279 822 404 786 364 822 b 64 553 165 821 94 726 l 18 292 b 165 -11 -22 65 39 -11 b 318 88 238 -11 288 24 z m 718 922 l 850 922 l 1007 1133 l 824 1133 z "},"đ":{"ha":622,"x_min":0,"x_max":0,"o":"m 274 178 b 236 268 240 178 225 204 l 283 540 b 350 631 294 607 315 631 b 385 535 386 631 399 603 l 336 261 b 274 178 325 199 304 178 z m 321 0 l 513 0 l 663 854 l 689 854 l 711 983 l 686 983 l 699 1058 l 475 1058 l 461 983 l 389 983 l 367 854 l 439 854 l 415 721 b 279 822 404 786 364 822 b 64 553 165 821 94 726 l 18 292 b 165 -11 -22 65 39 -11 b 318 88 238 -11 288 24 z "},"ð":{"ha":624,"x_min":0,"x_max":0,"o":"m 261 -15 b 563 226 425 -15 535 74 l 621 553 b 547 965 663 719 626 860 l 719 1065 l 542 1065 l 486 1033 b 447 1065 474 1044 461 1056 l 154 1065 b 317 935 221 1019 274 976 l 136 831 l 315 831 l 376 867 b 443 685 419 808 440 750 b 300 793 429 753 383 793 b 56 528 153 793 86 701 l 13 286 b 261 -15 -18 111 61 -15 z m 278 182 b 231 261 244 182 221 201 l 276 524 b 346 603 286 581 311 603 b 393 524 381 603 403 583 l 347 261 b 278 182 338 204 313 182 z "},"é":{"ha":618,"x_min":0,"x_max":0,"o":"m 279 538 b 350 638 292 607 307 638 b 393 542 392 638 407 613 l 383 483 l 269 483 z m 550 222 l 564 292 l 342 292 l 336 263 b 272 175 325 204 313 175 b 231 265 232 175 218 194 l 246 349 l 575 349 l 607 528 b 360 825 640 710 561 825 b 67 575 203 825 93 729 b 17 285 67 574 17 286 b 260 -15 -14 106 49 -15 b 550 222 429 -15 515 49 z m 310 879 l 468 879 l 665 1090 l 456 1090 z "},"ĕ":{"ha":618,"x_min":0,"x_max":0,"o":"m 279 538 b 350 638 292 607 307 638 b 393 542 392 638 407 613 l 383 483 l 269 483 z m 550 222 l 564 292 l 342 292 l 336 263 b 272 175 325 204 313 175 b 231 265 232 175 218 194 l 246 349 l 575 349 l 607 528 b 360 825 640 710 561 825 b 67 575 203 825 93 729 b 17 285 67 574 17 286 b 260 -15 -14 106 49 -15 b 550 222 429 -15 515 49 z m 401 876 b 619 1085 533 876 593 938 l 478 1085 b 418 1013 468 1028 454 1013 b 383 1085 381 1013 372 1026 l 242 1085 b 401 876 215 939 263 876 z "},"ě":{"ha":618,"x_min":0,"x_max":0,"o":"m 279 538 b 350 638 292 607 307 638 b 393 542 392 638 407 613 l 383 483 l 269 483 z m 550 222 l 564 292 l 342 292 l 336 263 b 272 175 325 204 313 175 b 231 265 232 175 218 194 l 246 349 l 575 349 l 607 528 b 360 825 640 710 561 825 b 67 575 203 825 93 729 b 17 285 67 574 17 286 b 260 -15 -14 106 49 -15 b 550 222 429 -15 515 49 z m 464 879 l 631 1118 l 478 1118 l 415 1017 l 393 1118 l 243 1118 l 325 879 z "},"ê":{"ha":618,"x_min":0,"x_max":0,"o":"m 279 538 b 350 638 292 607 307 638 b 393 542 392 638 407 613 l 383 483 l 269 483 z m 550 222 l 564 292 l 342 292 l 336 263 b 272 175 325 204 313 175 b 231 265 232 175 218 194 l 246 349 l 575 349 l 607 528 b 360 825 640 710 561 825 b 67 575 203 825 93 729 b 17 285 67 574 17 286 b 260 -15 -14 106 49 -15 b 550 222 429 -15 515 49 z m 442 879 l 590 879 l 508 1118 l 369 1118 l 204 879 l 357 879 l 418 981 z "},"ë":{"ha":618,"x_min":0,"x_max":0,"o":"m 279 538 b 350 638 292 607 307 638 b 393 542 392 638 407 613 l 383 483 l 269 483 z m 550 222 l 564 292 l 342 292 l 336 263 b 272 175 325 204 313 175 b 231 265 232 175 218 194 l 246 349 l 575 349 l 607 528 b 360 825 640 710 561 825 b 67 575 203 825 93 729 b 17 285 67 574 17 286 b 260 -15 -14 106 49 -15 b 550 222 429 -15 515 49 z m 286 876 b 394 971 356 876 382 899 b 321 1072 408 1049 389 1072 b 214 971 256 1072 228 1049 b 286 876 201 896 215 876 z m 499 876 b 607 971 567 876 594 899 b 533 1072 621 1049 600 1072 b 426 971 465 1072 440 1049 b 499 876 414 896 426 876 z "},"ė":{"ha":618,"x_min":0,"x_max":0,"o":"m 279 538 b 350 638 292 607 307 638 b 393 542 392 638 407 613 l 383 483 l 269 483 z m 550 222 l 564 292 l 342 292 l 336 263 b 272 175 325 204 313 175 b 231 265 232 175 218 194 l 246 349 l 575 349 l 607 528 b 360 825 640 710 561 825 b 67 575 203 825 93 729 b 17 285 67 574 17 286 b 260 -15 -14 106 49 -15 b 550 222 429 -15 515 49 z m 393 876 b 526 990 478 876 510 896 b 433 1106 543 1082 510 1106 b 301 990 340 1106 319 1082 b 393 876 285 906 314 876 z "},"è":{"ha":618,"x_min":0,"x_max":0,"o":"m 279 538 b 350 638 292 607 307 638 b 393 542 392 638 407 613 l 383 483 l 269 483 z m 550 222 l 564 292 l 342 292 l 336 263 b 272 175 325 204 313 175 b 231 265 232 175 218 194 l 246 349 l 575 349 l 607 528 b 360 825 640 710 561 825 b 67 575 203 825 93 729 b 17 285 67 574 17 286 b 260 -15 -14 106 49 -15 b 550 222 429 -15 515 49 z m 326 879 l 472 879 l 421 1090 l 213 1090 z "},"ē":{"ha":618,"x_min":0,"x_max":0,"o":"m 279 538 b 350 638 292 607 307 638 b 393 542 392 638 407 613 l 383 483 l 269 483 z m 550 222 l 564 292 l 342 292 l 336 263 b 272 175 325 204 313 175 b 231 265 232 175 218 194 l 246 349 l 575 349 l 607 528 b 360 825 640 710 561 825 b 67 575 203 825 93 729 b 17 285 67 574 17 286 b 260 -15 -14 106 49 -15 b 550 222 429 -15 515 49 z m 250 890 l 543 890 l 571 1046 l 278 1046 z "},"ę":{"ha":618,"x_min":0,"x_max":0,"o":"m 247 -271 b 481 -90 368 -271 440 -214 l 310 -90 b 268 -137 301 -125 286 -137 b 246 -112 251 -137 243 -131 b 375 -1 249 -94 260 -76 b 550 222 471 25 524 93 l 564 292 l 342 292 l 336 263 b 272 175 325 204 313 175 b 231 265 232 175 218 194 l 246 349 l 575 349 l 607 528 b 360 825 640 710 561 825 b 67 575 203 825 93 729 b 17 285 67 574 17 286 b 157 -3 -8 139 28 32 b 85 -118 110 -43 93 -78 b 247 -271 68 -214 125 -271 z m 279 538 b 350 638 292 607 307 638 b 393 542 392 638 407 613 l 383 483 l 269 483 z "},"ğ":{"ha":624,"x_min":0,"x_max":0,"o":"m 281 219 b 243 310 247 219 232 246 l 283 540 b 350 631 294 607 315 631 b 385 535 386 631 399 603 l 343 303 b 281 219 332 240 311 219 z m 213 -265 b 508 -21 403 -265 482 -178 l 656 813 l 468 813 l 426 711 b 281 824 418 785 372 824 b 64 553 167 822 94 726 l 25 333 b 172 31 -15 107 46 31 b 311 131 242 31 283 68 l 289 0 b 231 -82 279 -57 269 -82 b 197 -18 193 -82 189 -62 l 199 -10 l -18 -10 l -19 -18 b 213 -265 -46 -164 13 -265 z m 411 863 b 629 1071 543 863 603 924 l 488 1071 b 428 999 478 1014 464 999 b 393 1071 390 999 382 1013 l 251 1071 b 411 863 225 925 272 863 z "},"ĝ":{"ha":624,"x_min":0,"x_max":0,"o":"m 281 219 b 243 310 247 219 232 246 l 283 540 b 350 631 294 607 315 631 b 385 535 386 631 399 603 l 343 303 b 281 219 332 240 311 219 z m 213 -265 b 508 -21 403 -265 482 -178 l 656 813 l 468 813 l 426 711 b 281 824 418 785 372 824 b 64 553 167 822 94 726 l 25 333 b 172 31 -15 107 46 31 b 311 131 242 31 283 68 l 289 0 b 231 -82 279 -57 269 -82 b 197 -18 193 -82 189 -62 l 199 -10 l -18 -10 l -19 -18 b 213 -265 -46 -164 13 -265 z m 450 881 l 599 881 l 517 1119 l 378 1119 l 213 881 l 365 881 l 426 982 z "},"ģ":{"ha":624,"x_min":0,"x_max":0,"o":"m 281 219 b 243 310 247 219 232 246 l 283 540 b 350 631 294 607 315 631 b 385 535 386 631 399 603 l 343 303 b 281 219 332 240 311 219 z m 213 -265 b 508 -21 403 -265 482 -178 l 656 813 l 468 813 l 426 711 b 281 824 418 785 372 824 b 64 553 167 822 94 726 l 25 333 b 172 31 -15 107 46 31 b 311 131 242 31 283 68 l 289 0 b 231 -82 279 -57 269 -82 b 197 -18 193 -82 189 -62 l 199 -10 l -18 -10 l -19 -18 b 213 -265 -46 -164 13 -265 z m 417 864 b 531 963 490 864 518 890 b 465 1057 544 1042 524 1057 l 457 1057 b 539 1110 469 1096 492 1110 l 556 1200 b 340 993 433 1200 364 1125 b 417 864 322 890 340 864 z "},"ġ":{"ha":624,"x_min":0,"x_max":0,"o":"m 281 219 b 243 310 247 219 232 246 l 283 540 b 350 631 294 607 315 631 b 385 535 386 631 399 603 l 343 303 b 281 219 332 240 311 219 z m 213 -265 b 508 -21 403 -265 482 -178 l 656 813 l 468 813 l 426 711 b 281 824 418 785 372 824 b 64 553 167 822 94 726 l 25 333 b 172 31 -15 107 46 31 b 311 131 242 31 283 68 l 289 0 b 231 -82 279 -57 269 -82 b 197 -18 193 -82 189 -62 l 199 -10 l -18 -10 l -19 -18 b 213 -265 -46 -164 13 -265 z m 414 863 b 547 976 499 863 531 882 b 454 1092 564 1068 531 1092 b 322 976 361 1092 340 1068 b 414 863 306 892 335 863 z "},"ß":{"ha":626,"x_min":0,"x_max":0,"o":"m 340 815 b 399 874 347 853 361 874 b 439 819 433 874 446 856 l 415 692 b 363 638 407 650 386 638 l 357 638 l 325 450 l 335 450 b 368 404 363 450 374 440 l 340 250 b 286 197 333 207 318 197 l 281 197 l 246 0 l 329 0 b 563 210 500 0 529 29 l 601 422 b 544 556 615 503 592 540 b 633 686 593 576 619 617 l 657 810 b 415 1067 689 976 608 1067 b 118 831 233 1067 144 983 l -29 0 l 197 0 z "},"ħ":{"ha":625,"x_min":0,"x_max":0,"o":"m 292 542 b 353 625 301 596 317 625 b 386 547 390 625 394 597 l 290 0 l 518 0 l 621 588 b 479 822 649 747 603 822 b 322 710 401 822 353 781 l 347 854 l 397 854 l 419 983 l 371 983 l 383 1058 l 157 1058 l 144 983 l 96 983 l 74 854 l 121 854 l -29 0 l 197 0 z "},"ĥ":{"ha":625,"x_min":0,"x_max":0,"o":"m 292 542 b 353 625 301 596 317 625 b 386 547 390 625 394 597 l 290 0 l 518 0 l 621 588 b 479 822 649 747 603 822 b 322 710 401 822 353 781 l 383 1058 l 157 1058 l -29 0 l 197 0 z m 331 1113 l 479 1113 l 397 1351 l 258 1351 l 93 1113 l 246 1113 l 307 1214 z "},"í":{"ha":314,"x_min":0,"x_max":0,"o":"m -29 0 l 204 0 l 347 813 l 114 813 z m 157 869 l 315 869 l 513 1081 l 303 1081 z "},"ĭ":{"ha":314,"x_min":0,"x_max":0,"o":"m -29 0 l 204 0 l 347 813 l 114 813 z m 246 867 b 464 1075 378 867 438 928 l 322 1075 b 263 1003 313 1018 299 1003 b 228 1075 225 1003 217 1017 l 86 1075 b 246 867 60 929 107 867 z "},"î":{"ha":314,"x_min":0,"x_max":0,"o":"m -29 0 l 204 0 l 347 813 l 114 813 z m 286 869 l 435 869 l 353 1108 l 214 1108 l 49 869 l 201 869 l 263 971 z "},"ï":{"ha":314,"x_min":0,"x_max":0,"o":"m -29 0 l 204 0 l 347 813 l 114 813 z m 131 867 b 239 961 200 867 226 889 b 165 1063 253 1039 233 1063 b 58 961 100 1063 72 1039 b 131 867 46 886 60 867 z m 343 867 b 451 961 411 867 439 889 b 378 1063 465 1039 444 1063 b 271 961 310 1063 285 1039 b 343 867 258 886 271 867 z "},"ì":{"ha":314,"x_min":0,"x_max":0,"o":"m -29 0 l 204 0 l 347 813 l 114 813 z m 171 869 l 317 869 l 265 1081 l 57 1081 z "},"ī":{"ha":314,"x_min":0,"x_max":0,"o":"m -29 0 l 204 0 l 347 813 l 114 813 z m 94 881 l 388 881 l 415 1036 l 122 1036 z "},"į":{"ha":314,"x_min":0,"x_max":0,"o":"m 239 835 b 379 947 328 835 364 860 b 269 1060 394 1032 360 1060 b 129 947 178 1060 144 1036 b 239 835 114 865 143 835 z m 49 -289 b 282 -108 169 -289 242 -232 l 111 -108 b 69 -156 103 -143 88 -156 b 47 -131 53 -156 44 -149 b 207 0 50 -111 63 -92 l 204 1 l 346 808 b 228 783 324 793 288 783 b 113 807 168 783 131 792 l -29 0 l -15 0 b -114 -136 -83 -49 -106 -89 b 49 -289 -131 -232 -74 -289 z "},"ĩ":{"ha":314,"x_min":0,"x_max":0,"o":"m -29 0 l 204 0 l 347 813 l 114 813 z m 21 868 l 150 868 b 183 922 157 904 165 922 b 332 864 225 922 260 864 b 497 1085 424 864 467 914 l 367 1085 b 332 1036 361 1050 353 1036 b 188 1090 301 1036 260 1090 b 21 868 93 1090 51 1035 z "},"ı":{"ha":314,"x_min":0,"x_max":0,"o":"m -29 0 l 204 0 l 347 813 l 114 813 z "},"ĵ":{"ha":324,"x_min":0,"x_max":0,"o":"m -69 -289 b 199 -65 96 -289 169 -233 l 354 813 l 121 813 l -26 -22 b -82 -75 -35 -64 -46 -75 l -143 -75 l -181 -289 z m 294 869 l 443 869 l 361 1108 l 222 1108 l 57 869 l 210 869 l 271 971 z "},"ȷ":{"ha":324,"x_min":0,"x_max":0,"o":"m -69 -289 b 199 -65 96 -289 169 -233 l 354 813 l 121 813 l -26 -22 b -82 -75 -35 -64 -46 -75 l -143 -75 l -181 -289 z "},"ķ":{"ha":622,"x_min":0,"x_max":0,"o":"m 290 331 l 335 0 l 564 0 l 479 494 l 704 813 l 456 813 l 321 608 l 286 550 l 294 588 l 378 1058 l 157 1058 l -29 0 l 192 0 l 246 308 l 292 388 z m 117 -381 b 332 -174 239 -381 308 -306 b 256 -44 350 -71 332 -44 b 142 -143 182 -44 154 -71 b 207 -237 128 -222 149 -237 l 215 -237 b 133 -290 203 -276 181 -290 z "},"ĸ":{"ha":622,"x_min":0,"x_max":0,"o":"m 290 331 l 335 0 l 564 0 l 479 494 l 704 813 l 456 813 l 321 608 l 286 550 l 294 588 l 335 813 l 114 813 l -29 0 l 192 0 l 246 308 l 292 388 z "},"ĺ":{"ha":307,"x_min":0,"x_max":0,"o":"m -29 0 l 197 0 l 383 1058 l 157 1058 z m 194 1115 l 353 1115 l 550 1326 l 340 1326 z "},"ľ":{"ha":307,"x_min":0,"x_max":0,"o":"m -29 0 l 197 0 l 383 1058 l 157 1058 z m 394 919 l 526 919 l 683 1131 l 500 1131 z "},"ļ":{"ha":307,"x_min":0,"x_max":0,"o":"m -29 0 l 197 0 l 383 1058 l 157 1058 z m -58 -386 b 157 -179 64 -386 133 -311 b 81 -50 175 -76 157 -50 b -33 -149 7 -50 -21 -76 b 32 -243 -47 -228 -26 -243 l 40 -243 b -42 -296 28 -282 6 -296 z "},"ŀ":{"ha":532,"x_min":0,"x_max":0,"o":"m -29 0 l 197 0 l 383 1058 l 157 1058 z m 397 281 b 531 394 482 281 514 300 b 438 510 547 486 514 510 b 306 394 344 510 324 486 b 397 281 289 310 318 281 z "},"ł":{"ha":340,"x_min":0,"x_max":0,"o":"m 213 0 l 278 369 l 354 386 l 350 544 l 307 536 l 399 1058 l 172 1058 l 72 488 l -4 472 l 1 313 l 43 321 l -14 0 z "},"ń":{"ha":629,"x_min":0,"x_max":0,"o":"m 294 542 b 356 625 304 596 319 625 b 389 547 393 625 397 597 l 293 0 l 521 0 l 624 588 b 469 822 651 747 593 822 b 307 717 394 822 342 783 l 301 813 l 114 813 l -29 0 l 200 0 z m 324 868 l 482 868 l 679 1079 l 469 1079 z "},"ň":{"ha":629,"x_min":0,"x_max":0,"o":"m 294 542 b 356 625 304 596 319 625 b 389 547 393 625 397 597 l 293 0 l 521 0 l 624 588 b 469 822 651 747 593 822 b 307 717 394 822 342 783 l 301 813 l 114 813 l -29 0 l 200 0 z m 478 868 l 644 1107 l 492 1107 l 429 1006 l 407 1107 l 257 1107 l 339 868 z "},"ņ":{"ha":629,"x_min":0,"x_max":0,"o":"m 294 542 b 356 625 304 596 319 625 b 389 547 393 625 397 597 l 293 0 l 521 0 l 624 588 b 469 822 651 747 593 822 b 307 717 394 822 342 783 l 301 813 l 114 813 l -29 0 l 200 0 z m 97 -386 b 313 -179 219 -386 289 -311 b 236 -50 331 -76 313 -50 b 122 -149 163 -50 135 -76 b 188 -243 108 -228 129 -243 l 196 -243 b 114 -296 183 -282 161 -296 z "},"ñ":{"ha":629,"x_min":0,"x_max":0,"o":"m 294 542 b 356 625 304 596 319 625 b 389 547 393 625 397 597 l 293 0 l 521 0 l 624 588 b 469 822 651 747 593 822 b 307 717 394 822 342 783 l 301 813 l 114 813 l -29 0 l 200 0 z m 190 867 l 319 867 b 353 921 326 903 335 921 b 501 863 394 921 429 863 b 667 1083 593 863 636 913 l 536 1083 b 501 1035 531 1049 522 1035 b 357 1089 471 1035 429 1089 b 190 867 263 1089 221 1033 z "},"ŋ":{"ha":629,"x_min":0,"x_max":0,"o":"m 246 -289 b 508 -68 411 -289 479 -236 l 624 588 b 469 822 651 747 593 822 b 307 717 394 822 342 783 l 301 813 l 114 813 l -29 0 l 200 0 l 294 542 b 356 625 304 596 319 625 b 389 547 393 625 397 597 l 289 -22 b 233 -75 281 -64 269 -75 l 172 -75 l 135 -289 z "},"ó":{"ha":618,"x_min":0,"x_max":0,"o":"m 257 -15 b 551 226 421 -15 525 74 l 603 517 b 358 824 635 703 558 824 b 67 574 201 824 93 726 l 17 286 b 257 -15 -14 111 53 -15 z m 274 182 b 235 261 243 182 225 201 l 286 557 b 347 632 296 613 317 632 b 386 549 382 632 397 611 l 336 261 b 274 182 326 204 306 182 z m 308 879 l 467 879 l 664 1090 l 454 1090 z "},"ŏ":{"ha":618,"x_min":0,"x_max":0,"o":"m 257 -15 b 551 226 421 -15 525 74 l 603 517 b 358 824 635 703 558 824 b 67 574 201 824 93 726 l 17 286 b 257 -15 -14 111 53 -15 z m 274 182 b 235 261 243 182 225 201 l 286 557 b 347 632 296 613 317 632 b 386 549 382 632 397 611 l 336 261 b 274 182 326 204 306 182 z m 400 876 b 618 1085 532 876 592 938 l 476 1085 b 417 1013 467 1028 453 1013 b 382 1085 379 1013 371 1026 l 240 1085 b 400 876 214 939 261 876 z "},"ô":{"ha":618,"x_min":0,"x_max":0,"o":"m 257 -15 b 551 226 421 -15 525 74 l 603 517 b 358 824 635 703 558 824 b 67 574 201 824 93 726 l 17 286 b 257 -15 -14 111 53 -15 z m 274 182 b 235 261 243 182 225 201 l 286 557 b 347 632 296 613 317 632 b 386 549 382 632 397 611 l 336 261 b 274 182 326 204 306 182 z m 440 879 l 589 879 l 507 1118 l 368 1118 l 203 879 l 356 879 l 417 981 z "},"ö":{"ha":618,"x_min":0,"x_max":0,"o":"m 257 -15 b 551 226 421 -15 525 74 l 603 517 b 358 824 635 703 558 824 b 67 574 201 824 93 726 l 17 286 b 257 -15 -14 111 53 -15 z m 274 182 b 235 261 243 182 225 201 l 286 557 b 347 632 296 613 317 632 b 386 549 382 632 397 611 l 336 261 b 274 182 326 204 306 182 z m 285 876 b 393 971 354 876 381 899 b 319 1072 407 1049 388 1072 b 213 971 254 1072 226 1049 b 285 876 200 896 214 876 z m 497 876 b 606 971 565 876 593 899 b 532 1072 619 1049 599 1072 b 425 971 464 1072 439 1049 b 497 876 413 896 425 876 z "},"œ":{"ha":938,"x_min":0,"x_max":0,"o":"m 603 538 b 674 638 615 607 631 638 b 717 542 715 638 731 613 l 707 483 l 593 483 z m 274 182 b 235 261 243 182 225 201 l 286 557 b 347 632 296 613 317 632 b 386 549 382 632 397 611 l 336 261 b 274 182 326 204 306 182 z m 874 222 l 888 292 l 665 292 l 660 263 b 596 175 649 204 636 175 b 554 265 556 175 542 194 l 569 349 l 899 349 l 931 528 b 699 825 964 710 885 825 b 521 764 622 825 564 803 b 353 824 486 801 432 824 b 67 574 201 824 93 726 l 17 286 b 244 -15 -14 111 57 -15 b 419 40 321 -15 378 4 b 596 -15 454 4 511 -15 b 874 222 753 -15 839 49 z "},"ò":{"ha":618,"x_min":0,"x_max":0,"o":"m 257 -15 b 551 226 421 -15 525 74 l 603 517 b 358 824 635 703 558 824 b 67 574 201 824 93 726 l 17 286 b 257 -15 -14 111 53 -15 z m 274 182 b 235 261 243 182 225 201 l 286 557 b 347 632 296 613 317 632 b 386 549 382 632 397 611 l 336 261 b 274 182 326 204 306 182 z m 325 879 l 471 879 l 419 1090 l 211 1090 z "},"ő":{"ha":618,"x_min":0,"x_max":0,"o":"m 257 -15 b 551 226 421 -15 525 74 l 603 517 b 358 824 635 703 558 824 b 67 574 201 824 93 726 l 17 286 b 257 -15 -14 111 53 -15 z m 274 182 b 235 261 243 182 225 201 l 286 557 b 347 632 296 613 317 632 b 386 549 382 632 397 611 l 336 261 b 274 182 326 204 306 182 z m 492 1090 l 328 1090 l 236 879 l 351 879 z m 694 1090 l 525 1090 l 415 879 l 533 879 z "},"ō":{"ha":618,"x_min":0,"x_max":0,"o":"m 257 -15 b 551 226 421 -15 525 74 l 603 517 b 358 824 635 703 558 824 b 67 574 201 824 93 726 l 17 286 b 257 -15 -14 111 53 -15 z m 274 182 b 235 261 243 182 225 201 l 286 557 b 347 632 296 613 317 632 b 386 549 382 632 397 611 l 336 261 b 274 182 326 204 306 182 z m 249 890 l 542 890 l 569 1046 l 276 1046 z "},"ø":{"ha":618,"x_min":0,"x_max":0,"o":"m 274 182 b 235 261 243 182 225 201 l 286 557 b 347 632 296 613 317 632 b 386 549 382 632 397 611 l 336 261 b 274 182 326 204 306 182 z m 257 -15 b 551 226 421 -15 525 74 l 603 517 b 558 749 619 613 606 693 l 636 921 l 413 921 l 368 824 l 358 824 b 67 574 201 824 93 726 l 17 286 b 53 67 1 197 13 121 l -36 -126 l 189 -126 l 240 -15 z "},"ǿ":{"ha":618,"x_min":0,"x_max":0,"o":"m 274 182 b 235 261 243 182 225 201 l 286 557 b 347 632 296 613 317 632 b 386 549 382 632 397 611 l 336 261 b 274 182 326 204 306 182 z m 257 -15 b 551 226 421 -15 525 74 l 603 517 b 558 749 619 613 606 693 l 636 921 l 413 921 l 368 824 l 358 824 b 67 574 201 824 93 726 l 17 286 b 53 67 1 197 13 121 l -36 -126 l 189 -126 l 240 -15 z m 342 960 l 500 960 l 697 1171 l 488 1171 z "},"õ":{"ha":618,"x_min":0,"x_max":0,"o":"m 257 -15 b 551 226 421 -15 525 74 l 603 517 b 358 824 635 703 558 824 b 67 574 201 824 93 726 l 17 286 b 257 -15 -14 111 53 -15 z m 274 182 b 235 261 243 182 225 201 l 286 557 b 347 632 296 613 317 632 b 386 549 382 632 397 611 l 336 261 b 274 182 326 204 306 182 z m 175 878 l 304 878 b 338 932 311 914 319 932 b 486 874 379 932 414 874 b 651 1094 578 874 621 924 l 521 1094 b 486 1046 515 1060 507 1046 b 342 1100 456 1046 414 1100 b 175 878 247 1100 206 1044 z "},"ŕ":{"ha":424,"x_min":0,"x_max":0,"o":"m 192 0 l 272 464 b 386 565 288 546 306 565 l 438 565 l 483 824 l 456 824 b 281 678 344 824 306 783 l 272 813 l 114 813 l -29 0 z m 242 869 l 400 869 l 597 1081 l 388 1081 z "},"ř":{"ha":424,"x_min":0,"x_max":0,"o":"m 192 0 l 272 464 b 386 565 288 546 306 565 l 438 565 l 483 824 l 456 824 b 281 678 344 824 306 783 l 272 813 l 114 813 l -29 0 z m 397 869 l 564 1108 l 411 1108 l 349 1007 l 326 1108 l 176 1108 l 258 869 z "},"ŗ":{"ha":424,"x_min":0,"x_max":0,"o":"m 192 0 l 272 464 b 386 565 288 546 306 565 l 438 565 l 483 824 l 456 824 b 281 678 344 824 306 783 l 272 813 l 114 813 l -29 0 z m -64 -386 b 151 -179 58 -386 128 -311 b 75 -50 169 -76 151 -50 b -39 -149 1 -50 -26 -76 b 26 -243 -53 -228 -32 -243 l 35 -243 b -47 -296 22 -282 0 -296 z "},"ś":{"ha":583,"x_min":0,"x_max":0,"o":"m 244 -15 b 540 225 425 -15 514 68 l 542 235 b 392 490 569 392 475 449 b 279 604 328 522 269 549 b 335 651 283 632 297 651 b 381 592 372 651 388 631 l 372 542 l 583 542 l 589 576 b 342 824 617 751 532 824 b 64 619 161 824 86 731 l 63 614 b 204 356 31 456 122 399 b 317 235 269 322 328 297 b 256 174 311 197 293 174 b 208 228 217 174 201 189 l 221 303 l -1 303 l -15 225 b 244 -15 -43 67 28 -15 z m 313 882 l 471 882 l 668 1093 l 458 1093 z "},"š":{"ha":583,"x_min":0,"x_max":0,"o":"m 244 -15 b 540 225 425 -15 514 68 l 542 235 b 392 490 569 392 475 449 b 279 604 328 522 269 549 b 335 651 283 632 297 651 b 381 592 372 651 388 631 l 372 542 l 583 542 l 589 576 b 342 824 617 751 532 824 b 64 619 161 824 86 731 l 63 614 b 204 356 31 456 122 399 b 317 235 269 322 328 297 b 256 174 311 197 293 174 b 208 228 217 174 201 189 l 221 303 l -1 303 l -15 225 b 244 -15 -43 67 28 -15 z m 451 882 l 618 1121 l 465 1121 l 403 1019 l 381 1121 l 231 1121 l 313 882 z "},"ş":{"ha":583,"x_min":0,"x_max":0,"o":"m 153 -335 b 365 -196 276 -335 349 -292 b 257 -60 381 -110 338 -69 l 264 -15 b 540 225 432 -8 515 74 l 542 235 b 392 490 569 392 475 449 b 279 604 328 522 269 549 b 335 651 283 632 297 651 b 381 592 372 651 388 631 l 372 542 l 583 542 l 589 576 b 342 824 617 751 532 824 b 64 619 161 824 86 731 l 63 614 b 204 356 31 456 122 399 b 317 235 269 322 328 297 b 256 174 311 197 293 174 b 208 228 217 174 201 189 l 221 303 l -1 303 l -15 225 b 129 -6 -37 99 3 22 l 103 -151 l 178 -151 b 218 -181 207 -151 221 -161 b 167 -212 214 -200 197 -212 b 122 -179 138 -212 125 -206 l -44 -179 b 153 -335 -36 -293 31 -335 z "},"ŝ":{"ha":583,"x_min":0,"x_max":0,"o":"m 244 -15 b 540 225 425 -15 514 68 l 542 235 b 392 490 569 392 475 449 b 279 604 328 522 269 549 b 335 651 283 632 297 651 b 381 592 372 651 388 631 l 372 542 l 583 542 l 589 576 b 342 824 617 751 532 824 b 64 619 161 824 86 731 l 63 614 b 204 356 31 456 122 399 b 317 235 269 322 328 297 b 256 174 311 197 293 174 b 208 228 217 174 201 189 l 221 303 l -1 303 l -15 225 b 244 -15 -43 67 28 -15 z m 419 882 l 568 882 l 486 1121 l 347 1121 l 182 882 l 335 882 l 396 983 z "},"ș":{"ha":583,"x_min":0,"x_max":0,"o":"m 244 -15 b 540 225 425 -15 514 68 l 542 235 b 392 490 569 392 475 449 b 279 604 328 522 269 549 b 335 651 283 632 297 651 b 381 592 372 651 388 631 l 372 542 l 583 542 l 589 576 b 342 824 617 751 532 824 b 64 619 161 824 86 731 l 63 614 b 204 356 31 456 122 399 b 317 235 269 322 328 297 b 256 174 311 197 293 174 b 208 228 217 174 201 189 l 221 303 l -1 303 l -15 225 b 244 -15 -43 67 28 -15 z m 81 -401 b 296 -194 203 -401 272 -326 b 219 -65 314 -92 296 -65 b 106 -164 146 -65 118 -92 b 171 -258 92 -243 113 -258 l 179 -258 b 97 -311 167 -297 144 -311 z "},"ŧ":{"ha":425,"x_min":0,"x_max":0,"o":"m 372 217 l 346 217 b 289 303 296 217 275 222 l 299 356 l 382 356 l 403 474 l 319 474 l 339 592 l 440 592 l 479 813 l 378 813 l 404 960 l 246 960 b 215 885 238 931 229 910 b 156 819 199 854 182 835 b 83 800 131 806 107 803 l 47 592 l 126 592 l 106 474 l 42 474 l 21 356 l 85 356 l 64 238 b 253 0 31 51 79 0 l 335 0 z "},"ť":{"ha":425,"x_min":0,"x_max":0,"o":"m 372 217 l 346 217 b 289 303 296 217 275 222 l 339 592 l 440 592 l 479 813 l 378 813 l 404 960 l 246 960 b 215 885 238 931 229 910 b 156 819 199 854 182 835 b 83 800 131 806 107 803 l 47 592 l 126 592 l 64 238 b 253 0 31 51 79 0 l 335 0 z m 431 892 l 563 892 l 719 1103 l 536 1103 z "},"ţ":{"ha":425,"x_min":0,"x_max":0,"o":"m 372 217 l 346 217 b 289 303 296 217 275 222 l 339 592 l 440 592 l 479 813 l 378 813 l 404 960 l 246 960 b 215 885 238 931 229 910 b 156 819 199 854 182 835 b 83 800 131 806 107 803 l 47 592 l 126 592 l 64 238 b 253 0 31 51 79 0 l 335 0 z m 49 -386 b 264 -179 171 -386 240 -311 b 188 -50 282 -76 264 -50 b 74 -149 114 -50 86 -76 b 139 -243 60 -228 81 -243 l 147 -243 b 65 -296 135 -282 113 -296 z "},"ú":{"ha":625,"x_min":0,"x_max":0,"o":"m 329 0 l 514 0 l 657 813 l 431 813 l 336 278 b 276 186 325 214 304 186 b 246 269 236 186 238 219 l 342 813 l 114 813 l 11 229 b 158 -12 -17 69 35 -12 b 321 97 233 -12 288 28 z m 307 869 l 465 869 l 663 1081 l 453 1081 z "},"ŭ":{"ha":625,"x_min":0,"x_max":0,"o":"m 329 0 l 514 0 l 657 813 l 431 813 l 336 278 b 276 186 325 214 304 186 b 246 269 236 186 238 219 l 342 813 l 114 813 l 11 229 b 158 -12 -17 69 35 -12 b 321 97 233 -12 288 28 z m 399 867 b 617 1075 531 867 590 928 l 475 1075 b 415 1003 465 1018 451 1003 b 381 1075 378 1003 369 1017 l 239 1075 b 399 867 213 929 260 867 z "},"û":{"ha":625,"x_min":0,"x_max":0,"o":"m 329 0 l 514 0 l 657 813 l 431 813 l 336 278 b 276 186 325 214 304 186 b 246 269 236 186 238 219 l 342 813 l 114 813 l 11 229 b 158 -12 -17 69 35 -12 b 321 97 233 -12 288 28 z m 443 869 l 592 869 l 510 1108 l 371 1108 l 206 869 l 358 869 l 419 971 z "},"ü":{"ha":625,"x_min":0,"x_max":0,"o":"m 329 0 l 514 0 l 657 813 l 431 813 l 336 278 b 276 186 325 214 304 186 b 246 269 236 186 238 219 l 342 813 l 114 813 l 11 229 b 158 -12 -17 69 35 -12 b 321 97 233 -12 288 28 z m 283 867 b 392 961 353 867 379 889 b 318 1063 406 1039 386 1063 b 211 961 253 1063 225 1039 b 283 867 199 886 213 867 z m 496 867 b 604 961 564 867 592 889 b 531 1063 618 1039 597 1063 b 424 961 463 1063 438 1039 b 496 867 411 886 424 867 z "},"ù":{"ha":625,"x_min":0,"x_max":0,"o":"m 329 0 l 514 0 l 657 813 l 431 813 l 336 278 b 276 186 325 214 304 186 b 246 269 236 186 238 219 l 342 813 l 114 813 l 11 229 b 158 -12 -17 69 35 -12 b 321 97 233 -12 288 28 z m 324 869 l 469 869 l 418 1081 l 210 1081 z "},"ű":{"ha":625,"x_min":0,"x_max":0,"o":"m 329 0 l 514 0 l 657 813 l 431 813 l 336 278 b 276 186 325 214 304 186 b 246 269 236 186 238 219 l 342 813 l 114 813 l 11 229 b 158 -12 -17 69 35 -12 b 321 97 233 -12 288 28 z m 490 1081 l 326 1081 l 235 869 l 350 869 z m 693 1081 l 524 1081 l 414 869 l 532 869 z "},"ū":{"ha":625,"x_min":0,"x_max":0,"o":"m 329 0 l 514 0 l 657 813 l 431 813 l 336 278 b 276 186 325 214 304 186 b 246 269 236 186 238 219 l 342 813 l 114 813 l 11 229 b 158 -12 -17 69 35 -12 b 321 97 233 -12 288 28 z m 247 881 l 540 881 l 568 1036 l 275 1036 z "},"ų":{"ha":625,"x_min":0,"x_max":0,"o":"m 589 -108 l 418 -108 b 376 -156 410 -143 394 -156 b 354 -131 360 -156 351 -149 b 514 0 357 -111 369 -92 l 657 813 l 431 813 l 336 278 b 276 186 325 214 304 186 b 246 269 236 186 238 219 l 342 813 l 114 813 l 11 229 b 158 -12 -17 69 35 -12 b 321 97 233 -12 288 28 l 326 25 b 193 -136 232 -36 204 -82 b 356 -289 176 -232 233 -289 b 589 -108 476 -289 549 -232 z "},"ů":{"ha":625,"x_min":0,"x_max":0,"o":"m 329 0 l 514 0 l 657 813 l 431 813 l 336 278 b 276 186 325 214 304 186 b 246 269 236 186 238 219 l 342 813 l 114 813 l 11 229 b 158 -12 -17 69 35 -12 b 321 97 233 -12 288 28 z m 394 865 b 583 1007 500 865 567 914 b 438 1165 600 1103 542 1165 b 253 1021 347 1165 271 1118 b 394 865 236 929 297 865 z m 413 985 b 385 1015 388 985 382 997 b 424 1047 388 1033 399 1047 b 451 1015 447 1047 454 1033 b 413 985 449 997 436 985 z "},"ũ":{"ha":625,"x_min":0,"x_max":0,"o":"m 329 0 l 514 0 l 657 813 l 431 813 l 336 278 b 276 186 325 214 304 186 b 246 269 236 186 238 219 l 342 813 l 114 813 l 11 229 b 158 -12 -17 69 35 -12 b 321 97 233 -12 288 28 z m 179 868 l 308 868 b 342 922 315 904 324 922 b 490 864 383 922 418 864 b 656 1085 582 864 625 914 l 525 1085 b 490 1036 519 1050 511 1036 b 346 1090 460 1036 418 1090 b 179 868 251 1090 210 1035 z "},"ẃ":{"ha":847,"x_min":0,"x_max":0,"o":"m 396 336 l 418 421 l 408 336 l 421 0 l 632 0 l 929 813 l 714 813 l 581 411 l 560 304 l 569 413 l 564 813 l 422 813 l 271 411 l 236 306 l 260 414 l 281 813 l 65 813 l 57 0 l 268 0 z m 418 869 l 576 869 l 774 1081 l 564 1081 z "},"ŵ":{"ha":847,"x_min":0,"x_max":0,"o":"m 396 336 l 418 421 l 408 336 l 421 0 l 632 0 l 929 813 l 714 813 l 581 411 l 560 304 l 569 413 l 564 813 l 422 813 l 271 411 l 236 306 l 260 414 l 281 813 l 65 813 l 57 0 l 268 0 z m 550 869 l 699 869 l 617 1108 l 478 1108 l 313 869 l 465 869 l 526 971 z "},"ẅ":{"ha":847,"x_min":0,"x_max":0,"o":"m 396 336 l 418 421 l 408 336 l 421 0 l 632 0 l 929 813 l 714 813 l 581 411 l 560 304 l 569 413 l 564 813 l 422 813 l 271 411 l 236 306 l 260 414 l 281 813 l 65 813 l 57 0 l 268 0 z m 394 867 b 503 961 464 867 490 889 b 429 1063 517 1039 497 1063 b 322 961 364 1063 336 1039 b 394 867 310 886 324 867 z m 607 867 b 715 961 675 867 703 889 b 642 1063 729 1039 708 1063 b 535 961 574 1063 549 1039 b 607 867 522 886 535 867 z "},"ẁ":{"ha":847,"x_min":0,"x_max":0,"o":"m 396 336 l 418 421 l 408 336 l 421 0 l 632 0 l 929 813 l 714 813 l 581 411 l 560 304 l 569 413 l 564 813 l 422 813 l 271 411 l 236 306 l 260 414 l 281 813 l 65 813 l 57 0 l 268 0 z m 435 869 l 581 869 l 529 1081 l 321 1081 z "},"ý":{"ha":607,"x_min":0,"x_max":0,"o":"m 21 -261 b 319 -47 196 -261 246 -224 l 678 813 l 457 813 l 335 492 l 290 315 l 311 492 l 300 813 l 76 813 l 147 58 l 129 10 b 28 -50 111 -37 89 -50 l -46 -50 l -82 -261 z m 294 868 l 453 868 l 650 1079 l 440 1079 z "},"ŷ":{"ha":607,"x_min":0,"x_max":0,"o":"m 21 -261 b 319 -47 196 -261 246 -224 l 678 813 l 457 813 l 335 492 l 290 315 l 311 492 l 300 813 l 76 813 l 147 58 l 129 10 b 28 -50 111 -37 89 -50 l -46 -50 l -82 -261 z m 435 868 l 583 868 l 501 1107 l 363 1107 l 197 868 l 350 868 l 411 969 z "},"ÿ":{"ha":607,"x_min":0,"x_max":0,"o":"m 21 -261 b 319 -47 196 -261 246 -224 l 678 813 l 457 813 l 335 492 l 290 315 l 311 492 l 300 813 l 76 813 l 147 58 l 129 10 b 28 -50 111 -37 89 -50 l -46 -50 l -82 -261 z m 279 865 b 388 960 349 865 375 888 b 314 1061 401 1038 382 1061 b 207 960 249 1061 221 1038 b 279 865 194 885 208 865 z m 492 865 b 600 960 560 865 588 888 b 526 1061 614 1038 593 1061 b 419 960 458 1061 433 1038 b 492 865 407 885 419 865 z "},"ỳ":{"ha":607,"x_min":0,"x_max":0,"o":"m 21 -261 b 319 -47 196 -261 246 -224 l 678 813 l 457 813 l 335 492 l 290 315 l 311 492 l 300 813 l 76 813 l 147 58 l 129 10 b 28 -50 111 -37 89 -50 l -46 -50 l -82 -261 z m 311 868 l 457 868 l 406 1079 l 197 1079 z "},"ĳ":{"ha":633,"x_min":0,"x_max":0,"o":"m 549 821 b 693 933 638 821 678 846 b 588 1046 708 1022 679 1046 b 444 933 497 1046 460 1022 b 549 821 429 843 456 821 z m 232 821 b 376 933 321 821 361 846 b 271 1046 392 1022 361 1046 b 126 933 179 1046 142 1022 b 232 821 111 843 138 821 z m -85 -261 l 243 -261 b 513 -51 410 -261 483 -219 l 664 808 b 542 783 640 793 601 783 b 429 807 482 783 447 792 l 285 -8 b 231 -61 278 -50 267 -61 l -50 -61 z m -29 0 l 204 0 l 346 808 b 225 783 324 793 285 783 b 113 807 165 783 129 792 z "},"ź":{"ha":539,"x_min":0,"x_max":0,"o":"m 439 0 l 475 199 l 258 199 l 547 628 l 581 813 l 111 813 l 76 618 l 300 618 l -10 175 l -40 0 z m 267 869 l 425 869 l 622 1081 l 413 1081 z "},"ž":{"ha":539,"x_min":0,"x_max":0,"o":"m 439 0 l 475 199 l 258 199 l 547 628 l 581 813 l 111 813 l 76 618 l 300 618 l -10 175 l -40 0 z m 436 869 l 603 1108 l 450 1108 l 388 1007 l 365 1108 l 215 1108 l 297 869 z "},"ż":{"ha":539,"x_min":0,"x_max":0,"o":"m 439 0 l 475 199 l 258 199 l 547 628 l 581 813 l 111 813 l 76 618 l 300 618 l -10 175 l -40 0 z m 363 867 b 496 981 447 867 479 886 b 403 1096 513 1072 479 1096 b 271 981 310 1096 289 1072 b 363 867 254 896 283 867 z "},"þ":{"ha":615,"x_min":0,"x_max":0,"o":"m 333 264 b 272 178 321 201 301 178 b 233 272 235 178 221 207 l 281 542 b 346 631 293 611 313 631 b 381 533 382 631 393 601 z m 333 -11 b 554 256 443 -11 517 54 l 603 536 b 463 824 639 725 581 824 b 324 746 399 824 354 793 l 379 1058 l 156 1058 l -74 -251 l 149 -251 l 207 79 b 333 -11 221 19 261 -11 z "},"ª":{"ha":468,"x_min":0,"x_max":0,"o":"m 258 561 b 235 599 238 561 231 574 l 243 644 b 256 675 246 660 250 669 b 282 688 263 681 271 683 b 317 699 297 692 308 694 l 300 601 b 258 561 296 579 281 561 z m 404 454 l 475 454 l 501 613 l 488 613 b 469 636 469 613 465 617 l 503 824 b 336 1014 525 950 476 1014 b 111 864 200 1014 132 958 l 99 793 l 275 793 l 285 846 b 321 885 290 875 301 885 b 344 849 342 885 349 871 l 339 819 b 257 768 332 788 311 779 b 129 731 203 757 161 747 b 58 633 93 713 67 682 l 51 588 b 161 444 35 503 79 444 b 304 506 222 444 272 461 b 404 454 314 467 346 454 z "},"º":{"ha":454,"x_min":0,"x_max":0,"o":"m 249 447 b 465 610 358 447 447 507 l 500 806 b 317 1014 522 929 449 1014 b 103 844 210 1014 121 947 l 68 650 b 249 447 49 532 113 447 z m 263 594 b 236 649 242 594 229 608 l 265 822 b 306 872 271 860 286 872 b 333 817 329 872 342 858 l 306 649 b 263 594 299 610 283 594 z "},"&":{"ha":799,"x_min":0,"x_max":0,"o":"m 581 -15 b 719 26 647 -15 688 4 l 750 204 b 651 171 724 183 693 171 b 632 174 644 171 638 172 b 811 560 718 271 785 403 l 818 597 l 631 599 l 629 588 b 517 294 607 458 565 361 b 482 383 504 321 493 350 b 449 500 468 425 457 464 b 703 783 600 582 679 656 b 503 1018 732 940 647 1018 b 244 776 358 1018 272 932 l 243 765 b 243 568 233 714 235 644 b -1 289 117 496 28 422 b 263 -15 -42 108 58 -15 b 457 35 328 -15 394 3 b 581 -15 494 3 535 -15 z m 435 775 l 436 781 b 489 854 444 832 461 854 b 519 801 515 854 526 839 b 426 671 507 736 475 703 b 435 775 426 707 429 742 z m 318 174 b 218 279 236 174 206 215 b 278 389 226 321 246 357 b 304 299 286 358 294 328 b 354 178 318 256 335 214 b 318 174 342 175 329 174 z "},"´":{"ha":496,"x_min":0,"x_max":0,"o":"m 176 883 l 335 883 l 532 1094 l 322 1094 z "},"˘":{"ha":496,"x_min":0,"x_max":0,"o":"m 339 881 b 557 1089 471 881 531 942 l 415 1089 b 356 1017 406 1032 392 1017 b 321 1089 318 1017 310 1031 l 179 1089 b 339 881 153 943 200 881 z "},"ˇ":{"ha":496,"x_min":0,"x_max":0,"o":"m 403 883 l 569 1122 l 417 1122 l 354 1021 l 332 1122 l 182 1122 l 264 883 z "},"¸":{"ha":496,"x_min":0,"x_max":0,"o":"m 138 -319 b 350 -181 261 -319 333 -276 b 242 -44 365 -94 322 -54 l 253 21 l 115 21 l 88 -136 l 163 -136 b 203 -165 192 -136 206 -146 b 151 -197 199 -185 182 -197 b 107 -164 122 -197 110 -190 l -60 -164 b 138 -319 -51 -278 15 -319 z "},"ˆ":{"ha":496,"x_min":0,"x_max":0,"o":"m 378 883 l 526 883 l 444 1122 l 306 1122 l 140 883 l 293 883 l 354 985 z "},"¨":{"ha":496,"x_min":0,"x_max":0,"o":"m 226 881 b 335 975 296 881 322 903 b 261 1076 349 1053 329 1076 b 154 975 196 1076 168 1053 b 226 881 142 900 156 881 z m 439 881 b 547 975 507 881 535 903 b 474 1076 561 1053 540 1076 b 367 975 406 1076 381 1053 b 439 881 354 900 367 881 z "},"˙":{"ha":496,"x_min":0,"x_max":0,"o":"m 332 881 b 465 994 417 881 449 900 b 372 1110 482 1086 449 1110 b 240 994 279 1110 258 1086 b 332 881 224 910 253 881 z "},"`":{"ha":496,"x_min":0,"x_max":0,"o":"m 301 883 l 447 883 l 396 1094 l 188 1094 z "},"˝":{"ha":496,"x_min":0,"x_max":0,"o":"m 403 1094 l 239 1094 l 147 883 l 263 883 z m 606 1094 l 436 1094 l 326 883 l 444 883 z "},"¯":{"ha":496,"x_min":0,"x_max":0,"o":"m 189 894 l 482 894 l 510 1050 l 217 1050 z "},"˛":{"ha":496,"x_min":0,"x_max":0,"o":"m 126 -289 b 360 -108 247 -289 319 -232 l 189 -108 b 147 -156 181 -143 165 -156 b 125 -131 131 -156 122 -149 b 285 0 128 -111 140 -92 l 163 63 b -36 -136 14 -19 -24 -71 b 126 -289 -53 -232 4 -289 z "},"˚":{"ha":496,"x_min":0,"x_max":0,"o":"m 338 879 b 526 1021 443 879 510 928 b 381 1179 543 1117 485 1179 b 196 1035 290 1179 214 1132 b 338 879 179 943 240 879 z m 356 999 b 328 1029 331 999 325 1011 b 367 1061 331 1047 342 1061 b 394 1029 390 1061 397 1047 b 356 999 392 1011 379 999 z "},"˜":{"ha":496,"x_min":0,"x_max":0,"o":"m 119 882 l 249 882 b 282 936 256 918 264 936 b 431 878 324 936 358 878 b 596 1099 522 878 565 928 l 465 1099 b 431 1050 460 1064 451 1050 b 286 1104 400 1050 358 1104 b 119 882 192 1104 150 1049 z "},".":{"ha":347,"x_min":0,"x_max":0,"o":"m 104 -11 b 251 118 201 -11 232 13 b 149 269 274 239 239 269 b 1 136 51 269 21 243 b 104 -11 -18 26 10 -11 z "},",":{"ha":349,"x_min":0,"x_max":0,"o":"m -36 -185 b 249 90 125 -185 217 -89 b 142 261 274 225 233 261 b 0 125 51 261 19 228 b 90 -10 -19 13 17 -10 l 96 -10 b -18 -81 79 -57 44 -79 z "},":":{"ha":347,"x_min":0,"x_max":0,"o":"m 201 539 b 349 668 299 539 329 563 b 246 819 371 789 336 819 b 99 686 149 819 118 793 b 201 539 79 576 107 539 z m 104 -11 b 251 118 201 -11 232 13 b 149 269 274 239 239 269 b 1 136 51 269 21 243 b 104 -11 -18 26 10 -11 z "},";":{"ha":349,"x_min":0,"x_max":0,"o":"m 201 539 b 349 668 299 539 329 563 b 246 819 371 789 336 819 b 99 686 149 819 118 793 b 201 539 79 576 107 539 z m -36 -185 b 249 90 125 -185 217 -89 b 142 261 274 225 233 261 b 0 125 51 261 19 228 b 90 -10 -19 13 17 -10 l 96 -10 b -18 -81 79 -57 44 -79 z "},"…":{"ha":921,"x_min":0,"x_max":0,"o":"m 688 -11 b 826 118 776 -11 807 13 b 732 269 849 239 818 269 b 593 136 643 269 613 243 b 688 -11 574 26 597 -11 z m 393 -11 b 532 118 482 -11 513 13 b 438 269 554 239 524 269 b 299 136 349 269 318 243 b 393 -11 279 26 303 -11 z m 96 -11 b 235 118 185 -11 215 13 b 140 269 257 239 226 269 b 1 136 51 269 21 243 b 96 -11 -18 26 6 -11 z "},"!":{"ha":347,"x_min":0,"x_max":0,"o":"m 74 289 b 157 297 90 294 122 297 b 238 289 192 297 221 294 b 350 707 253 308 315 511 l 401 1000 l 160 1000 l 108 707 b 74 289 74 508 65 308 z m 104 -11 b 251 111 201 -11 232 10 b 149 256 272 224 240 256 b 1 129 51 256 21 232 b 104 -11 -18 19 10 -11 z "},"¡":{"ha":347,"x_min":0,"x_max":0,"o":"m 201 563 b 349 689 299 563 329 586 b 246 829 368 799 340 829 b 99 707 149 829 118 808 b 201 563 78 594 110 563 z m -51 -182 l 190 -182 l 242 111 b 276 529 276 310 285 510 b 193 521 260 524 228 521 b 113 529 158 521 129 524 b 0 111 97 510 35 307 z "},"?":{"ha":626,"x_min":0,"x_max":0,"o":"m 379 267 l 396 339 b 500 436 410 382 453 406 b 643 636 558 474 624 522 l 664 750 b 414 1015 693 914 606 1015 b 93 778 228 1015 119 928 l 61 592 l 293 592 l 322 761 b 386 822 329 799 342 822 b 432 757 422 822 440 803 l 408 628 b 319 543 401 590 363 569 b 182 365 263 508 199 465 b 176 322 181 357 176 333 l 168 267 b 278 283 186 275 218 283 b 379 267 336 283 363 275 z m 228 -11 b 375 104 326 -11 356 1 b 272 240 396 218 365 240 b 122 122 174 240 142 226 b 228 -11 103 11 132 -11 z "},"¿":{"ha":626,"x_min":0,"x_max":0,"o":"m 401 828 b 254 713 303 828 274 815 b 357 576 233 599 264 576 b 507 694 456 576 488 590 b 401 828 526 806 497 828 z m 250 550 l 233 478 b 129 381 219 435 176 411 b -14 181 71 343 6 294 l -35 67 b 215 -199 -64 -97 24 -199 b 536 39 401 -199 510 -111 l 568 225 l 336 225 l 307 56 b 243 -6 300 18 288 -6 b 197 60 207 -6 189 14 l 221 189 b 310 274 228 226 267 247 b 447 451 367 308 431 351 b 453 494 449 460 453 483 l 461 550 b 351 533 443 542 411 533 b 250 550 293 533 267 542 z "},"‽":{"ha":676,"x_min":0,"x_max":0,"o":"m 397 274 l 414 335 b 543 457 431 394 485 422 b 694 643 608 496 676 540 l 713 744 b 444 1015 742 910 654 1015 b 86 744 224 1015 114 901 l 60 597 l 257 597 l 282 739 b 336 832 290 782 307 813 l 308 672 b 254 329 279 504 261 383 b 251 274 251 301 250 285 b 326 283 269 281 292 283 b 397 274 360 283 381 281 z m 468 672 l 497 835 b 517 746 518 819 524 792 l 499 649 b 460 575 492 613 479 590 b 447 565 456 572 451 568 b 468 672 456 601 463 638 z m 278 -11 b 425 104 376 -11 406 1 b 322 240 446 218 415 240 b 172 122 224 240 192 226 b 278 -11 153 11 182 -11 z "},"⸘":{"ha":676,"x_min":0,"x_max":0,"o":"m 401 826 b 254 711 303 826 274 814 b 357 575 233 597 264 575 b 507 693 456 575 488 589 b 401 826 526 804 497 826 z m 235 -200 b 593 71 456 -200 565 -86 l 619 218 l 422 218 l 397 76 b 343 -17 389 33 372 3 l 371 143 b 425 486 400 311 418 432 b 428 542 428 514 429 531 b 353 532 410 535 388 532 b 282 542 319 532 299 535 l 265 481 b 136 358 249 421 194 393 b -15 172 71 319 3 275 l -33 71 b 235 -200 -62 -94 25 -200 z m 163 69 l 181 167 b 219 240 188 203 200 225 b 232 250 224 243 228 247 b 211 143 224 214 217 178 l 182 -19 b 163 69 161 -4 156 24 z "},"‘":{"ha":317,"x_min":0,"x_max":0,"o":"m 201 607 b 331 731 283 607 313 638 b 249 854 347 835 315 854 l 243 854 b 347 919 258 899 290 918 l 364 1014 b 103 764 217 1014 133 928 b 201 607 81 640 118 607 z "},"’":{"ha":317,"x_min":0,"x_max":0,"o":"m 97 603 b 358 853 244 603 328 689 b 260 1010 381 976 343 1010 b 131 886 178 1010 149 979 b 213 763 114 782 146 763 l 218 763 b 114 697 203 718 171 699 z "},"“":{"ha":604,"x_min":0,"x_max":0,"o":"m 493 607 b 622 731 575 607 604 638 b 540 854 639 835 607 854 l 535 854 b 639 919 550 899 582 918 l 656 1014 b 394 764 508 1014 425 928 b 493 607 372 640 410 607 z m 206 607 b 335 731 288 607 317 638 b 253 854 351 835 319 854 l 247 854 b 351 919 263 899 294 918 l 368 1014 b 107 764 221 1014 138 928 b 206 607 85 640 122 607 z "},"”":{"ha":604,"x_min":0,"x_max":0,"o":"m 93 603 b 354 853 240 603 324 689 b 256 1010 376 976 339 1010 b 126 886 174 1010 144 979 b 208 763 110 782 142 763 l 214 763 b 110 697 199 718 167 699 z m 381 603 b 642 853 528 603 611 689 b 543 1010 664 976 626 1010 b 414 886 461 1010 432 979 b 496 763 397 782 429 763 l 501 763 b 397 697 486 718 454 699 z "},"‚":{"ha":317,"x_min":0,"x_max":0,"o":"m -42 -169 b 219 81 106 -169 189 -83 b 121 238 242 204 204 238 b -8 114 39 238 10 207 b 74 -10 -25 10 7 -10 l 79 -10 b -25 -75 64 -54 32 -74 z "},"„":{"ha":604,"x_min":0,"x_max":0,"o":"m 246 -169 b 507 81 393 -169 476 -83 b 408 238 529 204 492 238 b 279 114 326 238 297 207 b 361 -10 263 10 294 -10 l 367 -10 b 263 -75 351 -54 319 -74 z m -42 -169 b 219 81 106 -169 189 -83 b 121 238 242 204 204 238 b -8 114 39 238 10 207 b 74 -10 -25 10 7 -10 l 79 -10 b -25 -75 64 -54 32 -74 z "},"‛":{"ha":317,"x_min":0,"x_max":0,"o":"m 308 700 b 232 768 251 701 231 722 b 246 767 236 767 242 767 b 358 876 310 767 342 790 b 268 1010 378 974 350 1010 b 126 853 182 1010 149 968 b 292 603 97 690 149 603 z "},"‟":{"ha":604,"x_min":0,"x_max":0,"o":"m 308 700 b 232 768 251 701 231 722 b 246 767 236 767 242 767 b 358 876 310 767 342 790 b 268 1010 378 974 350 1010 b 126 853 182 1010 149 968 b 292 603 97 690 149 603 z m 597 700 b 521 768 540 701 519 722 b 535 767 525 767 531 767 b 647 876 599 767 631 790 b 557 1010 667 974 639 1010 b 415 853 471 1010 438 968 b 581 603 386 690 438 603 z "},"‹":{"ha":433,"x_min":0,"x_max":0,"o":"m 364 151 l 238 406 l 467 688 l 247 688 l 39 421 l 36 408 l 156 151 z "},"›":{"ha":433,"x_min":0,"x_max":0,"o":"m 192 151 l 401 408 l 404 421 l 290 688 l 92 688 l 206 439 l -37 151 z "},"«":{"ha":701,"x_min":0,"x_max":0,"o":"m 600 151 l 489 393 l 736 688 l 543 688 l 318 418 l 314 397 l 426 151 z m 335 151 l 213 417 l 442 688 l 247 688 l 38 433 l 35 421 l 158 151 z "},"»":{"ha":701,"x_min":0,"x_max":0,"o":"m 157 151 l 382 421 l 386 442 l 274 688 l 100 688 l 210 451 l -43 151 z m 453 151 l 663 406 l 665 418 l 542 688 l 365 688 l 486 428 l 251 151 z "},"/":{"ha":458,"x_min":0,"x_max":0,"o":"m -72 0 l 175 0 l 565 1000 l 319 1000 z "},"\\":{"ha":458,"x_min":0,"x_max":0,"o":"m 111 1000 l 142 0 l 383 0 l 353 1000 z "},"|":{"ha":331,"x_min":0,"x_max":0,"o":"m 196 -69 l 394 1061 l 169 1061 l -29 -69 z "},"‖":{"ha":593,"x_min":0,"x_max":0,"o":"m 250 -53 l 461 -53 l 657 1061 l 446 1061 z m -26 -53 l 185 -53 l 381 1061 l 169 1061 z "},"¦":{"ha":331,"x_min":0,"x_max":0,"o":"m 79 546 l 304 546 l 394 1061 l 169 1061 z m 67 474 l -29 -69 l 196 -69 l 292 474 z "},"•":{"ha":479,"x_min":0,"x_max":0,"o":"m 217 253 b 393 400 328 253 371 279 b 267 574 418 539 369 574 b 90 421 156 574 113 543 b 217 253 68 296 108 253 z "},"·":{"ha":347,"x_min":0,"x_max":0,"o":"m 153 274 b 300 403 250 274 281 297 b 197 554 322 524 288 554 b 50 421 100 554 69 528 b 153 274 31 311 58 274 z "},"-":{"ha":497,"x_min":0,"x_max":0,"o":"m 22 310 l 444 310 l 482 525 l 60 525 z "},"­":{"ha":497,"x_min":0,"x_max":0,"o":"m 22 310 l 444 310 l 482 525 l 60 525 z "},"–":{"ha":465,"x_min":0,"x_max":0,"o":"m 22 310 l 413 310 l 450 525 l 60 525 z "},"—":{"ha":646,"x_min":0,"x_max":0,"o":"m 22 310 l 593 310 l 631 525 l 60 525 z "},"‒":{"ha":667,"x_min":0,"x_max":0,"o":"m 22 310 l 614 310 l 651 525 l 60 525 z "},"―":{"ha":840,"x_min":0,"x_max":0,"o":"m 22 310 l 788 310 l 825 525 l 60 525 z "},"(":{"ha":414,"x_min":0,"x_max":0,"o":"m 296 -211 l 335 8 b 232 181 233 8 208 53 l 313 638 b 475 804 335 765 374 804 l 513 1018 b 81 667 240 1018 128 935 l -1 201 b 296 -211 -53 -89 24 -211 z "},")":{"ha":414,"x_min":0,"x_max":0,"o":"m -96 -212 b 336 139 189 -212 289 -129 l 418 604 b 121 1017 469 903 385 1017 l 83 804 b 185 632 185 804 208 760 l 104 175 b -57 8 82 47 44 8 z "},"[":{"ha":410,"x_min":0,"x_max":0,"o":"m 321 -21 l 196 -21 l 344 825 l 469 825 l 503 1015 l 151 1015 l -64 -211 l 288 -211 z "},"]":{"ha":410,"x_min":0,"x_max":0,"o":"m 260 -211 l 475 1015 l 124 1015 l 90 825 l 217 825 l 68 -21 l -58 -21 l -90 -211 z "},"{":{"ha":450,"x_min":0,"x_max":0,"o":"m 331 -211 l 361 -32 l 308 -32 b 253 28 263 -32 246 -12 b 367 261 264 92 350 167 b 247 390 381 343 351 389 l 251 415 b 415 543 356 417 401 461 b 382 786 433 639 371 724 b 461 836 389 826 418 836 l 515 836 l 546 1015 l 369 1015 b 164 851 239 1015 181 947 b 194 578 143 739 206 646 b 107 508 185 526 160 508 l 49 508 l 11 296 l 76 296 b 139 228 129 296 149 278 b 10 -29 128 160 29 83 b 161 -211 -12 -137 35 -211 z "},"}":{"ha":450,"x_min":0,"x_max":0,"o":"m -94 -211 l 82 -211 b 288 -47 213 -211 271 -143 b 250 226 308 65 239 158 b 344 296 260 278 289 296 l 403 296 l 440 508 l 379 508 b 318 576 326 508 308 526 b 442 833 329 644 422 721 b 290 1015 464 942 417 1015 l 121 1015 l 90 836 l 143 836 b 199 776 189 836 206 817 b 85 543 188 713 101 638 b 204 414 71 461 100 415 l 200 389 b 36 261 96 388 50 343 b 69 18 18 165 81 81 b -10 -32 63 -22 33 -32 l -64 -32 z "},"〈":{"ha":417,"x_min":0,"x_max":0,"o":"m 314 -211 l 239 389 l 544 1015 l 307 1015 l 18 413 l 88 -211 z "},"〉":{"ha":417,"x_min":0,"x_max":0,"o":"m 115 -211 l 404 413 l 328 1015 l 104 1015 l 185 438 l -126 -211 z "},"*":{"ha":554,"x_min":0,"x_max":0,"o":"m 479 638 l 597 793 l 429 833 l 613 875 l 547 1031 l 406 903 l 486 1069 l 304 1069 l 326 900 l 228 1029 l 111 872 l 278 833 l 97 792 l 160 636 l 303 765 l 221 596 l 403 596 l 381 765 z "},"†":{"ha":664,"x_min":0,"x_max":0,"o":"m 658 578 l 699 806 l 518 806 l 574 1122 l 349 1122 l 293 806 l 110 806 l 69 578 l 253 578 l 129 -122 l 354 -122 l 478 578 z "},"‡":{"ha":664,"x_min":0,"x_max":0,"o":"m 590 194 l 629 417 l 449 417 l 482 599 l 661 599 l 701 819 l 521 819 l 574 1122 l 349 1122 l 296 819 l 113 819 l 72 599 l 257 599 l 224 417 l 40 417 l 1 194 l 185 194 l 129 -122 l 354 -122 l 410 194 z "},"§":{"ha":742,"x_min":0,"x_max":0,"o":"m 408 432 b 268 551 329 472 260 501 b 314 597 275 586 285 596 b 382 561 336 583 360 572 b 514 442 458 524 525 494 b 479 393 510 413 501 399 b 408 432 456 408 432 421 z m 319 -86 b 601 126 486 -86 572 -6 l 603 135 b 560 325 619 218 599 279 l 571 325 b 740 472 650 325 721 372 b 551 729 767 619 653 682 b 410 850 472 768 400 796 b 463 894 415 881 432 894 b 507 831 500 894 514 869 l 500 794 l 715 794 l 719 814 b 472 1063 747 981 654 1063 b 193 857 299 1063 215 968 l 192 851 b 233 663 175 767 196 707 b 211 664 226 664 219 664 b 39 517 132 664 58 617 b 233 264 13 372 129 311 b 385 139 318 226 394 196 b 329 92 378 106 361 92 b 282 158 289 92 275 118 l 290 201 l 64 201 l 56 164 b 319 -86 25 -22 140 -86 z "},"¶":{"ha":860,"x_min":0,"x_max":0,"o":"m 488 0 l 629 810 l 688 810 l 546 0 l 744 0 l 919 1000 l 439 1000 b 78 714 232 1000 113 910 b 356 379 43 518 147 379 l 289 0 z m 381 578 b 301 692 326 578 288 610 b 411 810 317 779 357 810 l 431 810 l 390 578 z "},"^":{"ha":596,"x_min":0,"x_max":0,"o":"m 408 615 l 588 615 l 486 996 l 318 996 l 88 615 l 278 615 l 375 801 z "},"~":{"ha":557,"x_min":0,"x_max":0,"o":"m 118 728 l 249 728 b 282 782 254 764 263 782 b 429 724 322 782 356 724 b 594 944 519 724 565 774 l 464 944 b 429 896 458 910 449 896 b 285 950 397 896 357 950 b 118 728 189 950 147 894 z "},"_":{"ha":631,"x_min":0,"x_max":0,"o":"m -90 -256 l 492 -256 l 524 -74 l -60 -74 z "},"'":{"ha":264,"x_min":0,"x_max":0,"o":"m 104 660 l 250 660 b 333 975 271 713 311 850 l 338 1000 l 139 1000 l 135 975 b 104 660 113 850 103 711 z "},"\"":{"ha":515,"x_min":0,"x_max":0,"o":"m 358 660 l 503 660 b 586 975 524 713 564 850 l 590 1000 l 392 1000 l 388 975 b 358 660 365 850 356 711 z m 104 660 l 250 660 b 333 975 271 713 311 850 l 338 1000 l 139 1000 l 135 975 b 104 660 113 850 103 711 z "},"‴":{"ha":769,"x_min":0,"x_max":0,"o":"m 611 660 l 757 660 b 840 975 778 713 818 850 l 844 1000 l 646 1000 l 642 975 b 611 660 619 850 610 711 z m 358 660 l 503 660 b 586 975 524 713 564 850 l 590 1000 l 392 1000 l 388 975 b 358 660 365 850 356 711 z m 104 660 l 250 660 b 333 975 271 713 311 850 l 338 1000 l 139 1000 l 135 975 b 104 660 113 850 103 711 z "},"@":{"ha":794,"x_min":0,"x_max":0,"o":"m 319 -129 b 669 53 488 -129 592 -74 l 489 53 b 338 -6 457 15 422 -6 b 140 289 172 -6 104 86 l 201 635 b 463 889 233 811 315 889 b 681 633 642 889 711 808 l 629 342 b 571 207 608 226 594 207 b 560 283 550 207 550 224 l 649 785 l 544 785 l 510 738 b 414 793 500 765 465 793 b 250 613 333 793 274 747 l 193 288 b 308 85 167 138 218 85 b 421 150 369 85 404 119 b 557 85 440 108 486 85 b 758 331 685 85 729 161 l 808 607 b 476 1011 857 872 706 1011 b 72 651 278 1011 117 899 l 11 297 b 319 -129 -40 0 89 -129 z m 364 211 b 340 282 335 211 332 232 l 396 596 b 444 668 404 646 415 668 b 467 596 472 668 475 646 l 411 282 b 364 211 403 232 392 211 z "},"©":{"ha":849,"x_min":0,"x_max":0,"o":"m 376 -17 b 814 379 629 -17 764 114 l 850 582 b 507 1011 899 868 726 1011 b 68 610 299 1011 117 899 l 32 404 b 376 -17 -15 138 129 -17 z m 392 135 b 185 400 232 135 154 235 l 219 601 b 489 860 250 779 363 860 b 700 594 633 860 733 781 l 663 388 b 392 135 632 218 556 135 z m 397 172 b 624 386 531 172 603 246 l 635 451 l 471 451 l 457 372 b 418 324 449 336 439 324 b 393 385 394 324 386 338 l 433 615 b 481 681 444 667 454 681 b 503 631 503 681 508 660 l 489 553 l 653 553 l 663 604 b 488 826 683 760 621 826 b 265 613 371 826 292 751 b 229 399 265 611 229 399 b 397 172 207 263 260 172 z "},"®":{"ha":553,"x_min":0,"x_max":0,"o":"m 314 524 b 571 757 449 524 543 608 b 369 1008 600 925 499 1008 b 111 771 251 1008 139 942 b 314 524 83 615 168 524 z m 322 613 b 200 769 221 613 183 672 b 360 919 218 875 275 919 b 481 763 450 919 499 874 b 322 613 463 667 415 613 z m 356 822 b 372 806 369 822 375 815 b 350 789 371 796 364 789 l 335 789 l 340 822 z m 331 724 b 347 701 346 724 353 719 l 342 667 b 346 653 340 661 342 654 l 426 653 b 422 665 424 654 421 660 l 429 706 b 415 753 433 731 428 744 b 453 801 435 763 449 778 b 372 885 463 861 424 885 l 272 885 l 233 653 l 313 653 l 325 724 z "},"℗":{"ha":849,"x_min":0,"x_max":0,"o":"m 376 -17 b 814 379 629 -17 764 114 l 850 582 b 507 1011 899 868 726 1011 b 68 610 299 1011 117 899 l 32 404 b 376 -17 -15 138 129 -17 z m 392 135 b 185 400 226 135 154 226 l 219 601 b 489 860 250 792 338 860 b 700 594 633 860 733 781 l 663 388 b 392 135 632 218 556 135 z m 478 683 b 510 644 506 683 515 674 l 489 521 b 442 479 483 489 472 479 l 426 479 l 463 683 z m 432 353 b 633 499 564 353 617 404 l 657 632 b 513 806 676 736 636 806 l 338 806 l 231 188 l 375 188 l 404 353 z "},"™":{"ha":667,"x_min":0,"x_max":0,"o":"m 351 885 l 371 1000 l 126 1000 l 107 885 l 169 885 l 115 578 l 235 578 l 289 885 z m 501 668 l 515 668 l 581 767 l 549 578 l 657 578 l 731 1000 l 626 1000 l 540 850 l 506 1000 l 401 1000 l 328 578 l 435 578 l 468 772 z "},"℠":{"ha":692,"x_min":0,"x_max":0,"o":"m 526 668 l 540 668 l 606 767 l 574 578 l 682 578 l 756 1000 l 651 1000 l 565 850 l 531 1000 l 426 1000 l 353 578 l 460 578 l 493 772 z m 192 568 b 335 675 276 568 322 601 l 340 707 b 274 838 356 789 321 817 b 224 881 229 857 221 863 l 228 906 b 249 925 231 918 239 925 b 263 901 263 925 265 917 l 256 863 l 365 863 b 372 900 367 867 372 900 b 261 1011 385 975 344 1011 b 117 907 171 1011 129 976 l 113 885 b 181 764 100 819 131 785 b 231 724 211 750 233 740 l 224 683 b 204 664 221 669 215 664 b 188 689 190 664 183 669 l 196 736 l 82 736 l 74 686 b 192 568 60 610 94 568 z "},"€":{"ha":704,"x_min":0,"x_max":0,"o":"m 657 300 l 664 340 l 421 340 l 414 301 b 342 194 400 222 386 194 b 307 303 301 194 293 225 l 321 381 l 504 381 l 553 492 l 340 492 l 346 528 l 572 528 l 621 639 l 367 639 l 378 706 b 450 814 392 783 406 814 b 485 706 494 814 499 785 l 481 682 l 724 682 l 725 690 b 468 1015 767 915 654 1015 b 136 683 297 1015 176 933 l 128 639 l 61 639 l 42 528 l 108 528 l 103 492 l 35 492 l 15 381 l 82 381 l 76 346 b 338 -15 38 115 108 -15 b 657 300 535 -15 619 88 z "},"$":{"ha":603,"x_min":0,"x_max":0,"o":"m 318 -136 l 340 -10 b 556 242 465 13 526 90 l 567 310 b 424 579 592 460 504 526 b 311 724 336 638 299 658 l 318 760 b 375 831 326 804 340 831 b 415 767 408 831 424 814 l 396 660 l 618 660 l 635 754 b 522 994 656 872 615 956 l 549 1144 l 333 1144 l 310 1011 b 92 769 194 990 117 919 l 83 721 b 219 451 57 563 142 503 b 333 289 286 408 349 372 l 325 246 b 267 185 318 207 306 185 b 229 258 232 185 219 201 l 250 379 l 14 379 l -4 279 b 125 -1 -29 132 1 33 l 101 -136 z "},"¢":{"ha":615,"x_min":0,"x_max":0,"o":"m 553 226 l 579 378 l 351 378 l 332 264 b 272 182 322 204 310 182 b 236 268 235 182 225 203 l 283 539 b 349 632 296 613 310 632 b 381 538 386 632 393 611 l 365 451 l 593 451 l 604 517 b 494 800 626 657 593 757 l 519 943 l 303 943 l 281 815 b 68 582 165 789 90 704 l 17 286 b 136 3 -7 147 25 43 l 111 -142 l 328 -142 l 351 -4 b 553 226 463 24 532 106 z "},"£":{"ha":696,"x_min":0,"x_max":0,"o":"m 413 -15 b 642 218 543 -15 608 31 l 658 311 l 454 311 l 440 236 b 379 158 431 179 417 158 b 332 171 363 158 347 163 b 358 271 343 200 353 235 b 368 386 365 310 368 349 l 488 386 l 513 531 l 358 531 b 347 749 350 608 333 678 b 406 819 356 803 374 819 b 442 744 436 819 451 803 l 431 682 l 647 682 l 660 754 b 422 1015 688 917 606 1015 b 140 785 239 1015 163 917 b 172 531 121 676 147 600 l 86 531 l 61 386 l 213 386 b 231 250 228 344 240 301 b 228 235 229 244 229 239 b 114 263 197 250 161 263 b -39 142 40 263 -24 226 b 103 -14 -54 46 -12 -14 b 250 44 157 -14 208 7 b 413 -15 293 13 346 -15 z m 111 103 b 89 126 96 103 86 113 b 115 147 90 139 101 147 b 167 119 131 147 147 136 b 111 103 150 108 132 103 z "},"ƒ":{"ha":461,"x_min":0,"x_max":0,"o":"m 263 -35 l 328 332 l 432 332 l 468 539 l 364 539 l 408 789 b 464 842 415 831 428 842 l 521 842 l 556 1033 l 463 1033 b 192 813 296 1033 219 975 l 143 539 l 43 539 l 7 332 l 107 332 l 46 -11 b -11 -64 39 -53 25 -64 l -64 -64 l -96 -256 l -8 -256 b 263 -35 158 -256 233 -197 z "},"¥":{"ha":604,"x_min":0,"x_max":0,"o":"m 501 199 l 528 349 l 410 349 l 418 396 l 536 396 l 563 547 l 463 547 l 717 1000 l 481 1000 l 361 781 l 328 1000 l 99 1000 l 188 547 l 96 547 l 69 396 l 182 396 l 174 349 l 61 349 l 35 199 l 147 199 l 113 0 l 349 0 l 383 199 z "},"₡":{"ha":731,"x_min":0,"x_max":0,"o":"m 179 -158 l 293 -158 l 347 -15 b 685 307 533 -3 644 93 l 708 440 l 465 440 l 444 317 b 331 196 428 232 396 196 b 258 332 260 196 240 233 l 317 665 b 433 806 333 763 364 806 b 508 685 507 806 524 767 l 490 581 l 732 581 l 754 706 b 671 951 775 818 740 900 l 738 1136 l 626 1136 l 575 996 b 535 1004 561 1000 549 1003 l 583 1136 l 471 1136 l 425 1010 b 85 681 242 1000 122 894 l 21 319 b 100 40 -3 188 29 94 l 26 -158 l 139 -158 l 197 -4 b 236 -12 210 -7 222 -10 z "},"₢":{"ha":725,"x_min":0,"x_max":0,"o":"m 683 260 l 703 372 l 501 372 l 488 296 b 414 167 474 221 456 182 l 446 346 b 531 419 458 410 465 419 l 631 419 l 664 611 l 619 611 b 463 513 531 611 488 579 l 453 610 l 322 610 l 246 176 b 225 335 214 201 211 250 l 281 650 b 439 824 303 778 346 824 b 544 686 526 824 563 779 l 539 656 l 749 656 l 753 685 b 454 1006 783 858 692 1006 b 81 660 240 1006 119 897 l 28 360 b 329 -17 -17 117 100 -17 b 683 260 522 -17 646 58 z "},"₣":{"ha":533,"x_min":0,"x_max":0,"o":"m 454 172 l 485 346 l 261 346 l 274 418 l 499 418 l 529 593 l 304 593 l 339 792 l 572 792 l 608 1000 l 151 1000 l -24 0 l 200 0 l 231 172 z "},"₤":{"ha":696,"x_min":0,"x_max":0,"o":"m 413 -15 b 642 218 543 -15 608 31 l 658 311 l 454 311 l 440 236 b 379 158 431 179 417 158 b 332 171 363 158 347 163 b 358 271 343 200 353 235 b 367 363 364 303 365 332 l 486 363 l 506 471 l 360 471 b 356 515 358 486 357 500 l 514 515 l 532 624 l 343 624 b 347 749 339 665 339 707 b 406 819 356 803 374 819 b 442 744 436 819 451 803 l 431 682 l 647 682 l 660 754 b 422 1015 688 917 606 1015 b 140 785 239 1015 164 917 b 144 624 131 726 135 674 l 72 624 l 54 515 l 176 515 b 193 471 182 500 188 486 l 46 471 l 26 363 l 226 363 b 231 250 235 325 238 288 b 228 235 229 244 229 239 b 114 263 197 250 161 263 b -39 142 40 263 -24 226 b 103 -14 -54 46 -12 -14 b 250 44 157 -14 208 7 b 413 -15 293 13 346 -15 z m 111 103 b 89 126 96 103 86 113 b 115 147 90 139 101 147 b 167 119 131 147 147 136 b 111 103 150 108 132 103 z "},"₦":{"ha":868,"x_min":0,"x_max":0,"o":"m 351 544 l 361 649 l 365 565 l 468 0 l 681 0 l 742 346 l 850 346 l 874 476 l 764 476 l 772 526 l 882 526 l 906 657 l 796 657 l 856 1000 l 644 1000 l 553 475 l 535 346 l 533 443 l 436 1000 l 219 1000 l 160 657 l 56 657 l 32 526 l 136 526 l 128 476 l 24 476 l 0 346 l 106 346 l 44 0 l 256 0 z "},"₧":{"ha":1621,"x_min":0,"x_max":0,"o":"m 386 810 b 439 740 432 810 447 788 l 411 579 b 332 506 403 528 381 506 l 286 506 l 339 810 z m 308 307 b 633 543 521 307 606 392 l 642 592 l 738 592 l 675 238 b 864 0 642 51 690 0 l 1283 0 b 1574 226 1476 0 1549 79 l 1575 232 b 1426 489 1603 389 1508 446 b 1313 603 1361 522 1303 546 b 1368 651 1317 631 1331 651 b 1411 592 1406 651 1418 631 l 1401 542 l 1613 542 l 1618 572 b 1379 824 1649 747 1565 824 b 1097 618 1210 824 1119 729 l 1096 613 b 1233 357 1064 456 1151 400 b 1346 235 1297 322 1357 297 b 1275 190 1340 203 1314 190 l 953 190 b 896 278 903 190 882 197 l 951 592 l 1051 592 l 1090 813 l 989 813 l 1015 960 l 857 960 b 826 885 849 931 840 910 b 767 819 810 854 793 835 b 672 800 743 807 697 803 b 431 1000 669 924 597 1000 l 149 1000 l -26 0 l 197 0 l 251 307 z "},"₨":{"ha":1190,"x_min":0,"x_max":0,"o":"m 383 810 b 433 746 429 810 442 792 l 411 618 b 340 561 404 578 386 561 l 289 561 l 332 810 z m 297 360 b 385 269 353 360 361 321 l 417 194 b 743 0 474 56 550 0 l 861 0 b 1151 226 1054 0 1126 79 l 1153 232 b 1006 488 1181 389 1088 446 b 890 603 940 521 881 546 b 946 651 894 631 908 651 b 989 592 983 651 996 631 l 979 542 l 1190 542 l 1196 572 b 957 824 1226 747 1143 824 b 675 618 788 824 697 729 l 674 613 b 814 356 640 453 732 397 b 924 235 878 322 935 296 b 853 190 918 203 892 190 l 796 190 b 635 271 721 190 671 197 l 601 338 b 501 454 571 400 549 436 b 629 604 582 474 614 517 l 651 732 b 432 1000 683 914 618 1000 l 149 1000 l -26 0 l 190 0 l 254 360 z "},"₩":{"ha":926,"x_min":0,"x_max":0,"o":"m 454 429 l 488 564 l 472 429 l 471 0 l 654 0 l 774 346 l 911 346 l 935 476 l 819 476 l 836 526 l 943 526 l 967 657 l 882 657 l 1000 1000 l 807 1000 l 661 535 l 621 368 l 633 533 l 639 1000 l 490 1000 l 326 533 l 278 375 l 300 535 l 324 1000 l 138 1000 l 131 657 l 47 657 l 24 526 l 128 526 l 128 476 l 15 476 l -8 346 l 125 346 l 118 0 l 303 0 z "},"₪":{"ha":1003,"x_min":0,"x_max":0,"o":"m 417 829 b 571 610 542 829 600 778 l 503 224 l 531 224 b 721 389 633 224 697 258 l 761 617 b 460 1000 807 865 658 1000 l 151 1000 l -24 0 l 168 0 l 314 829 z m 557 0 b 957 361 788 0 917 131 l 1069 1000 l 876 1000 l 774 411 b 538 176 742 236 664 176 l 442 176 b 518 614 456 257 517 606 b 390 783 543 749 506 783 l 357 783 l 219 0 z "},"₮":{"ha":578,"x_min":0,"x_max":0,"o":"m 500 369 l 521 483 l 411 449 l 421 504 l 531 539 l 550 653 l 440 618 l 472 793 l 622 793 l 658 1000 l 131 1000 l 94 793 l 246 793 l 201 543 l 89 507 l 68 393 l 181 429 l 171 374 l 58 338 l 39 224 l 151 260 l 106 0 l 332 0 l 390 335 z "},"₱":{"ha":706,"x_min":0,"x_max":0,"o":"m 406 828 b 486 728 465 828 490 783 l 343 728 l 360 828 z m 460 581 l 317 581 l 325 629 l 468 629 z m 442 478 b 326 381 431 410 392 381 l 282 381 l 300 482 l 443 482 z m 308 203 b 650 456 514 203 622 285 l 654 482 l 714 482 l 731 581 l 672 581 l 681 629 l 739 629 l 757 728 l 697 728 b 447 1000 710 868 642 1000 l 182 1000 l 135 728 l 71 728 l 53 629 l 117 629 l 108 581 l 44 581 l 28 482 l 92 482 l 7 0 l 215 0 l 251 203 z "},"฿":{"ha":729,"x_min":0,"x_max":0,"o":"m 296 606 l 333 819 l 389 819 l 351 606 z m 536 769 l 515 661 b 454 606 508 624 489 607 l 492 819 b 536 769 525 819 542 801 z m 224 194 l 264 419 l 318 419 l 279 194 z m 467 358 l 449 260 b 382 194 440 214 424 196 l 421 419 b 467 358 463 417 475 401 z m 397 0 b 674 233 579 0 644 72 l 692 332 b 626 517 708 431 686 488 b 739 678 692 542 725 590 l 753 763 b 524 1000 781 925 697 997 l 539 1088 l 436 1088 l 421 1000 l 149 1000 l -26 0 l 244 0 l 226 -101 l 329 -101 l 347 0 z "},"#":{"ha":899,"x_min":0,"x_max":0,"o":"m 499 403 l 388 403 l 444 610 l 556 610 z m 389 0 l 604 0 l 663 214 l 813 214 l 846 403 l 714 403 l 771 610 l 911 610 l 944 799 l 822 799 l 876 1000 l 661 1000 l 607 799 l 496 799 l 550 1000 l 335 1000 l 281 799 l 128 799 l 94 610 l 229 610 l 172 403 l 29 403 l -4 214 l 121 214 l 63 0 l 278 0 l 336 214 l 447 214 z "},"⁰":{"ha":378,"x_min":0,"x_max":0,"o":"m 218 490 b 392 660 322 490 371 542 l 422 831 b 283 1008 444 950 378 1008 b 108 842 189 1008 131 960 l 78 672 b 218 490 57 557 99 490 z m 225 608 b 208 658 207 608 203 624 l 240 842 b 275 893 247 878 254 893 b 292 842 294 893 299 878 l 260 658 b 225 608 253 622 244 608 z "},"¹":{"ha":319,"x_min":0,"x_max":0,"o":"m 313 500 l 333 622 l 265 622 l 332 1000 l 228 1000 b 131 924 210 951 176 926 l 114 826 l 172 826 l 136 622 l 63 622 l 42 500 z "},"²":{"ha":365,"x_min":0,"x_max":0,"o":"m 353 500 l 375 624 l 200 624 b 303 694 217 653 260 671 b 414 832 351 722 401 758 l 421 869 b 278 1008 436 956 383 1008 b 111 879 175 1008 124 956 l 97 803 l 232 803 l 243 865 b 271 897 247 886 254 897 b 289 871 288 897 292 885 l 282 833 b 178 750 275 794 228 778 b 63 606 128 724 76 686 l 44 500 z "},"³":{"ha":360,"x_min":0,"x_max":0,"o":"m 207 489 b 371 610 318 489 358 540 l 381 667 b 343 757 389 715 374 743 b 404 832 376 768 397 790 l 413 875 b 275 1007 428 956 382 1007 b 111 883 174 1007 125 958 b 101 831 111 883 103 836 l 229 831 l 235 868 b 263 892 239 886 246 892 b 282 865 281 892 285 881 l 275 824 b 246 803 272 808 264 803 l 206 803 l 188 703 l 226 703 b 250 683 246 703 253 699 l 242 635 b 215 608 239 619 231 608 b 196 642 196 608 192 617 l 201 676 l 71 676 b 63 632 69 672 65 649 b 207 489 44 539 86 489 z "},"⁴":{"ha":375,"x_min":0,"x_max":0,"o":"m 236 685 l 190 685 l 250 765 z m 383 576 l 403 685 l 354 685 l 410 1000 l 292 1000 l 65 671 l 49 576 l 218 576 l 204 500 l 322 500 l 336 576 z "},"⁵":{"ha":368,"x_min":0,"x_max":0,"o":"m 208 490 b 376 619 313 490 361 536 l 393 714 b 294 846 414 811 368 846 b 232 821 267 846 247 836 l 251 889 l 299 889 b 429 994 396 889 414 904 l 431 1000 l 167 1000 l 92 746 l 208 714 l 214 725 b 242 742 219 735 229 742 b 260 717 257 742 263 733 l 246 635 b 219 608 243 619 236 608 b 204 638 206 608 200 617 l 213 683 l 79 683 l 72 644 b 208 490 54 544 93 490 z "},"⁶":{"ha":374,"x_min":0,"x_max":0,"o":"m 382 617 l 394 685 b 311 799 407 753 381 799 b 226 761 272 799 244 783 l 242 850 b 275 897 247 882 257 897 b 293 872 289 897 296 888 l 285 825 l 415 825 l 421 860 b 286 1008 435 949 400 1008 b 108 853 186 1008 128 958 l 75 665 b 222 490 54 547 100 490 b 382 617 318 490 368 540 z m 225 604 b 207 656 204 604 200 618 l 215 704 b 244 714 224 711 233 714 b 265 686 260 714 269 706 l 256 631 b 225 604 253 615 244 604 z "},"⁷":{"ha":336,"x_min":0,"x_max":0,"o":"m 208 500 b 401 893 258 658 318 771 l 421 1000 l 125 1000 l 103 876 l 261 876 b 60 500 190 775 117 657 z "},"⁸":{"ha":375,"x_min":0,"x_max":0,"o":"m 210 490 b 381 613 322 490 367 538 l 389 657 b 356 760 400 713 386 744 b 417 842 388 772 408 797 l 422 872 b 289 1008 439 963 388 1008 b 121 892 186 1008 133 963 l 114 853 b 143 761 104 801 117 775 b 76 681 107 747 83 721 l 67 628 b 210 490 50 536 94 490 z m 236 829 l 244 878 b 274 901 247 892 254 901 b 294 869 292 901 299 892 l 288 829 b 257 807 285 814 274 807 b 236 829 240 807 233 814 z m 222 606 b 200 636 203 606 194 611 l 208 685 b 242 714 211 704 221 714 b 267 690 263 714 269 706 l 256 631 b 222 606 253 613 242 606 z "},"⁹":{"ha":378,"x_min":0,"x_max":0,"o":"m 251 783 b 231 811 236 783 226 792 l 240 867 b 272 897 243 886 253 897 b 292 844 293 897 299 882 l 283 794 b 251 783 275 788 264 783 z m 210 489 b 388 644 318 489 368 539 l 421 832 b 274 1007 442 950 388 1007 b 114 881 178 1007 128 957 l 101 813 b 185 699 89 744 115 699 b 274 740 226 699 256 715 l 257 647 b 224 600 251 615 242 600 b 206 625 210 600 203 610 l 215 678 l 76 678 l 69 638 b 210 489 56 549 92 489 z "},"⁺":{"ha":338,"x_min":0,"x_max":0,"o":"m 353 694 l 374 813 l 299 813 l 313 892 l 196 892 l 182 813 l 107 813 l 86 694 l 161 694 l 147 615 l 264 615 l 278 694 z "},"⁻":{"ha":338,"x_min":0,"x_max":0,"o":"m 86 692 l 353 692 l 375 815 l 108 815 z "},"⁼":{"ha":335,"x_min":0,"x_max":0,"o":"m 110 768 l 353 768 l 371 872 l 128 872 z m 85 629 l 328 629 l 346 733 l 103 733 z "},"⁽":{"ha":269,"x_min":0,"x_max":0,"o":"m 235 390 l 260 538 b 213 644 210 540 197 563 l 247 840 b 335 958 261 924 282 953 l 358 1093 b 117 867 224 1088 147 1040 l 78 647 b 235 390 46 461 103 396 z "},"⁾":{"ha":269,"x_min":0,"x_max":0,"o":"m 29 390 b 271 617 164 396 240 443 l 310 836 b 153 1093 342 1022 285 1088 l 128 946 b 175 839 178 943 190 921 l 140 643 b 53 525 126 560 106 531 z "},"₀":{"ha":378,"x_min":0,"x_max":0,"o":"m 132 -10 b 306 160 236 -10 285 42 l 336 331 b 197 508 358 450 292 508 b 22 342 103 508 44 460 l -8 172 b 132 -10 -29 57 13 -10 z m 139 108 b 122 158 121 108 117 124 l 154 342 b 189 393 161 378 168 393 b 206 342 208 393 213 378 l 174 158 b 139 108 167 122 158 108 z "},"₁":{"ha":319,"x_min":0,"x_max":0,"o":"m 226 0 l 247 122 l 179 122 l 246 500 l 142 500 b 44 424 124 451 90 426 l 28 326 l 86 326 l 50 122 l -24 122 l -44 0 z "},"₂":{"ha":367,"x_min":0,"x_max":0,"o":"m 268 0 l 290 124 l 115 124 b 218 194 132 153 175 171 b 329 332 267 222 317 258 l 336 369 b 193 508 351 456 299 508 b 26 379 90 508 39 456 l 13 303 l 147 303 l 158 365 b 186 397 163 386 169 397 b 204 371 203 397 207 385 l 197 333 b 93 250 190 294 143 278 b -22 106 43 224 -8 186 l -40 0 z "},"₃":{"ha":360,"x_min":0,"x_max":0,"o":"m 121 -11 b 285 110 232 -11 272 40 l 294 167 b 257 257 303 215 288 243 b 318 332 290 268 311 290 l 326 375 b 189 507 342 456 296 507 b 25 383 88 507 39 458 b 15 331 25 383 17 336 l 143 331 l 149 368 b 176 392 153 386 160 392 b 196 365 194 392 199 381 l 189 324 b 160 303 186 308 178 303 l 119 303 l 101 203 l 140 203 b 164 183 160 203 167 199 l 156 135 b 129 108 153 119 144 108 b 110 142 110 108 106 117 l 115 176 l -15 176 b -24 132 -17 172 -21 149 b 121 -11 -42 39 0 -11 z "},"₄":{"ha":375,"x_min":0,"x_max":0,"o":"m 150 185 l 104 185 l 164 265 z m 297 76 l 317 185 l 268 185 l 324 500 l 206 500 l -21 171 l -37 76 l 132 76 l 118 0 l 236 0 l 250 76 z "},"₅":{"ha":368,"x_min":0,"x_max":0,"o":"m 122 -10 b 290 119 226 -10 275 36 l 307 214 b 208 346 328 311 282 346 b 146 321 181 346 161 336 l 165 389 l 213 389 b 343 494 310 389 328 404 l 344 500 l 81 500 l 6 246 l 122 214 l 128 225 b 156 242 133 235 143 242 b 174 217 171 242 176 233 l 160 135 b 133 108 157 119 150 108 b 118 138 119 108 114 117 l 126 183 l -7 183 l -14 144 b 122 -10 -32 44 7 -10 z "},"₆":{"ha":374,"x_min":0,"x_max":0,"o":"m 296 117 l 308 185 b 225 299 321 253 294 299 b 140 261 186 299 158 283 l 156 350 b 189 397 161 382 171 397 b 207 372 203 397 210 388 l 199 325 l 329 325 l 335 360 b 200 508 349 449 314 508 b 22 353 100 508 42 458 l -11 165 b 136 -10 -32 47 14 -10 b 296 117 232 -10 282 40 z m 139 104 b 121 156 118 104 114 118 l 129 204 b 158 214 138 211 147 214 b 179 186 174 214 183 206 l 169 131 b 139 104 167 115 158 104 z "},"₇":{"ha":336,"x_min":0,"x_max":0,"o":"m 122 0 b 315 393 172 158 232 271 l 335 500 l 39 500 l 17 376 l 175 376 b -26 0 104 275 31 157 z "},"₈":{"ha":375,"x_min":0,"x_max":0,"o":"m 124 -10 b 294 113 236 -10 281 38 l 303 157 b 269 260 314 213 300 244 b 331 342 301 272 322 297 l 336 372 b 203 508 353 463 301 508 b 35 392 100 508 47 463 l 28 353 b 57 261 18 301 31 275 b -10 181 21 247 -3 221 l -19 128 b 124 -10 -36 36 8 -10 z m 150 329 l 158 378 b 188 401 161 392 168 401 b 208 369 206 401 213 392 l 201 329 b 171 307 199 314 188 307 b 150 329 154 307 147 314 z m 136 106 b 114 136 117 106 108 111 l 122 185 b 156 214 125 204 135 214 b 181 190 176 214 183 206 l 169 131 b 136 106 167 113 156 106 z "},"₉":{"ha":378,"x_min":0,"x_max":0,"o":"m 165 283 b 144 311 150 283 140 292 l 154 367 b 186 397 157 386 167 397 b 206 344 207 397 213 382 l 197 294 b 165 283 189 288 178 283 z m 124 -11 b 301 144 232 -11 282 39 l 335 332 b 188 507 356 450 301 507 b 28 381 92 507 42 457 l 15 313 b 99 199 3 244 29 199 b 188 240 140 199 169 215 l 171 147 b 138 100 165 115 156 100 b 119 125 124 100 117 110 l 129 178 l -10 178 l -17 138 b 124 -11 -31 49 6 -11 z "},"₊":{"ha":338,"x_min":0,"x_max":0,"o":"m 267 194 l 288 313 l 213 313 l 226 392 l 110 392 l 96 313 l 21 313 l 0 194 l 75 194 l 61 115 l 178 115 l 192 194 z "},"₋":{"ha":338,"x_min":0,"x_max":0,"o":"m 0 192 l 267 192 l 289 315 l 22 315 z "},"₌":{"ha":335,"x_min":0,"x_max":0,"o":"m 24 268 l 267 268 l 285 372 l 42 372 z m -1 129 l 242 129 l 260 233 l 17 233 z "},"₍":{"ha":269,"x_min":0,"x_max":0,"o":"m 149 -110 l 174 38 b 126 144 124 40 111 63 l 161 340 b 249 458 175 424 196 453 l 272 593 b 31 367 138 588 61 540 l -8 147 b 149 -110 -40 -39 17 -104 z "},"₎":{"ha":269,"x_min":0,"x_max":0,"o":"m -57 -110 b 185 117 78 -104 154 -57 l 224 336 b 67 593 256 522 199 588 l 42 446 b 89 339 92 443 104 421 l 54 143 b -33 25 40 60 19 31 z "},"⁄":{"ha":867,"x_min":0,"x_max":0,"o":"m 525 554 l 903 935 l 736 1039 l 485 583 z m 176 -36 l 428 440 l 392 469 l 8 78 z "},"⅟":{"ha":867,"x_min":0,"x_max":0,"o":"m 524 554 l 901 935 l 735 1039 l 483 583 z m 175 -36 l 426 440 l 390 469 l 7 78 z m 379 500 l 400 622 l 332 622 l 399 1000 l 294 1000 b 197 924 276 951 243 926 l 181 826 l 239 826 l 203 622 l 129 622 l 108 500 z "},"½":{"ha":867,"x_min":0,"x_max":0,"o":"m 524 554 l 901 935 l 735 1039 l 483 583 z m 175 -36 l 426 440 l 390 469 l 7 78 z m 379 500 l 400 622 l 332 622 l 399 1000 l 294 1000 b 197 924 276 951 243 926 l 181 826 l 239 826 l 203 622 l 129 622 l 108 500 z m 728 0 l 750 124 l 575 124 b 678 194 592 153 635 171 b 789 332 726 222 776 258 l 796 369 b 653 508 811 456 758 508 b 486 379 550 508 499 456 l 472 303 l 607 303 l 618 365 b 646 397 622 386 629 397 b 664 371 663 397 667 385 l 657 333 b 553 250 650 294 603 278 b 438 106 503 224 451 186 l 419 0 z "},"⅓":{"ha":867,"x_min":0,"x_max":0,"o":"m 524 554 l 901 935 l 735 1039 l 483 583 z m 175 -36 l 426 440 l 390 469 l 7 78 z m 379 500 l 400 622 l 332 622 l 399 1000 l 294 1000 b 197 924 276 951 243 926 l 181 826 l 239 826 l 203 622 l 129 622 l 108 500 z m 574 -11 b 738 110 685 -11 725 40 l 747 167 b 710 257 756 215 740 243 b 771 332 743 268 764 290 l 779 375 b 642 507 794 456 749 507 b 478 383 540 507 492 458 b 468 331 478 383 469 336 l 596 331 l 601 368 b 629 392 606 386 613 392 b 649 365 647 392 651 381 l 642 324 b 613 303 639 308 631 303 l 572 303 l 554 203 l 593 203 b 617 183 613 203 619 199 l 608 135 b 582 108 606 119 597 108 b 563 142 563 108 558 117 l 568 176 l 438 176 b 429 132 436 172 432 149 b 574 -11 411 39 453 -11 z "},"⅔":{"ha":867,"x_min":0,"x_max":0,"o":"m 524 554 l 901 935 l 735 1039 l 483 583 z m 175 -36 l 426 440 l 390 469 l 7 78 z m 396 500 l 418 624 l 243 624 b 346 694 260 653 303 671 b 457 832 394 722 444 758 l 464 869 b 321 1008 479 956 426 1008 b 154 879 218 1008 167 956 l 140 803 l 275 803 l 286 865 b 314 897 290 886 297 897 b 332 871 331 897 335 885 l 325 833 b 221 750 318 794 271 778 b 106 606 171 724 119 686 l 88 500 z m 574 -11 b 738 110 685 -11 725 40 l 747 167 b 710 257 756 215 740 243 b 771 332 743 268 764 290 l 779 375 b 642 507 794 456 749 507 b 478 383 540 507 492 458 b 468 331 478 383 469 336 l 596 331 l 601 368 b 629 392 606 386 613 392 b 649 365 647 392 651 381 l 642 324 b 613 303 639 308 631 303 l 572 303 l 554 203 l 593 203 b 617 183 613 203 619 199 l 608 135 b 582 108 606 119 597 108 b 563 142 563 108 558 117 l 568 176 l 438 176 b 429 132 436 172 432 149 b 574 -11 411 39 453 -11 z "},"¼":{"ha":867,"x_min":0,"x_max":0,"o":"m 524 554 l 901 935 l 735 1039 l 483 583 z m 175 -36 l 426 440 l 390 469 l 7 78 z m 579 185 l 533 185 l 593 265 z m 726 76 l 746 185 l 697 185 l 753 500 l 635 500 l 408 171 l 392 76 l 561 76 l 547 0 l 665 0 l 679 76 z m 379 500 l 400 622 l 332 622 l 399 1000 l 294 1000 b 197 924 276 951 243 926 l 181 826 l 239 826 l 203 622 l 129 622 l 108 500 z "},"¾":{"ha":867,"x_min":0,"x_max":0,"o":"m 524 554 l 901 935 l 735 1039 l 483 583 z m 175 -36 l 426 440 l 390 469 l 7 78 z m 579 185 l 533 185 l 593 265 z m 726 76 l 746 185 l 697 185 l 753 500 l 635 500 l 408 171 l 392 76 l 561 76 l 547 0 l 665 0 l 679 76 z m 243 489 b 407 610 354 489 394 540 l 417 667 b 379 757 425 715 410 743 b 440 832 413 768 433 790 l 449 875 b 311 1007 464 956 418 1007 b 147 883 210 1007 161 958 b 138 831 147 883 139 836 l 265 831 l 271 868 b 299 892 275 886 282 892 b 318 865 317 892 321 881 l 311 824 b 282 803 308 808 300 803 l 242 803 l 224 703 l 263 703 b 286 683 282 703 289 699 l 278 635 b 251 608 275 619 267 608 b 232 642 232 608 228 617 l 238 676 l 107 676 b 99 632 106 672 101 649 b 243 489 81 539 122 489 z "},"⅕":{"ha":867,"x_min":0,"x_max":0,"o":"m 524 554 l 901 935 l 735 1039 l 483 583 z m 175 -36 l 426 440 l 390 469 l 7 78 z m 575 -10 b 743 119 679 -10 728 36 l 760 214 b 661 346 781 311 735 346 b 599 321 633 346 614 336 l 618 389 l 665 389 b 796 494 763 389 781 404 l 797 500 l 533 500 l 458 246 l 575 214 l 581 225 b 608 242 586 235 596 242 b 626 217 624 242 629 233 l 613 135 b 586 108 610 119 603 108 b 571 138 572 108 567 117 l 579 183 l 446 183 l 439 144 b 575 -10 421 44 460 -10 z m 379 500 l 400 622 l 332 622 l 399 1000 l 294 1000 b 197 924 276 951 243 926 l 181 826 l 239 826 l 203 622 l 129 622 l 108 500 z "},"⅖":{"ha":867,"x_min":0,"x_max":0,"o":"m 524 554 l 901 935 l 735 1039 l 483 583 z m 175 -36 l 426 440 l 390 469 l 7 78 z m 575 -10 b 743 119 679 -10 728 36 l 760 214 b 661 346 781 311 735 346 b 599 321 633 346 614 336 l 618 389 l 665 389 b 796 494 763 389 781 404 l 797 500 l 533 500 l 458 246 l 575 214 l 581 225 b 608 242 586 235 596 242 b 626 217 624 242 629 233 l 613 135 b 586 108 610 119 603 108 b 571 138 572 108 567 117 l 579 183 l 446 183 l 439 144 b 575 -10 421 44 460 -10 z m 396 500 l 418 624 l 243 624 b 346 694 260 653 303 671 b 457 832 394 722 444 758 l 464 869 b 321 1008 479 956 426 1008 b 154 879 218 1008 167 956 l 140 803 l 275 803 l 286 865 b 314 897 290 886 297 897 b 332 871 331 897 335 885 l 325 833 b 221 750 318 794 271 778 b 106 606 171 724 119 686 l 88 500 z "},"⅗":{"ha":867,"x_min":0,"x_max":0,"o":"m 524 554 l 901 935 l 735 1039 l 483 583 z m 175 -36 l 426 440 l 390 469 l 7 78 z m 575 -10 b 743 119 679 -10 728 36 l 760 214 b 661 346 781 311 735 346 b 599 321 633 346 614 336 l 618 389 l 665 389 b 796 494 763 389 781 404 l 797 500 l 533 500 l 458 246 l 575 214 l 581 225 b 608 242 586 235 596 242 b 626 217 624 242 629 233 l 613 135 b 586 108 610 119 603 108 b 571 138 572 108 567 117 l 579 183 l 446 183 l 439 144 b 575 -10 421 44 460 -10 z m 243 489 b 407 610 354 489 394 540 l 417 667 b 379 757 425 715 410 743 b 440 832 413 768 433 790 l 449 875 b 311 1007 464 956 418 1007 b 147 883 210 1007 161 958 b 138 831 147 883 139 836 l 265 831 l 271 868 b 299 892 275 886 282 892 b 318 865 317 892 321 881 l 311 824 b 282 803 308 808 300 803 l 242 803 l 224 703 l 263 703 b 286 683 282 703 289 699 l 278 635 b 251 608 275 619 267 608 b 232 642 232 608 228 617 l 238 676 l 107 676 b 99 632 106 672 101 649 b 243 489 81 539 122 489 z "},"⅘":{"ha":867,"x_min":0,"x_max":0,"o":"m 524 554 l 901 935 l 735 1039 l 483 583 z m 175 -36 l 426 440 l 390 469 l 7 78 z m 575 -10 b 743 119 679 -10 728 36 l 760 214 b 661 346 781 311 735 346 b 599 321 633 346 614 336 l 618 389 l 665 389 b 796 494 763 389 781 404 l 797 500 l 533 500 l 458 246 l 575 214 l 581 225 b 608 242 586 235 596 242 b 626 217 624 242 629 233 l 613 135 b 586 108 610 119 603 108 b 571 138 572 108 567 117 l 579 183 l 446 183 l 439 144 b 575 -10 421 44 460 -10 z m 274 685 l 228 685 l 288 765 z m 421 576 l 440 685 l 392 685 l 447 1000 l 329 1000 l 103 671 l 86 576 l 256 576 l 242 500 l 360 500 l 374 576 z "},"⅙":{"ha":867,"x_min":0,"x_max":0,"o":"m 524 554 l 901 935 l 735 1039 l 483 583 z m 175 -36 l 426 440 l 390 469 l 7 78 z m 379 500 l 400 622 l 332 622 l 399 1000 l 294 1000 b 197 924 276 951 243 926 l 181 826 l 239 826 l 203 622 l 129 622 l 108 500 z m 742 117 l 754 185 b 671 299 767 253 740 299 b 586 261 632 299 604 283 l 601 350 b 635 397 607 382 617 397 b 653 372 649 397 656 388 l 644 325 l 775 325 l 781 360 b 646 508 794 449 760 508 b 468 353 546 508 488 458 l 435 165 b 582 -10 414 47 460 -10 b 742 117 678 -10 728 40 z m 585 104 b 567 156 564 104 560 118 l 575 204 b 604 214 583 211 593 214 b 625 186 619 214 629 206 l 615 131 b 585 104 613 115 604 104 z "},"⅚":{"ha":867,"x_min":0,"x_max":0,"o":"m 524 554 l 901 935 l 735 1039 l 483 583 z m 175 -36 l 426 440 l 390 469 l 7 78 z m 240 490 b 408 619 344 490 393 536 l 425 714 b 326 846 446 811 400 846 b 264 821 299 846 279 836 l 283 889 l 331 889 b 461 994 428 889 446 904 l 463 1000 l 199 1000 l 124 746 l 240 714 l 246 725 b 274 742 251 735 261 742 b 292 717 289 742 294 733 l 278 635 b 251 608 275 619 268 608 b 236 638 238 608 232 617 l 244 683 l 111 683 l 104 644 b 240 490 86 544 125 490 z m 742 117 l 754 185 b 671 299 767 253 740 299 b 586 261 632 299 604 283 l 601 350 b 635 397 607 382 617 397 b 653 372 649 397 656 388 l 644 325 l 775 325 l 781 360 b 646 508 794 449 760 508 b 468 353 546 508 488 458 l 435 165 b 582 -10 414 47 460 -10 b 742 117 678 -10 728 40 z m 585 104 b 567 156 564 104 560 118 l 575 204 b 604 214 583 211 593 214 b 625 186 619 214 629 206 l 615 131 b 585 104 613 115 604 104 z "},"⅛":{"ha":867,"x_min":0,"x_max":0,"o":"m 524 554 l 901 935 l 735 1039 l 483 583 z m 175 -36 l 426 440 l 390 469 l 7 78 z m 379 500 l 400 622 l 332 622 l 399 1000 l 294 1000 b 197 924 276 951 243 926 l 181 826 l 239 826 l 203 622 l 129 622 l 108 500 z m 575 -10 b 746 113 688 -10 732 38 l 754 157 b 721 260 765 213 751 244 b 782 342 753 272 774 297 l 788 372 b 654 508 804 463 753 508 b 486 392 551 508 499 463 l 479 353 b 508 261 469 301 482 275 b 442 181 472 247 449 221 l 432 128 b 575 -10 415 36 460 -10 z m 601 329 l 610 378 b 639 401 613 392 619 401 b 660 369 657 401 664 392 l 653 329 b 622 307 650 314 639 307 b 601 329 606 307 599 314 z m 588 106 b 565 136 568 106 560 111 l 574 185 b 607 214 576 204 586 214 b 632 190 628 214 635 206 l 621 131 b 588 106 618 113 607 106 z "},"⅜":{"ha":867,"x_min":0,"x_max":0,"o":"m 524 554 l 901 935 l 735 1039 l 483 583 z m 175 -36 l 426 440 l 390 469 l 7 78 z m 575 -10 b 746 113 688 -10 732 38 l 754 157 b 721 260 765 213 751 244 b 782 342 753 272 774 297 l 788 372 b 654 508 804 463 753 508 b 486 392 551 508 499 463 l 479 353 b 508 261 469 301 482 275 b 442 181 472 247 449 221 l 432 128 b 575 -10 415 36 460 -10 z m 601 329 l 610 378 b 639 401 613 392 619 401 b 660 369 657 401 664 392 l 653 329 b 622 307 650 314 639 307 b 601 329 606 307 599 314 z m 588 106 b 565 136 568 106 560 111 l 574 185 b 607 214 576 204 586 214 b 632 190 628 214 635 206 l 621 131 b 588 106 618 113 607 106 z m 243 489 b 407 610 354 489 394 540 l 417 667 b 379 757 425 715 410 743 b 440 832 413 768 433 790 l 449 875 b 311 1007 464 956 418 1007 b 147 883 210 1007 161 958 b 138 831 147 883 139 836 l 265 831 l 271 868 b 299 892 275 886 282 892 b 318 865 317 892 321 881 l 311 824 b 282 803 308 808 300 803 l 242 803 l 224 703 l 263 703 b 286 683 282 703 289 699 l 278 635 b 251 608 275 619 267 608 b 232 642 232 608 228 617 l 238 676 l 107 676 b 99 632 106 672 101 649 b 243 489 81 539 122 489 z "},"⅝":{"ha":867,"x_min":0,"x_max":0,"o":"m 524 554 l 901 935 l 735 1039 l 483 583 z m 175 -36 l 426 440 l 390 469 l 7 78 z m 575 -10 b 746 113 688 -10 732 38 l 754 157 b 721 260 765 213 751 244 b 782 342 753 272 774 297 l 788 372 b 654 508 804 463 753 508 b 486 392 551 508 499 463 l 479 353 b 508 261 469 301 482 275 b 442 181 472 247 449 221 l 432 128 b 575 -10 415 36 460 -10 z m 601 329 l 610 378 b 639 401 613 392 619 401 b 660 369 657 401 664 392 l 653 329 b 622 307 650 314 639 307 b 601 329 606 307 599 314 z m 588 106 b 565 136 568 106 560 111 l 574 185 b 607 214 576 204 586 214 b 632 190 628 214 635 206 l 621 131 b 588 106 618 113 607 106 z m 240 490 b 408 619 344 490 393 536 l 425 714 b 326 846 446 811 400 846 b 264 821 299 846 279 836 l 283 889 l 331 889 b 461 994 428 889 446 904 l 463 1000 l 199 1000 l 124 746 l 240 714 l 246 725 b 274 742 251 735 261 742 b 292 717 289 742 294 733 l 278 635 b 251 608 275 619 268 608 b 236 638 238 608 232 617 l 244 683 l 111 683 l 104 644 b 240 490 86 544 125 490 z "},"⅞":{"ha":867,"x_min":0,"x_max":0,"o":"m 524 554 l 901 935 l 735 1039 l 483 583 z m 175 -36 l 426 440 l 390 469 l 7 78 z m 575 -10 b 746 113 688 -10 732 38 l 754 157 b 721 260 765 213 751 244 b 782 342 753 272 774 297 l 788 372 b 654 508 804 463 753 508 b 486 392 551 508 499 463 l 479 353 b 508 261 469 301 482 275 b 442 181 472 247 449 221 l 432 128 b 575 -10 415 36 460 -10 z m 601 329 l 610 378 b 639 401 613 392 619 401 b 660 369 657 401 664 392 l 653 329 b 622 307 650 314 639 307 b 601 329 606 307 599 314 z m 588 106 b 565 136 568 106 560 111 l 574 185 b 607 214 576 204 586 214 b 632 190 628 214 635 206 l 621 131 b 588 106 618 113 607 106 z m 299 500 b 492 893 349 658 408 771 l 511 1000 l 215 1000 l 193 876 l 351 876 b 150 500 281 775 207 657 z "},"%":{"ha":872,"x_min":0,"x_max":0,"o":"m 231 529 b 414 667 324 529 399 579 l 444 833 b 289 1010 463 938 400 1010 b 107 867 197 1010 122 953 l 78 701 b 231 529 61 601 115 529 z m -24 0 l 211 0 b 926 1000 363 163 761 829 l 697 1000 b -24 0 544 833 143 168 z m 246 665 b 225 710 226 665 221 676 l 247 836 b 276 876 251 864 258 876 b 297 833 297 876 303 863 l 276 710 b 246 665 272 678 264 665 z m 613 -12 b 796 125 706 -12 781 38 l 826 292 b 671 468 844 396 782 468 b 489 325 579 468 504 411 l 460 160 b 613 -12 443 60 497 -12 z m 628 124 b 607 168 608 124 603 135 l 629 294 b 658 335 633 322 640 335 b 679 292 679 335 685 321 l 658 168 b 628 124 654 136 646 124 z "},"‰":{"ha":1254,"x_min":0,"x_max":0,"o":"m 231 529 b 414 667 324 529 399 579 l 444 833 b 289 1010 463 938 400 1010 b 107 867 197 1010 122 953 l 78 701 b 231 529 61 601 115 529 z m -24 0 l 211 0 b 926 1000 363 163 761 829 l 697 1000 b -24 0 544 833 143 168 z m 246 665 b 225 710 226 665 221 676 l 247 836 b 276 876 251 864 258 876 b 297 833 297 876 303 863 l 276 710 b 246 665 272 678 264 665 z m 994 -12 b 1178 125 1088 -12 1163 38 l 1208 292 b 1053 468 1226 396 1164 468 b 871 325 961 468 886 411 l 842 160 b 994 -12 825 60 879 -12 z m 613 -12 b 796 125 706 -12 781 38 l 826 292 b 671 468 844 396 782 468 b 489 325 579 468 504 411 l 460 160 b 613 -12 443 60 497 -12 z m 1010 124 b 989 168 990 124 985 135 l 1011 294 b 1040 335 1015 322 1022 335 b 1061 292 1061 335 1067 321 l 1040 168 b 1010 124 1036 136 1028 124 z m 628 124 b 607 168 608 124 603 135 l 629 294 b 658 335 633 322 640 335 b 679 292 679 335 685 321 l 658 168 b 628 124 654 136 646 124 z "},"№":{"ha":1140,"x_min":0,"x_max":0,"o":"m 928 447 b 1144 610 1038 447 1126 507 l 1179 806 b 996 1014 1201 929 1128 1014 b 782 844 889 1014 800 947 l 747 650 b 928 447 728 532 792 447 z m 942 594 b 915 649 921 594 908 608 l 944 822 b 985 872 950 860 965 872 b 1013 817 1008 872 1021 858 l 985 649 b 942 594 978 610 963 594 z m 256 447 l 269 560 l 278 489 l 369 0 l 569 0 l 744 1000 l 539 1000 l 460 546 l 447 440 l 439 511 l 351 1000 l 147 1000 l -28 0 l 178 0 z m 685 221 l 1069 221 l 1101 403 l 717 403 z "},"¤":{"ha":735,"x_min":0,"x_max":0,"o":"m 301 404 b 244 481 257 404 236 436 l 253 533 b 338 610 261 579 293 610 b 392 533 381 610 400 578 l 383 481 b 301 404 375 436 344 404 z m 285 244 b 376 258 317 244 347 250 l 453 154 l 593 268 l 517 372 b 554 478 535 404 547 439 l 565 538 b 558 643 572 576 569 613 l 678 754 l 575 864 l 454 751 b 351 771 424 764 389 771 b 265 758 321 771 292 767 l 186 864 l 49 750 l 125 649 b 83 536 104 615 90 578 l 72 476 b 76 372 65 438 67 401 l -44 260 l 63 149 l 183 261 b 285 244 213 250 247 244 z "},"←":{"ha":1015,"x_min":0,"x_max":0,"o":"m 933 400 l 933 604 l 381 604 b 535 818 443 658 504 739 l 296 818 b 64 551 264 726 164 614 l 64 449 b 299 185 164 386 265 276 l 546 185 b 376 400 513 267 443 347 z "},"→":{"ha":1015,"x_min":0,"x_max":0,"o":"m 719 185 b 954 449 753 276 854 386 l 954 551 b 722 818 854 614 754 726 l 483 818 b 638 604 514 739 575 658 l 85 604 l 85 400 l 642 400 b 472 185 575 347 506 267 z "},"↑":{"ha":1015,"x_min":0,"x_max":0,"o":"m 826 467 l 826 706 b 563 938 733 739 625 838 l 464 938 b 196 706 400 838 288 739 l 196 467 b 410 626 283 501 358 563 l 410 72 l 614 72 l 614 626 b 826 467 665 561 739 501 z "},"↓":{"ha":1015,"x_min":0,"x_max":0,"o":"m 558 61 b 826 293 621 161 733 260 l 826 532 b 611 371 739 497 663 436 l 611 926 l 408 926 l 408 371 b 196 532 357 438 283 497 l 196 293 b 460 61 288 260 396 161 z "},"↖":{"ha":1015,"x_min":0,"x_max":0,"o":"m 888 272 l 496 664 b 758 701 578 654 672 665 l 589 871 b 239 847 501 828 356 821 l 169 778 b 144 424 196 663 186 513 l 313 256 b 351 521 350 342 360 439 l 743 128 z "},"↗":{"ha":1015,"x_min":0,"x_max":0,"o":"m 718 256 l 888 425 b 864 775 844 514 838 660 l 794 844 b 440 871 679 819 529 828 l 272 701 b 538 664 358 665 454 654 l 144 271 l 289 128 l 681 519 b 718 256 671 438 682 343 z "},"↘":{"ha":1015,"x_min":0,"x_max":0,"o":"m 792 151 l 861 221 b 886 575 835 336 844 486 l 718 743 b 679 478 681 657 671 560 l 288 871 l 143 726 l 535 335 b 272 297 453 344 358 333 l 442 128 b 792 151 529 171 675 178 z "},"↙":{"ha":1015,"x_min":0,"x_max":0,"o":"m 590 128 l 760 296 b 493 335 674 333 576 344 l 886 726 l 742 871 l 350 478 b 314 742 360 561 350 656 l 144 572 b 168 222 186 485 193 339 l 238 153 b 590 128 353 179 501 169 z "},"○":{"ha":1193,"x_min":0,"x_max":0,"o":"m 597 -15 b 1113 497 901 -15 1113 201 b 597 1010 1113 796 897 1010 b 83 497 294 1010 83 792 b 597 -15 83 197 294 -15 z m 597 294 b 403 497 479 294 403 383 b 597 703 403 613 479 703 b 792 497 715 703 792 611 b 597 294 792 383 715 294 z "},"●":{"ha":1193,"x_min":0,"x_max":0,"o":"m 597 -15 b 1113 497 901 -15 1113 201 b 597 1010 1113 796 897 1010 b 83 497 294 1010 83 792 b 597 -15 83 197 294 -15 z "},"■":{"ha":1125,"x_min":0,"x_max":0,"o":"m 64 0 l 1064 0 l 1064 1000 l 64 1000 z "},"□":{"ha":1125,"x_min":0,"x_max":0,"o":"m 64 0 l 1064 0 l 1064 1000 l 64 1000 z m 393 324 l 393 678 l 735 678 l 735 324 z "},"⊠":{"ha":1125,"x_min":0,"x_max":0,"o":"m 64 0 l 1064 0 l 1064 1000 l 64 1000 z m 393 324 l 393 678 l 735 678 l 735 324 z m 650 356 l 706 411 l 619 500 l 707 589 l 650 644 l 565 557 l 481 643 l 424 588 l 510 500 l 425 413 l 481 357 l 565 443 z "},"▪":{"ha":935,"x_min":0,"x_max":0,"o":"m 63 0 l 875 0 l 875 813 l 63 813 z "},"▫":{"ha":935,"x_min":0,"x_max":0,"o":"m 63 0 l 875 0 l 875 813 l 63 813 z m 340 274 l 340 540 l 597 540 l 597 274 z "},"▲":{"ha":1251,"x_min":0,"x_max":0,"o":"m 1222 0 l 628 1031 l 32 0 z "},"▼":{"ha":1251,"x_min":0,"x_max":0,"o":"m 628 -17 l 1222 1014 l 32 1014 z "},"◄":{"ha":1251,"x_min":0,"x_max":0,"o":"m 1111 1111 l 81 517 l 1111 -79 z "},"►":{"ha":1251,"x_min":0,"x_max":0,"o":"m 143 -79 l 1174 517 l 143 1111 z "},"◤":{"ha":1251,"x_min":0,"x_max":0,"o":"m 1194 -75 l 886 1075 l 44 233 z "},"◥":{"ha":1251,"x_min":0,"x_max":0,"o":"m 1215 226 l 375 1069 l 65 -81 z "},"◢":{"ha":1251,"x_min":0,"x_max":0,"o":"m 1217 740 l 67 1049 l 375 -101 z "},"◣":{"ha":1251,"x_min":0,"x_max":0,"o":"m 882 -101 l 1190 1049 l 40 740 z "},"◎":{"ha":1274,"x_min":0,"x_max":0,"o":"m 638 -14 b 1147 497 938 -14 1147 201 b 638 1008 1147 796 933 1008 b 129 497 339 1008 129 792 b 638 -14 129 197 339 -14 z m 638 167 b 311 497 453 167 311 308 b 638 831 311 686 453 831 b 965 497 826 831 965 682 b 638 167 965 308 826 167 z m 639 260 b 876 496 775 260 876 363 b 639 732 876 632 774 732 b 401 496 506 732 401 632 b 639 260 401 360 501 260 z m 639 415 b 564 496 594 415 564 450 b 639 576 564 543 594 576 b 714 496 683 576 714 543 b 639 415 714 450 683 415 z "},"★":{"ha":1256,"x_min":0,"x_max":0,"o":"m 367 118 l 625 306 l 885 118 l 785 421 l 1044 607 l 725 608 l 626 911 l 526 608 l 208 610 l 467 422 z "},"☼":{"ha":1294,"x_min":0,"x_max":0,"o":"m 631 789 l 658 789 l 682 986 l 607 986 z m 781 757 l 801 743 l 922 903 l 857 942 z m 488 743 l 508 757 l 432 942 l 367 903 z m 892 654 l 906 632 l 1090 710 l 1049 774 z m 383 632 l 397 653 l 238 774 l 199 708 z m 403 494 b 644 253 403 363 513 253 b 886 494 776 253 886 363 b 644 736 886 626 776 736 b 403 494 513 736 403 626 z m 938 510 l 938 482 l 1135 458 l 1135 533 z m 351 482 l 351 510 l 154 533 l 154 458 z m 397 338 l 383 360 l 199 282 l 240 218 z m 906 360 l 892 339 l 1051 218 l 1090 283 z m 508 235 l 488 249 l 367 89 l 432 50 z m 801 249 l 781 235 l 857 50 l 922 89 z m 658 203 l 631 203 l 607 6 l 682 6 z "},"☾":{"ha":1099,"x_min":0,"x_max":0,"o":"m 746 840 b 844 824 779 840 813 832 b 597 903 774 874 688 903 b 186 492 371 903 186 718 b 597 81 186 265 371 81 b 844 160 688 81 774 110 b 746 143 813 150 779 143 b 414 492 563 143 414 300 b 746 840 414 683 563 840 z "},"♻":{"ha":1157,"x_min":0,"x_max":0,"o":"m 490 944 b 597 878 490 944 561 940 l 682 731 l 635 703 l 836 665 l 910 863 l 858 833 l 825 890 b 718 946 796 943 761 944 l 490 946 z m 250 732 l 426 631 l 563 867 b 369 908 539 913 439 950 b 329 872 350 899 335 882 z m 963 649 l 788 549 l 924 313 b 1056 460 972 313 1057 378 b 1044 511 1056 481 1050 501 z m 235 174 b 239 300 235 174 204 240 b 324 447 242 306 324 447 l 372 418 l 303 614 l 97 578 l 147 549 l 114 490 b 119 371 83 439 99 408 l 232 174 z m 1031 342 b 918 281 1031 342 988 281 l 747 281 l 747 339 l 615 179 l 747 19 l 747 78 l 815 78 b 918 143 876 78 894 107 l 1032 340 z m 540 78 l 540 281 l 268 281 b 329 93 242 238 258 135 b 382 78 347 82 368 78 z "},"♼":{"ha":1157,"x_min":0,"x_max":0,"o":"m 1050 492 b 582 964 1050 753 840 964 b 110 492 321 964 110 753 b 582 24 110 232 321 24 b 1050 492 840 24 1050 232 z m 503 850 l 679 850 b 763 807 714 850 739 847 l 789 763 l 828 785 l 772 632 l 615 661 l 653 683 l 586 797 b 503 849 560 843 503 849 z m 385 792 b 414 821 388 801 400 813 b 564 789 468 853 546 824 l 460 606 l 322 685 z m 936 514 b 947 474 942 504 947 490 b 844 357 947 410 883 357 l 738 540 l 875 619 z m 308 251 l 221 403 b 217 497 206 433 192 456 l 243 542 l 204 565 l 363 592 l 417 440 l 379 464 l 313 350 b 310 251 286 303 310 251 z m 928 379 l 839 228 b 760 178 822 200 808 178 l 708 178 l 708 132 l 604 256 l 708 378 l 708 335 l 839 335 b 926 381 894 335 926 381 z m 419 178 b 379 189 410 178 393 181 b 331 335 324 221 310 300 l 543 335 l 543 178 z "},"♽":{"ha":1157,"x_min":0,"x_max":0,"o":"m 1050 492 b 582 964 1050 753 840 964 b 110 492 321 964 110 753 b 582 24 110 232 321 24 b 1050 492 840 24 1050 232 z m 1026 492 b 582 46 1026 244 828 46 b 133 492 333 46 133 244 b 582 940 133 740 333 940 b 1026 492 828 940 1026 740 z m 503 849 b 586 797 503 849 560 843 l 653 683 l 615 661 l 772 632 l 828 785 l 789 763 l 763 807 b 679 850 739 847 714 850 l 503 850 z m 322 685 l 460 606 l 564 789 b 414 821 546 824 468 853 b 385 792 400 813 388 801 z m 875 619 l 738 540 l 844 357 b 947 474 883 357 947 410 b 936 514 947 490 942 504 z m 310 251 b 313 350 310 251 286 303 l 379 464 l 417 440 l 363 592 l 204 565 l 243 542 l 217 497 b 221 403 192 456 206 433 l 308 251 z m 926 381 b 839 335 926 381 894 335 l 708 335 l 708 378 l 604 256 l 708 132 l 708 178 l 760 178 b 839 228 808 178 822 200 l 928 379 z m 543 178 l 543 335 l 331 335 b 379 189 310 300 324 221 b 419 178 393 181 410 178 z "},"⌂":{"ha":1189,"x_min":0,"x_max":0,"o":"m 143 0 l 1049 0 l 1049 564 l 596 999 l 143 564 z "},"♠":{"ha":1258,"x_min":0,"x_max":0,"o":"m 675 394 b 922 211 711 300 789 211 b 1136 425 1040 211 1136 307 b 826 864 1136 581 1051 685 l 636 1015 l 635 1015 l 444 864 b 124 425 219 685 124 581 b 357 210 124 307 231 210 b 588 394 481 210 554 300 b 458 0 588 231 497 69 l 811 0 b 675 394 776 69 675 231 z "},"♣":{"ha":1258,"x_min":0,"x_max":0,"o":"m 903 178 b 1143 421 1036 178 1143 288 b 904 661 1143 554 1038 661 b 842 650 882 661 860 657 b 867 771 857 688 867 729 b 628 1008 867 903 760 1008 b 388 771 496 1008 388 903 b 415 653 388 731 399 689 b 358 661 397 657 379 661 b 117 421 225 661 117 554 b 358 178 117 288 225 178 b 586 342 464 178 549 247 b 460 0 569 197 494 61 l 813 0 b 681 340 782 61 699 197 b 903 178 717 246 799 178 z "},"♥":{"ha":1258,"x_min":0,"x_max":0,"o":"m 626 -24 l 818 190 b 1135 751 1046 442 1135 593 b 876 1008 1135 892 1017 1008 b 626 790 738 1008 642 914 b 375 1008 611 914 513 1008 b 125 751 235 1008 125 892 b 435 190 125 593 208 442 z "},"♦":{"ha":1258,"x_min":0,"x_max":0,"o":"m 631 -14 l 1075 506 l 631 1019 l 185 506 z "},"+":{"ha":629,"x_min":0,"x_max":0,"o":"m 574 397 l 607 589 l 444 589 l 474 754 l 283 754 l 254 589 l 90 589 l 57 397 l 221 397 l 192 232 l 382 232 l 411 397 z "},"−":{"ha":629,"x_min":0,"x_max":0,"o":"m 574 394 l 608 592 l 92 592 l 57 394 z "},"±":{"ha":629,"x_min":0,"x_max":0,"o":"m 567 554 l 600 742 l 471 742 l 494 875 l 307 875 l 283 742 l 153 742 l 119 554 l 250 554 l 226 421 l 414 421 l 438 554 z m 499 171 l 533 363 l 86 363 l 51 171 z "},"×":{"ha":629,"x_min":0,"x_max":0,"o":"m 433 242 l 564 357 l 453 489 l 596 611 l 490 738 l 347 615 l 243 738 l 111 622 l 214 501 l 61 371 l 167 246 l 319 376 z "},"÷":{"ha":629,"x_min":0,"x_max":0,"o":"m 353 622 b 481 707 438 622 469 639 b 383 792 493 776 468 792 b 257 707 300 792 269 776 b 353 622 244 638 264 622 z m 56 392 l 572 392 l 607 588 l 90 588 z m 276 185 b 404 271 361 185 392 203 b 307 356 417 340 392 356 b 181 271 224 356 193 340 b 276 185 168 201 188 185 z "},"=":{"ha":629,"x_min":0,"x_max":0,"o":"m 578 540 l 611 732 l 136 732 l 103 540 z m 531 269 l 564 461 l 89 461 l 56 269 z "},"≠":{"ha":629,"x_min":0,"x_max":0,"o":"m 531 274 l 564 460 l 375 460 l 415 542 l 578 542 l 611 728 l 506 728 l 547 813 l 418 813 l 376 728 l 136 728 l 103 542 l 286 542 l 247 460 l 89 460 l 56 274 l 156 274 l 108 175 l 236 175 l 285 274 z "},"≈":{"ha":611,"x_min":0,"x_max":0,"o":"m 200 497 b 82 449 156 497 104 475 l 47 250 b 167 308 75 283 126 308 b 408 246 236 308 314 246 b 521 294 456 246 501 269 l 556 493 b 442 435 522 454 482 435 b 200 497 367 435 282 497 z m 247 763 b 129 713 201 763 150 739 l 94 514 b 213 572 124 551 174 572 b 454 510 285 572 361 510 b 568 560 497 510 547 535 l 603 758 b 488 700 572 719 528 700 b 247 763 417 700 329 763 z "},"<":{"ha":611,"x_min":0,"x_max":0,"o":"m 506 217 l 543 425 l 340 503 l 571 581 l 608 797 l 104 599 l 72 413 z "},">":{"ha":611,"x_min":0,"x_max":0,"o":"m 43 217 l 547 415 l 579 601 l 146 797 l 108 589 l 311 511 l 81 433 z "},"≤":{"ha":611,"x_min":0,"x_max":0,"o":"m 533 378 l 567 564 l 343 642 l 594 718 l 626 904 l 126 719 l 99 560 z m 497 167 l 528 342 l 61 342 l 31 167 z "},"≥":{"ha":611,"x_min":0,"x_max":0,"o":"m 71 378 l 572 560 l 600 719 l 164 904 l 132 718 l 356 642 l 104 564 z m 35 167 l 501 167 l 532 342 l 65 342 z "},"¬":{"ha":621,"x_min":0,"x_max":0,"o":"m 550 244 l 621 647 l 74 647 l 38 449 l 372 449 l 338 244 z "},"≡":{"ha":629,"x_min":0,"x_max":0,"o":"m 600 665 l 631 836 l 156 836 l 125 665 z m 557 422 l 588 594 l 113 594 l 82 422 z m 514 179 l 544 350 l 69 350 l 39 179 z "},"′":{"ha":317,"x_min":0,"x_max":0,"o":"m 236 683 l 399 1000 l 190 1000 l 78 683 z "},"″":{"ha":557,"x_min":0,"x_max":0,"o":"m 474 683 l 640 1000 l 433 1000 l 315 683 z m 236 683 l 397 1000 l 190 1000 l 78 683 z "},"℅":{"ha":872,"x_min":0,"x_max":0,"o":"m -22 0 l 213 0 b 928 1000 364 163 763 829 l 699 1000 b -22 0 546 833 144 168 z m 232 529 b 415 667 325 529 400 579 l 431 750 l 285 750 l 278 710 b 247 668 274 682 265 668 b 226 710 228 668 222 681 l 249 836 b 278 874 253 864 264 874 b 299 833 299 874 304 863 l 293 799 l 440 799 l 446 833 b 290 1010 464 938 401 1010 b 108 867 199 1010 124 953 l 79 701 b 232 529 63 601 117 529 z m 614 -12 b 797 125 707 -12 782 38 l 828 292 b 672 468 846 396 783 468 b 490 325 581 468 506 411 l 461 160 b 614 -12 444 60 499 -12 z m 629 124 b 608 168 610 124 604 135 l 631 294 b 660 335 635 322 642 335 b 681 292 681 335 686 321 l 660 168 b 629 124 656 136 647 124 z "},"‗":{"ha":631,"x_min":0,"x_max":0,"o":"m 569 183 l -14 183 l -46 0 l 538 0 z m 528 -53 l -56 -53 l -86 -235 l 496 -235 z "},"‼":{"ha":664,"x_min":0,"x_max":0,"o":"m 390 289 b 475 297 408 294 440 297 b 554 289 510 297 538 294 b 668 707 571 308 633 511 l 719 1000 l 478 1000 l 426 707 b 390 289 392 508 383 308 z m 74 289 b 157 297 90 294 122 297 b 238 289 192 297 221 294 b 350 707 253 308 315 511 l 401 1000 l 160 1000 l 108 707 b 74 289 74 508 65 308 z m 418 -11 b 571 122 515 -11 551 14 b 465 256 590 232 563 256 b 314 122 368 256 333 232 b 418 -11 294 13 317 -11 z m 101 -11 b 253 122 199 -11 233 14 b 149 256 272 232 246 256 b -3 122 51 256 17 232 b 101 -11 -22 13 0 -11 z "},"∞":{"ha":944,"x_min":0,"x_max":0,"o":"m 693 451 b 614 504 661 451 640 474 b 711 557 651 536 679 557 b 757 504 743 557 761 533 b 693 451 751 475 725 451 z m 274 453 b 229 504 242 453 224 476 b 292 556 233 532 260 556 b 374 504 322 556 347 536 b 274 453 336 474 304 453 z m 238 279 b 479 389 338 279 397 322 b 685 281 536 322 583 281 b 931 486 826 281 910 361 b 746 725 954 624 875 725 b 504 618 643 725 585 685 b 304 725 446 685 406 725 b 50 514 168 725 71 639 b 238 279 25 378 82 279 z "},"∂":{"ha":624,"x_min":0,"x_max":0,"o":"m 261 -15 b 563 226 425 -15 535 74 l 621 553 b 447 1065 678 779 589 958 l 154 1065 b 438 729 329 943 415 846 b 321 796 421 772 385 796 b 56 528 174 796 86 701 l 13 286 b 261 -15 -18 111 61 -15 z m 278 182 b 231 261 244 182 221 201 l 276 524 b 346 603 286 581 311 603 b 393 524 381 603 403 583 l 347 261 b 278 182 338 204 313 182 z "},"π":{"ha":776,"x_min":0,"x_max":0,"o":"m 400 210 b 576 0 371 42 410 0 l 679 0 l 714 200 l 665 200 b 628 254 628 200 619 211 l 722 792 l 818 792 l 854 1000 l 133 1000 l 97 792 l 192 792 l 53 0 l 272 0 l 411 792 l 503 792 z "},"μ":{"ha":629,"x_min":0,"x_max":0,"o":"m 239 -12 b 333 63 288 -12 314 10 l 338 0 l 515 0 l 658 813 l 429 813 l 333 275 b 275 192 325 222 313 192 b 246 271 239 192 238 221 l 342 813 l 115 813 l -71 -251 l 153 -251 l 197 1 b 239 -12 207 -8 221 -12 z "},"∫":{"ha":461,"x_min":0,"x_max":0,"o":"m -96 -256 l -8 -256 b 263 -35 158 -256 233 -197 l 408 789 b 464 842 415 831 428 842 l 521 842 l 556 1033 l 463 1033 b 192 813 296 1033 219 975 l 46 -11 b -11 -64 39 -53 25 -64 l -64 -64 z "},"√":{"ha":808,"x_min":0,"x_max":0,"o":"m 411 0 l 919 1000 l 682 1000 l 368 390 l 339 688 l 90 688 l 51 465 l 136 465 l 186 0 z "},"∆":{"ha":792,"x_min":0,"x_max":0,"o":"m -74 0 l 725 0 l 506 1021 z m 467 189 l 264 189 l 415 472 z "},"Ω":{"ha":863,"x_min":0,"x_max":0,"o":"m 372 200 b 331 576 313 344 308 454 b 501 806 363 763 431 806 b 592 575 574 806 625 761 b 415 200 569 453 526 344 l 478 0 l 763 0 l 800 215 l 649 215 b 831 561 733 308 803 408 b 524 1015 886 871 756 1015 b 96 606 294 1015 144 883 b 149 215 64 432 97 317 l -6 215 l -43 0 l 249 0 z "},"∏":{"ha":776,"x_min":0,"x_max":0,"o":"m 364 0 l 583 0 l 722 792 l 819 792 l 856 1000 l 133 1000 l 97 792 l 192 792 l 53 0 l 272 0 l 411 792 l 503 792 z "},"∑":{"ha":549,"x_min":0,"x_max":0,"o":"m 482 210 l 254 210 l 519 511 l 347 799 l 576 799 l 611 1000 l 144 1000 l 110 801 l 274 528 l -4 207 l -40 0 l 446 0 z "},"◊":{"ha":758,"x_min":0,"x_max":0,"o":"m 335 135 l 764 500 l 463 867 l 32 501 z m 382 407 l 306 501 l 413 593 l 492 499 z "},"°":{"ha":418,"x_min":0,"x_max":0,"o":"m 251 650 b 471 821 367 650 450 707 l 472 829 b 317 1010 493 950 428 1010 b 96 829 207 1010 117 950 l 94 821 b 251 650 74 707 131 650 z m 279 797 b 257 828 264 797 253 807 l 257 829 b 290 863 261 856 275 863 b 313 829 308 863 317 856 l 313 828 b 279 797 308 806 294 797 z "}}}
